<?xml version="1.0" encoding="utf-8"?>
<!-- Generator: Adobe Illustrator 24.0.0, SVG Export Plug-In . SVG Version: 6.00 Build 0)  -->
<svg version="1.1" id="Layer_1" xmlns="http://www.w3.org/2000/svg" xmlns:xlink="http://www.w3.org/1999/xlink" x="0px" y="0px"
	 viewBox="0 0 947 84" style="enable-background:new 0 0 947 84;" xml:space="preserve">
<style type="text/css">
	.st0{fill:#231F20;}
</style>
<g>
	<path class="st0" d="M51.08,57.13c0.56,0.64,0.78,1.33,0.64,2.07c-0.14,0.74-0.6,1.26-1.38,1.54c-0.99,0.42-1.91,0.57-2.76,0.42
		c-1.63-0.28-2.9-0.74-3.82-1.38c-0.64-0.42-1.31-0.42-2.01,0c-2.83,1.91-5.09,4.03-6.79,6.36c-0.71,0.99-0.99,2.05-0.85,3.18
		c0.35,3.54,1.38,6.4,3.08,8.59c0.14,0.21,0.3,0.41,0.48,0.58c0.18,0.18,0.35,0.37,0.53,0.58c0.18,0.21,0.33,0.35,0.48,0.42
		c0.28,0.36,0.46,0.57,0.53,0.64c0.07,0.21,0.05,0.41-0.05,0.58c-0.11,0.18-0.27,0.27-0.48,0.27c-0.35-0.07-0.78-0.32-1.27-0.74
		c-1.91-1.7-3.22-3.85-3.92-6.47c-0.99-3.39-1.31-6.61-0.95-9.65c0.07-0.42,0.11-1.04,0.11-1.86c0-0.81,0.03-1.36,0.11-1.64
		c0-0.42-0.32-0.81-0.95-1.17c-2.12-1.27-3.96-2.76-5.51-4.45c-1.48-1.63-2.4-3.29-2.76-4.98c-0.07-0.35-0.11-0.6-0.11-0.74
		c-0.14-1.55,0.28-2.61,1.27-3.18c0.99-0.64,2.12-0.6,3.39,0.11c1.55,0.92,2.86,2.51,3.92,4.77c0.07,0.14,0.49,1.13,1.27,2.97
		c0.14-0.56,0.25-1.39,0.32-2.49c0.07-1.1,0.14-1.82,0.21-2.17v-0.32c0.49-1.63,0.07-3.57-1.27-5.83c-0.71-1.2-1.45-2.26-2.23-3.18
		c-0.42-0.42-0.71-0.64-0.85-0.64c-0.14,0-0.39,0.21-0.74,0.64c-0.99,1.48-2.33,2.58-4.03,3.29c-1.34,0.64-2.69,0.67-4.03,0.11
		c-0.99-0.42-1.59-1.08-1.8-1.96c-0.21-0.88,0.03-1.75,0.74-2.6c1.2-1.27,2.79-1.98,4.77-2.12c0.35-0.07,1.13-0.07,2.33,0
		c0.42,0,0.6-0.18,0.53-0.53c-0.14-0.78-0.21-1.24-0.21-1.38c-0.21-2.05,0.25-3.64,1.38-4.77c0.71-0.71,1.48-0.92,2.33-0.64
		c0.85,0.28,1.34,0.88,1.48,1.8c0.14,1.2-0.02,2.32-0.48,3.34c-0.46,1.03-0.97,1.89-1.54,2.6c-0.28,0.35-0.28,0.64,0,0.85
		c1.13,1.06,2.37,2.69,3.71,4.88l0.21,0.11c0.14,0,0.21-0.11,0.21-0.32c0.07-5.02-0.18-9.08-0.74-12.19
		c-0.35-1.98-0.95-3.6-1.8-4.88c-0.42-0.64-0.95-1.17-1.59-1.59c-0.5-0.28-0.92-0.21-1.27,0.21c-0.14,0.21-0.41,0.6-0.8,1.17
		c-0.39,0.57-0.69,0.99-0.9,1.27c-0.92,1.13-1.91,2.05-2.97,2.76c-0.57,0.35-1.17,0.6-1.8,0.74c-0.92,0.21-1.7,0.04-2.33-0.53
		c-0.64-0.57-0.85-1.34-0.64-2.33c0.21-1.2,0.85-2.26,1.91-3.18c1.41-1.2,3.11-2.05,5.09-2.54c0.49-0.07,0.78-0.16,0.85-0.27
		c0.07-0.11,0-0.41-0.21-0.9c-1.13-2.9-1.38-5.48-0.74-7.74c0.49-1.48,1.2-2.61,2.12-3.39c0.78-0.71,1.64-0.99,2.6-0.85
		c0.95,0.14,1.68,0.67,2.17,1.59c0.78,1.34,1.02,2.83,0.74,4.45c-0.42,2.26-1.45,4.56-3.07,6.89c-0.07,0.07-0.21,0.25-0.42,0.53
		c-0.28,0.28-0.25,0.53,0.11,0.74l0.53,0.32c1.2,0.99,2.01,1.98,2.44,2.97c0.21,0.5,0.42,0.85,0.64,1.06
		c0.21-0.21,0.42-0.56,0.64-1.06c0.64-1.91,1.66-3.67,3.08-5.3c0.99-1.06,2.16-1.87,3.5-2.44c0.28-0.14,0.6-0.25,0.95-0.32
		c1.2-0.21,2.16,0.04,2.86,0.74c0.71,0.71,0.92,1.7,0.64,2.97c-0.28,1.63-1.27,3.36-2.97,5.2c-1.7,1.91-3.85,3.46-6.47,4.67
		c-0.5,0.21-0.8,0.42-0.9,0.64s-0.12,0.6-0.05,1.17c0.42,3.82,0.46,8.02,0.11,12.62c0,0.07-0.04,0.88-0.11,2.44
		c0.14,0,0.32-0.18,0.53-0.53c1.27-1.84,2.93-3.5,4.98-4.98c0.56-0.35,0.85-0.6,0.85-0.74c0-0.14-0.21-0.46-0.64-0.95
		c-1.34-1.48-2.19-3.08-2.54-4.77c-0.21-1.13-0.04-2.23,0.53-3.29c0.49-0.71,1.17-1.13,2.01-1.27c0.85-0.14,1.59,0.14,2.23,0.85
		c0.85,0.92,1.38,2.37,1.59,4.35c0.07,0.78,0.03,1.66-0.11,2.65c-0.07,0.42-0.05,0.71,0.05,0.85c0.11,0.14,0.41,0.25,0.9,0.32
		c1.48,0.07,2.69,0.53,3.61,1.38c0.71,0.71,0.95,1.38,0.74,2.01c-0.28,0.78-0.92,1.17-1.91,1.17c-1.48,0.07-2.97-0.46-4.45-1.59
		c-0.42-0.35-0.73-0.53-0.9-0.53c-0.18,0-0.48,0.14-0.9,0.42c-3.32,2.33-5.58,5.2-6.79,8.59c-0.14,0.36-0.32,1.52-0.53,3.5
		c-0.42,3.25-0.64,5.87-0.64,7.85v1.27c0.28-0.14,0.6-0.42,0.95-0.85c0.92-1.27,2.47-2.69,4.67-4.24c0.07-0.07,0.19-0.17,0.37-0.32
		c0.18-0.14,0.33-0.25,0.48-0.32c0.35-0.28,0.53-0.49,0.53-0.64s-0.18-0.35-0.53-0.64c-0.71-0.49-1.34-1.02-1.91-1.59
		c-0.92-0.99-1.45-2.16-1.59-3.5c-0.21-1.41,0.28-2.54,1.48-3.39c1.06-0.71,2.16-0.64,3.29,0.21c0.78,0.64,1.38,1.59,1.8,2.86
		c0.21,0.5,0.39,1.45,0.53,2.86c0.14,0.57,0.27,0.88,0.37,0.95c0.11,0.07,0.44,0.07,1.01,0c1.41-0.35,2.69-0.35,3.82,0
		C50.09,56.39,50.65,56.71,51.08,57.13z"/>
	<path class="st0" d="M120.74,24.05c-0.42,0.36-1.13,0.71-2.12,1.06c0,0.07-0.18,0.14-0.53,0.21c0,0.21,0.21,0.39,0.64,0.53
		c0.42,0.21,0.74,0.42,0.95,0.64c0.85,0.92,0.74,1.66-0.32,2.23c-0.07,0-0.67,0.21-1.8,0.64c0,0.14,0.11,0.32,0.32,0.53
		c0.71,1.13,0.46,1.98-0.74,2.54c-0.28,0.14-0.69,0.27-1.22,0.37c-0.53,0.11-0.83,0.16-0.9,0.16c-0.07,0.14-0.04,0.32,0.11,0.53
		c0.28,0.57,0.3,1.08,0.05,1.54c-0.25,0.46-0.65,0.76-1.22,0.9c-0.78,0.14-1.66,0.11-2.65-0.11c-1.13-0.21-2.37-0.71-3.71-1.48
		c-0.07-0.07-0.2-0.16-0.37-0.27c-0.18-0.11-0.34-0.19-0.48-0.26c-0.42-0.28-0.71-0.41-0.85-0.37c-0.14,0.04-0.39,0.26-0.74,0.69
		c-0.85,1.2-1.66,2.4-2.44,3.61c-0.78,1.42-1.2,2.16-1.27,2.23c0.14,0.07,0.42,0.04,0.85-0.11c1.06-0.42,3.14-0.85,6.26-1.27
		c2.76-0.35,4.63-0.64,5.62-0.85c0.21-0.07,0.35-0.11,0.42-0.11c0.42,0,0.72,0.14,0.9,0.42c0.18,0.28,0.16,0.6-0.05,0.95
		c-0.07,0.14-0.18,0.28-0.32,0.42c-2.4,2.48-5.02,4.28-7.85,5.41c-2.12,0.85-4.38,0.92-6.79,0.21c-0.71-0.14-1.13-0.18-1.27-0.11
		c-0.14,0.07-0.35,0.42-0.64,1.06c-2.62,6.79-4.31,12.19-5.09,16.22c-0.21,1.42-0.11,2.65,0.32,3.71c0.07,0.21,0.49,1.34,1.27,3.39
		c0.78,2.05,1.41,3.61,1.91,4.67c0.21,0.42,0.32,0.81,0.32,1.17c0,0.28-0.11,0.5-0.32,0.64c-0.28,0.07-0.5,0-0.64-0.21
		c-0.14-0.14-0.32-0.39-0.53-0.74c-0.57-1.06-1.41-3.04-2.54-5.94c-0.14-0.49-0.32-0.81-0.53-0.95c-0.14,1.84-0.21,2.83-0.21,2.97
		c-0.07,0.07-0.12,0.5-0.16,1.27c-0.04,0.78-0.05,1.38-0.05,1.8c0,0.14-0.09,1.61-0.27,4.4c-0.18,2.79-0.16,4.26,0.05,4.4
		c0,0.21-0.04,0.49-0.11,0.85c-0.07,0.49-0.28,0.74-0.64,0.74c-0.35,0-0.57-0.25-0.64-0.74c-0.14-0.85-0.21-1.52-0.21-2.01
		s0.11-2.97,0.32-7.42c0.14-3.46,0.35-6.04,0.64-7.74c0.21-0.21,0.25-0.74,0.11-1.59c-0.14-0.85-0.23-1.38-0.27-1.59
		c-0.04-0.21-0.2-0.72-0.48-1.54c-0.28-0.81-0.46-1.33-0.53-1.54c-0.07-0.28-0.32-0.49-0.74-0.64c-4.1-1.84-7.95-4.77-11.56-8.8
		c-1.63-1.91-2.93-3.57-3.92-4.98c-0.28-0.35-0.5-0.53-0.64-0.53c-0.14,0-0.35,0.18-0.64,0.53c-1.27,1.7-2.65,3.22-4.14,4.56
		c-0.57,0.5-1.1,0.88-1.59,1.17c-0.71,0.28-1.27,0.21-1.7-0.21c-0.42-0.35-0.53-0.85-0.32-1.48c0.42-1.13,1.17-2.19,2.23-3.18
		c0.42-0.42,0.64-0.67,0.64-0.74c-0.21-0.07-0.71-0.07-1.48,0c-0.99,0.14-1.87,0.11-2.65-0.11c-0.78-0.14-1.24-0.53-1.38-1.17
		c-0.07-0.64,0.18-1.2,0.74-1.7c0.42-0.28,0.92-0.49,1.48-0.64c0.07,0,0.85-0.18,2.33-0.53c0-0.21-0.11-0.35-0.32-0.42l-0.21-0.11
		c-0.64-0.42-1.24-0.95-1.8-1.59c-0.5-0.56-0.6-1.13-0.32-1.7c0.28-0.42,0.81-0.6,1.59-0.53c0.42,0,0.95,0.14,1.59,0.42
		c0.78,0.28,1.73,0.81,2.86,1.59c0.28,0.21,0.49,0.28,0.64,0.21c0.07-0.07,0.11-0.53,0.11-1.38c0.07-1.84,0.39-3.36,0.95-4.56
		c0.42-0.99,0.92-1.45,1.48-1.38c0.56,0.07,0.99,0.6,1.27,1.59c0.07,0.35,0.12,0.87,0.16,1.54c0.03,0.67,0.09,1.15,0.16,1.43
		c0.14-0.07,0.46-0.35,0.95-0.85c0.64-0.57,1.31-0.99,2.01-1.27c0.71-0.28,1.31-0.21,1.8,0.21c0.49,0.5,0.64,1.1,0.42,1.8
		c0,0.07-0.18,0.67-0.53,1.8c0.07,0,0.39-0.07,0.95-0.21c0.92-0.28,1.63-0.42,2.12-0.42c0.64,0.07,1.06,0.3,1.27,0.69
		c0.21,0.39,0.18,0.87-0.11,1.43c-0.28,0.57-0.78,1.1-1.48,1.59c-1.56,0.99-3.5,1.84-5.83,2.54c-0.85,0.28-1.31,0.51-1.38,0.69
		c-0.07,0.18,0.21,0.62,0.85,1.33c1.91,2.4,3.04,3.78,3.39,4.14c2.4,2.76,5.27,5.09,8.59,7c0.21,0.07,0.35,0.14,0.42,0.21
		c0.35,0.14,0.56,0.18,0.64,0.11c0.14-0.07,0.18-0.32,0.11-0.74c-0.64-2.69-1.1-5.05-1.38-7.1c-0.35-2.61-0.53-4.84-0.53-6.68
		c-0.07-0.28-0.14-1.09-0.21-2.44c-0.07-1.34-0.11-2.4-0.11-3.18c0-0.57-0.25-0.92-0.74-1.06c-1.98-0.64-3.68-2.05-5.09-4.24
		c-0.64-1.13-1.31-2.47-2.01-4.03c-0.99-2.12-1.91-3.96-2.76-5.51c-0.07-0.07-0.14-0.14-0.21-0.21c-0.21-0.57-0.18-0.99,0.11-1.27
		c0.28-0.35,0.71-0.35,1.27,0c1.48,0.99,2.67,1.82,3.55,2.49c0.88,0.67,1.86,1.59,2.92,2.76c1.06,1.17,1.87,2.39,2.44,3.66
		c0.21,0.57,0.42,0.92,0.64,1.06c0.35-2.05,0.53-3.14,0.53-3.29c0.21-1.2,0.49-2.58,0.85-4.13c0.14-0.49,0.18-0.81,0.11-0.95
		c-0.07-0.14-0.32-0.35-0.74-0.64c-1.84-1.06-3.29-2.47-4.35-4.24c-0.5-0.85-0.74-1.66-0.74-2.44c-0.07-0.92,0.25-1.48,0.95-1.7
		c0.42-0.14,0.53-0.46,0.32-0.95c-0.07-0.28-0.14-0.49-0.21-0.64c-0.21-1.06,0.18-1.7,1.17-1.91c0.35-0.07,0.49-0.25,0.42-0.53
		c0-0.21,0-0.39,0-0.53c0.07-0.64,0.32-1.08,0.74-1.33c0.42-0.25,0.92-0.16,1.48,0.27c0.07,0,0.53,0.35,1.38,1.06
		c0.07-0.14,0.11-0.6,0.11-1.38c0.07-0.85,0.14-1.41,0.21-1.7c0.28-0.71,0.67-1.09,1.17-1.17c0.56-0.07,1.06,0.21,1.48,0.85
		c0.42,0.71,0.71,1.59,0.85,2.65c0,0.07,0.07,0.74,0.21,2.01c0.14,0,0.39-0.21,0.74-0.64c1.06-1.27,2.19-2.23,3.39-2.86
		c0.49-0.28,0.99-0.42,1.48-0.42c0.64-0.07,1.1,0.11,1.38,0.53c0.28,0.42,0.32,0.95,0.11,1.59c-0.21,0.57-0.71,1.2-1.48,1.91
		l-0.53,0.53c0.07,0.07,0.39,0.14,0.95,0.21c0.56,0,0.95,0.04,1.17,0.11c0.92,0.42,1.1,1.1,0.53,2.01c-0.07,0.14-0.64,0.64-1.7,1.48
		l0.21,0.21c0.85,0.14,1.31,0.57,1.38,1.27c0.07,0.71-0.21,1.31-0.85,1.8c-0.07,0.07-0.64,0.42-1.7,1.06c0,0.14,0.14,0.25,0.42,0.32
		c0.07,0.07,0.14,0.14,0.21,0.21c0.78,0.78,0.78,1.56,0,2.33c-0.35,0.35-0.74,0.6-1.17,0.74c-1.48,0.5-2.79,0.71-3.92,0.64
		c-0.14-0.07-1.03-0.18-2.65-0.32c-0.35-0.07-0.6-0.07-0.74,0c-0.14,0.07-0.28,0.32-0.42,0.74c-0.5,1.84-0.85,3.89-1.06,6.15
		c-0.35,3.04-0.39,7.21-0.11,12.51c0.21,4.1,0.64,7.74,1.27,10.92c0.28,1.48,0.85,3.71,1.7,6.68c0.14,0.28,0.25,0.46,0.32,0.53
		c0.14-0.07,0.25-0.28,0.32-0.64c0.85-3.53,2.4-8.31,4.67-14.31c0.28-0.78,0.41-1.2,0.37-1.27c-0.04-0.07-0.3-0.35-0.79-0.85
		c-0.85-0.78-1.48-1.77-1.91-2.97c-0.5-1.34-0.78-2.76-0.85-4.24c-0.07-0.92-0.18-2.9-0.32-5.94c0-0.92-0.04-1.63-0.11-2.12
		c-0.07-0.28-0.11-0.67-0.11-1.17c-0.07-0.71,0.11-1.1,0.53-1.17c0.42-0.21,0.85,0,1.27,0.64c0.92,1.42,1.8,2.9,2.65,4.45
		c1.06,2.05,1.66,4.21,1.8,6.47c0.07,0.71,0.18,1.24,0.32,1.59c0.14-0.07,0.35-0.32,0.64-0.74c1.48-2.4,2.69-4.17,3.61-5.3
		c0.35-0.49,0.32-1.02-0.11-1.59c-1.2-1.77-1.98-3.64-2.33-5.62c-0.07-0.78-0.04-1.52,0.11-2.23c0.35-1.06,0.95-1.59,1.8-1.59
		c0.42,0,0.64-0.18,0.64-0.53c0-0.56,0.07-0.99,0.21-1.27c0.28-0.78,0.81-1.09,1.59-0.95c0.35,0.07,0.6-0.07,0.74-0.42
		c0.35-0.85,0.81-1.27,1.38-1.27c0.64,0.07,1.17,0.53,1.59,1.38c0.35,0.71,0.56,1.06,0.64,1.06c0.49-1.13,0.74-1.73,0.74-1.8
		c0.28-0.56,0.6-0.99,0.95-1.27c0.42-0.35,0.85-0.46,1.27-0.32c0.42,0.14,0.71,0.46,0.85,0.95c0.21,0.64,0.21,1.48,0,2.54
		c-0.07,0.28-0.18,0.67-0.32,1.17c0,0.07-0.14,0.5-0.42,1.27c0.21,0.07,0.56,0,1.06-0.21c1.2-0.64,2.44-1.06,3.71-1.27
		c0.71-0.07,1.31-0.04,1.8,0.11c0.64,0.21,1.02,0.6,1.17,1.17C121.41,23.02,121.23,23.55,120.74,24.05z M64.22,44.41
		c2.33,0.07,4.38-0.32,6.15-1.17C67.19,42.89,65.14,43.28,64.22,44.41z M66.34,39c0.85,0.99,2.01,1.63,3.5,1.91
		C68.43,39.78,67.26,39.14,66.34,39z M66.98,49.6c1.13-0.85,2.16-1.91,3.08-3.18C68.36,47.41,67.33,48.47,66.98,49.6z M73.02,40.17
		c0.49-1.77,0.64-3.57,0.42-5.41C72.74,36.38,72.6,38.19,73.02,40.17z M77.9,36.45c-1.27,0.85-2.33,2.3-3.18,4.35
		c1.06-0.49,2.08-1.27,3.07-2.33c0.42-0.49,0.71-0.95,0.85-1.38c0.14-0.42,0.14-0.69,0-0.8C78.5,36.19,78.25,36.24,77.9,36.45z
		 M82.36,39.63c-0.78,0-1.8,0.32-3.08,0.96c-1.27,0.64-2.12,1.27-2.54,1.91C79.28,41.72,81.15,40.77,82.36,39.63z M85.96,34.65
		c0.28,0.14,0.42,0.04,0.42-0.32c0-0.14-0.04-0.32-0.11-0.53c-1.2-4.24-3.61-7.42-7.21-9.54c1.55,3.68,2.83,6.26,3.82,7.74
		c0.64,0.99,1.45,1.77,2.44,2.33C85.54,34.48,85.75,34.58,85.96,34.65z M84.37,15.46c0.21,1.27,1.13,2.58,2.76,3.92
		C86.42,17.19,85.5,15.88,84.37,15.46z M85.75,12.92c0.71,1.48,1.52,2.69,2.44,3.61C87.48,14.54,86.67,13.34,85.75,12.92z
		 M87.34,9.73c0.35,1.56,1.34,2.93,2.97,4.13C89.18,11.68,88.19,10.3,87.34,9.73z M90.94,7.19c-0.14,1.34,0.07,2.65,0.64,3.92
		C91.72,9.49,91.51,8.18,90.94,7.19z M97.62,21.19c-0.64-0.28-1.52-0.35-2.65-0.21c-1.13,0.14-1.91,0.42-2.33,0.85
		C94.48,22.25,96.14,22.03,97.62,21.19z M98.9,16.63c-1.56,0-3.43,0.57-5.62,1.7c1.13,0.14,2.26,0.05,3.39-0.26
		C97.8,17.74,98.54,17.26,98.9,16.63z M99.21,13.02c-0.71-0.14-1.61,0-2.7,0.42c-1.1,0.42-1.93,0.95-2.49,1.59
		C96.49,14.89,98.22,14.22,99.21,13.02z M98.47,8.14c-1.56,0.35-2.83,1.45-3.82,3.29C96.99,10.37,98.26,9.28,98.47,8.14z
		 M97.84,42.29c0.85-4.38,0-8.48-2.54-12.3c-0.14,0.21-0.21,0.5-0.21,0.85c-0.07,1.84,0.04,3.92,0.32,6.26
		c0.14,1.98,0.71,3.6,1.7,4.88C97.31,42.25,97.55,42.36,97.84,42.29z M103.14,41.23c-1.06,0.35-1.94,0.81-2.65,1.38
		c-0.57,0.5-0.5,0.85,0.21,1.06c1.55,0.5,3.14,0.57,4.77,0.21c2.12-0.42,4.52-1.77,7.21-4.03c0-0.07-0.04-0.14-0.11-0.21
		c-2.19,0.28-3.36,0.42-3.5,0.42C105.96,40.48,103.99,40.87,103.14,41.23z M104.41,28.61c0.28-2.05-0.04-3.57-0.95-4.56
		C103.24,25.53,103.56,27.05,104.41,28.61z M106.64,26.17c0-1.77-0.25-3.11-0.74-4.03C105.75,23.7,106,25.04,106.64,26.17z
		 M108.44,19.81c-0.28,1.48,0.03,3.04,0.95,4.67C109.39,22.49,109.08,20.94,108.44,19.81z M108.65,32.96
		c2.05,1.48,3.64,1.87,4.77,1.17C111.8,33.27,110.21,32.89,108.65,32.96z M110.56,30.2c1.77,0.99,3.64,1.2,5.62,0.64
		C114.98,30.13,113.1,29.92,110.56,30.2z M112.89,19.06c-0.92,1.06-1.2,2.23-0.85,3.5c0.07-0.28,0.19-0.65,0.37-1.11
		c0.18-0.46,0.3-0.88,0.37-1.27C112.86,19.79,112.89,19.42,112.89,19.06z M118.09,27.44c-1.63-0.64-3.46-0.71-5.51-0.21
		c0.78,0.35,1.78,0.55,3.02,0.58C116.83,27.85,117.66,27.72,118.09,27.44z M114.59,24.37c2.19-0.21,3.82-0.74,4.88-1.59
		c-0.78-0.14-1.68-0.04-2.7,0.32C115.74,23.45,115.01,23.87,114.59,24.37z"/>
	<path class="st0" d="M175.77,18.11c0.92-0.28,1.78-0.14,2.6,0.42c0.81,0.57,1.18,1.34,1.11,2.33c-0.07,1.2-0.71,1.95-1.91,2.23
		c-0.42,0.14-0.67,0.25-0.74,0.32c-0.07,0.07-0.07,0.35,0,0.85c0.21,1.13-0.07,2.05-0.85,2.76c-0.92,0.78-1.87,0.95-2.86,0.53
		c-1.06-0.42-1.63-1.24-1.7-2.44c0-0.64-0.07-0.99-0.21-1.06c-0.14-0.07-0.5,0.07-1.06,0.42c-1.56,0.99-3.32,2.65-5.3,4.98
		c-2.19,2.54-4.35,5.83-6.47,9.86c-0.42,0.85-0.71,1.77-0.85,2.76c-0.07,0.5-0.5,3.11-1.27,7.85c0.21-0.07,0.42-0.28,0.64-0.64
		c1.63-2.61,3.57-5.2,5.83-7.74c1.27-1.41,2.69-2.58,4.24-3.5c0.35-0.28,0.6-0.49,0.74-0.64c0.28-0.35,0.25-0.71-0.11-1.06
		c-0.07,0-0.21-0.07-0.42-0.21c-1.06-0.78-1.54-1.7-1.43-2.76c0.11-1.06,0.55-1.84,1.33-2.33c0.56-0.35,1.13-0.6,1.7-0.74
		c0.71-0.14,1.36-0.02,1.96,0.37c0.6,0.39,1.01,0.94,1.22,1.64c0,0.07,0.03,0.42,0.11,1.06c0.14,0.07,0.27,0.09,0.37,0.05
		c0.11-0.04,0.21-0.11,0.32-0.21c0.11-0.11,0.19-0.16,0.27-0.16c1.34-0.57,2.44-0.32,3.29,0.74c0.85,0.92,0.95,1.91,0.32,2.97
		c-0.35,0.57-0.85,0.92-1.48,1.06c0,0.07-0.28,0.14-0.85,0.21c-0.14,0.07-0.11,0.46,0.11,1.17c0.14,1.13-0.21,2.03-1.06,2.7
		c-0.85,0.67-1.77,0.83-2.76,0.48c-1.13-0.42-1.7-1.31-1.7-2.65c0-0.49-0.04-0.78-0.11-0.85c-0.21-0.07-0.53,0-0.95,0.21
		c-1.48,0.99-3.11,2.48-4.88,4.45c-2.4,2.76-4.74,6.26-7,10.5c-0.5,0.85-0.95,2.4-1.38,4.67c-0.85,4.45-1.42,7.92-1.7,10.39
		c-0.35,3.25-0.5,6.04-0.42,8.38c0,0.64-0.04,1.1-0.11,1.38c-0.14,0.28-0.32,0.42-0.53,0.42s-0.39-0.14-0.53-0.42
		c-0.21-0.35-0.32-0.85-0.32-1.48c-0.07-2.76,0.14-6.01,0.64-9.75c0.28-2.61,0.95-6.5,2.01-11.66c0.07-0.49,0-0.95-0.21-1.38
		c-1.98-3.89-3.78-6.86-5.41-8.91c-2.19-2.76-4.07-4.77-5.62-6.04c-0.42-0.28-0.71-0.49-0.85-0.64c-0.07,0-0.2-0.07-0.37-0.21
		c-0.18-0.14-0.34-0.23-0.48-0.27c-0.14-0.03-0.28-0.05-0.42-0.05c-0.21,0.07-0.34,0.18-0.37,0.32c-0.04,0.14-0.02,0.32,0.05,0.53
		c0.07,0.21,0.07,0.35,0,0.42c-0.07,0.71-0.35,1.29-0.85,1.75c-0.5,0.46-1.1,0.69-1.8,0.69c-0.71,0-1.33-0.25-1.86-0.74
		c-0.53-0.49-0.83-1.13-0.9-1.91c-0.07-0.71-0.18-1.17-0.32-1.38c-0.14-0.21-0.5-0.49-1.06-0.85c-0.57-0.35-0.95-0.83-1.17-1.43
		c-0.21-0.6-0.18-1.18,0.11-1.75c0.28-0.64,0.78-1.11,1.48-1.43c0.71-0.32,1.34-0.37,1.91-0.16c0.07,0,0.46,0.18,1.17,0.53
		c0.07-0.07,0.14-0.28,0.21-0.64c0.14-0.85,0.51-1.5,1.11-1.96c0.6-0.46,1.33-0.62,2.17-0.48c1.13,0.21,1.98,0.81,2.54,1.8
		c0.92,1.56,0.6,2.86-0.95,3.92c-0.85,0.64-0.85,1.2,0,1.7c2.54,1.7,5.37,4.63,8.48,8.8c0.85,1.2,2.01,3.11,3.5,5.73l0.53,0.85
		c0.28-1.7,0.42-2.58,0.42-2.65c0.99-5.58,1.52-8.87,1.59-9.86c0.07-0.21,0.12-0.6,0.16-1.17c0.03-0.56,0.09-1.02,0.16-1.38
		c0-0.35-0.14-0.71-0.42-1.06c-1.84-2.4-3.64-4.24-5.41-5.51c-0.14-0.14-0.25-0.25-0.32-0.32c-0.5-0.21-0.78-0.07-0.85,0.42
		c0,0.07-0.02,0.2-0.05,0.37c-0.04,0.18-0.05,0.34-0.05,0.48c-0.21,1.2-0.88,1.95-2.01,2.23c-1.27,0.21-2.23-0.21-2.86-1.27
		c-0.57-0.85-0.71-1.66-0.42-2.44c0.14-0.49-0.04-0.81-0.53-0.95c-0.85-0.28-1.43-0.74-1.75-1.38c-0.32-0.64-0.34-1.34-0.05-2.12
		c0.21-0.64,0.69-1.11,1.43-1.43c0.74-0.32,1.57-0.3,2.49,0.05c0,0.07,0.21,0.21,0.64,0.42c0.07-0.07,0.18-0.35,0.32-0.85
		c0.21-0.85,0.65-1.47,1.33-1.86c0.67-0.39,1.47-0.44,2.39-0.16c1.27,0.35,2.08,1.13,2.44,2.33c0.35,1.48-0.14,2.62-1.48,3.39
		c-0.14,0.07-0.25,0.11-0.32,0.11c-0.64,0.42-0.67,0.88-0.11,1.38c0.14,0.07,0.35,0.2,0.64,0.37c0.28,0.18,0.46,0.3,0.53,0.37
		c1.41,1.13,2.69,2.37,3.82,3.71c0.21,0.28,0.39,0.46,0.53,0.53c0.28-0.21,0.42-0.6,0.42-1.17c0-5.16-0.57-9.51-1.7-13.04
		c-0.14-0.49-0.35-0.99-0.64-1.48c-0.21-0.49-0.5-0.53-0.85-0.11c0,0.07-0.04,0.16-0.11,0.26c-0.07,0.11-0.14,0.2-0.21,0.27
		c-0.78,1.06-1.73,1.41-2.86,1.06c-1.2-0.28-1.84-1.09-1.91-2.44c-0.14-0.92,0.14-1.7,0.85-2.33c0.28-0.35,0.42-0.58,0.42-0.69
		c0-0.11-0.14-0.3-0.42-0.58c-0.71-0.78-0.88-1.66-0.53-2.65c0.42-1.06,1.2-1.63,2.33-1.7c1.27,0,2.16,0.53,2.65,1.59l0.32,0.64
		c0.07,0,0.28-0.18,0.64-0.53c0.64-0.71,1.38-1.04,2.23-1.01c0.85,0.04,1.55,0.41,2.12,1.11c0.99,1.13,1.17,2.37,0.53,3.71
		c-0.57,1.2-1.56,1.73-2.97,1.59c-0.85-0.07-1.13,0.28-0.85,1.06c0.07,0.28,0.18,0.6,0.32,0.95c0.14,0.35,0.25,0.6,0.32,0.74
		c0.78,2.12,1.31,4.98,1.59,8.59c0.21,2.76,0.21,5.09,0,7v0.74c0.28-0.14,0.56-0.49,0.85-1.06c2.05-3.46,4.49-6.57,7.32-9.33
		c0.92-0.92,2.01-1.8,3.29-2.65c0.56-0.42,0.85-0.72,0.85-0.9c0-0.17-0.28-0.48-0.85-0.9c-1.48-1.06-1.8-2.37-0.95-3.92
		c0.35-0.78,0.94-1.33,1.75-1.64c0.81-0.32,1.57-0.33,2.28-0.05c0.85,0.35,1.41,0.92,1.7,1.7c0,0.07,0.11,0.42,0.32,1.06
		c0.14,0,0.27,0,0.37,0s0.23-0.04,0.37-0.11C175.59,18.25,175.7,18.18,175.77,18.11z M139.4,36.88c0.14-0.28,0.11-0.53-0.11-0.74
		c-0.14-0.14-0.28-0.25-0.42-0.32c-0.42-0.21-0.95-0.64-1.59-1.27c-0.21,0.99-0.32,1.52-0.32,1.59c-0.14,0.28-0.07,0.46,0.21,0.53
		c0.78,0.28,1.27,0.46,1.48,0.53C139.01,37.27,139.26,37.16,139.4,36.88z M149.16,29.03c0.21-0.42,0.07-0.74-0.42-0.96
		c-0.28-0.14-0.85-0.56-1.7-1.27c0,0.28-0.09,0.65-0.27,1.11c-0.18,0.46-0.27,0.73-0.27,0.79c0.99,0.35,1.55,0.53,1.7,0.53
		C148.63,29.46,148.94,29.39,149.16,29.03z M154.46,16.73c0.42-0.28,0.53-0.6,0.32-0.96c-0.07,0-0.35-0.67-0.85-2.01
		c-0.28,0.28-0.81,0.74-1.59,1.38c0.64,0.57,1.06,1.03,1.27,1.38C153.82,16.88,154.1,16.94,154.46,16.73z M169.73,36.35
		c-0.28,0.21-0.35,0.5-0.21,0.85c0.14,0.28,0.42,0.39,0.85,0.32l1.7-0.53c-0.07-0.28-0.16-0.65-0.27-1.11
		c-0.11-0.46-0.2-0.76-0.26-0.9C171.1,35.39,170.5,35.85,169.73,36.35z M172.91,22.67c0.07,0,0.64-0.14,1.7-0.42
		c-0.07-0.14-0.28-0.81-0.64-2.01c-0.5,0.57-1.03,0.99-1.59,1.27c-0.42,0.21-0.55,0.51-0.37,0.9
		C172.18,22.79,172.48,22.88,172.91,22.67z"/>
	<path class="st0" d="M233.88,20.76c0.28,0.28,0.35,0.64,0.21,1.06c-0.21,0.64-0.71,1.73-1.48,3.29c-0.64,1.13-1.59,2.12-2.86,2.97
		c-0.99,0.71-1.91,1.1-2.76,1.17c-0.42,0.07-0.71,0.14-0.85,0.21c-0.92,0.71-1.91,1.73-2.97,3.08c0.14,0.14,0.28,0.18,0.42,0.11
		c0.35-0.14,2.23-0.85,5.62-2.12c0.78-0.35,1.33-0.35,1.64,0c0.32,0.35,0.16,0.88-0.48,1.59c-1.98,1.98-3.82,3.5-5.51,4.56
		c-1.34,0.92-2.76,1.42-4.24,1.48c-0.57,0-0.95,0.25-1.17,0.74c-1.06,2.26-1.84,4.14-2.33,5.62l0.11,0.21
		c0.28-0.07,0.65-0.28,1.11-0.64c0.46-0.35,0.72-0.57,0.8-0.64c1.7-0.99,3.08-1.94,4.14-2.86c0.21-0.14,0.39-0.25,0.53-0.32
		c0.42-0.28,0.78-0.28,1.06,0c0.28,0.28,0.28,0.64,0,1.06c-0.42,0.57-0.95,1.34-1.59,2.33c-0.64,0.99-1.24,1.87-1.8,2.65
		c-0.57,0.78-1.13,1.48-1.7,2.12c-1.42,1.56-3.01,2.51-4.77,2.86c-0.35,0.07-0.6,0.28-0.74,0.64c-0.14,0.21-0.71,1.38-1.7,3.5
		c0.21,0.14,0.53,0.11,0.95-0.11c0.07,0,2.05-0.85,5.94-2.54c0.14-0.07,0.28-0.11,0.42-0.11c0.42-0.14,0.71-0.07,0.85,0.21
		c0.21,0.28,0.21,0.6,0,0.95c-0.07,0.14-0.14,0.25-0.21,0.32c-0.07,0.07-0.87,0.87-2.39,2.39c-1.52,1.52-2.7,2.6-3.55,3.23
		c-1.27,0.99-2.4,1.63-3.39,1.91c-0.5,0.14-0.78,0.21-0.85,0.21c-0.64-0.07-1.15,0-1.54,0.21c-0.39,0.21-0.81,0.6-1.27,1.17
		c-0.46,0.57-0.78,0.92-0.95,1.06c-0.18,0.14-0.27,0.46-0.27,0.95c0,4.24,0,6.65,0,7.21c0.07,1.7,0.6,3.61,1.59,5.73
		c0.21,0.42,0.32,0.67,0.32,0.74c0.14,0.42,0.07,0.71-0.21,0.85c-0.21,0.14-0.5,0.04-0.85-0.32c-0.14-0.14-0.35-0.46-0.64-0.95
		c-0.99-2.26-1.56-4.7-1.7-7.32c0-1.55,0.14-4.81,0.42-9.75c0.07-1.48,0.27-3.64,0.58-6.47c0.32-2.83,0.51-4.91,0.58-6.26
		c0.07-0.56-0.11-0.99-0.53-1.27c-1.42-0.78-2.79-2.16-4.14-4.13c-0.21-0.35-0.35-0.57-0.42-0.64c-0.21-0.28-0.42-0.32-0.64-0.11
		c-0.07,0.07-0.16,0.18-0.27,0.32c-0.11,0.14-0.2,0.25-0.27,0.32c-1.13,1.13-2.51,1.59-4.14,1.38c-0.92-0.14-1.52-0.57-1.8-1.27
		c-0.21-0.64-0.04-1.27,0.53-1.91c0.85-0.99,2.05-1.59,3.6-1.8c0.21-0.07,0.49-0.11,0.85-0.11c0.42,0,0.64-0.21,0.64-0.64
		c0-0.21,0-0.67,0-1.38c-0.07-1.77,0.6-2.97,2.01-3.61c0.07-0.21-0.11-0.46-0.53-0.74c-0.5-0.49-1.26-1.18-2.28-2.07
		c-1.03-0.88-1.79-1.54-2.28-1.96c-0.07,0-0.21-0.09-0.42-0.26c-0.21-0.18-0.32-0.28-0.32-0.32c0-0.04-0.07-0.16-0.21-0.37
		c-0.14-0.21-0.14-0.39,0-0.53c0.21-0.42,0.81-0.53,1.8-0.32c2.9,0.71,5.16,1.8,6.79,3.29c0.07,0,0.21,0.11,0.42,0.32
		c0.14-0.07,0.21-0.18,0.21-0.32c-0.64-2.83-1.38-5.16-2.23-7c-0.14-0.21-0.46-0.71-0.95-1.48c-0.21-0.35-0.46-0.39-0.74-0.11
		c-1.27,1.2-3.11,1.8-5.51,1.8c-0.42,0-0.85,0.02-1.27,0.05c-0.42,0.04-0.88,0.07-1.38,0.11c-0.5,0.04-0.88,0.05-1.17,0.05
		c-0.28,0.07-0.57,0.07-0.85,0c-0.42,0-0.67-0.14-0.74-0.42c-0.14-0.35-0.04-0.67,0.32-0.95c1.27-1.06,2.12-1.7,2.54-1.91
		c1.06-0.78,2.26-1.31,3.6-1.59c0.71-0.14,1.48-0.14,2.33,0c0.28,0.07,0.49,0.05,0.64-0.05c0.14-0.11,0.18-0.3,0.11-0.58
		c-0.14-1.13,0.25-2.72,1.17-4.77c0.21-0.42,0.78-1.63,1.7-3.6c0.14-0.21,0.25-0.35,0.32-0.42c0.28-0.28,0.55-0.39,0.8-0.32
		c0.25,0.07,0.44,0.25,0.58,0.53c0.14,0.57,0.25,1.2,0.32,1.91c0,1.13,0,2.44,0,3.92c0,0.85-0.32,1.91-0.95,3.18
		c1.27-0.35,2.47,0.14,3.6,1.48c0.21,0.21,0.42,0.5,0.64,0.85c0.28,0.42,0.64,0.5,1.06,0.21c0.92-0.57,1.98-0.96,3.18-1.17
		c0.85-0.14,1.63-0.07,2.33,0.21c0.64,0.28,1.01,0.69,1.11,1.22c0.11,0.53-0.12,1.01-0.69,1.43c-0.5,0.35-1.2,0.64-2.12,0.85
		c-1.42,0.21-2.51,0.28-3.29,0.21c-0.57-0.14-0.95,0.07-1.17,0.64c-0.71,1.77-1.38,3.04-2.01,3.82c-0.14,0.21-0.21,0.42-0.21,0.64
		c0.14,0.5,0.46,2.23,0.95,5.2c0.42-0.57,1.15-1.45,2.17-2.65c1.02-1.2,1.75-2.12,2.17-2.76c0.14-0.35,0.35-0.67,0.64-0.95
		c0.21-0.28,0.49-0.35,0.85-0.21c0.28,0.07,0.42,0.32,0.42,0.74s-0.04,0.88-0.11,1.38c-0.35,2.62-0.95,4.49-1.8,5.62
		c-0.78,1.13-1.77,1.98-2.97,2.54c-0.42,0.21-0.69,0.39-0.79,0.53c-0.11,0.14-0.12,0.46-0.05,0.95c0,0.28,0.07,2.72,0.21,7.32
		c0,1.2-0.21,3.92-0.64,8.16c-0.07,0.28-0.18,1.1-0.32,2.44c-0.14,1.34-0.25,2.4-0.32,3.18c0,0.35,0.03,0.64,0.11,0.85
		c0.21,0.07,0.42-0.07,0.64-0.42c0.78-0.85,1.41-1.73,1.91-2.65c0.28-0.42,0.32-0.78,0.11-1.06c-0.78-1.13-1.13-3.08-1.06-5.83
		c0.07-0.64,0.28-3.22,0.64-7.74c0.07-0.85,0.28-1.31,0.64-1.38c0.49-0.07,0.85,0.28,1.06,1.06l0.11,0.11
		c1.06,3.25,1.59,6.01,1.59,8.27c0.21-0.14,0.42-0.46,0.64-0.95c0.35-0.85,0.83-2.03,1.43-3.55c0.6-1.52,1.04-2.6,1.33-3.23
		c0.21-0.57,0.14-1.02-0.21-1.38c-1.2-1.27-1.59-3.04-1.17-5.3c0.07-0.56,0.49-2.83,1.27-6.79c0.14-0.64,0.42-0.95,0.85-0.95
		c0.35,0,0.64,0.25,0.85,0.74c0.49,1.27,0.74,2.69,0.74,4.24c0,0.14,0,1.1,0,2.86c0.07,0,0.12,0,0.16,0c0.03,0,0.09,0,0.16,0
		c0.49-1.06,0.78-1.63,0.85-1.7c0.35-0.57,0.74-1.27,1.17-2.12c0.28-0.42,0.35-0.78,0.21-1.06c-0.78-1.48-0.95-3.71-0.53-6.68
		c0.07-0.71,0.25-2.4,0.53-5.09c0.07-0.42,0.18-0.71,0.32-0.85c0.49-0.49,0.92-0.32,1.27,0.53c0.49,1.2,0.87,2.58,1.11,4.13
		c0.25,1.56,0.3,3.15,0.16,4.77c1.2-0.56,1.98-1.38,2.33-2.44c0.28-0.78,0.85-1.52,1.7-2.23c0.42-0.35,1.27-0.99,2.54-1.91
		c1.27-0.92,2.23-1.66,2.86-2.23C233.17,20.51,233.52,20.48,233.88,20.76z M193.37,22.25c3.46,0.42,5.58-0.04,6.36-1.38
		c-0.99-0.49-2.09-0.6-3.29-0.32C195.24,20.83,194.22,21.4,193.37,22.25z M199.52,29.56c2.4,2.54,4.14,3.78,5.2,3.71
		C203.73,31.72,201.99,30.48,199.52,29.56z M202.07,18.96c0.14-0.14,0.28-0.35,0.42-0.64c0.92-1.48,1.13-3.22,0.64-5.2
		c-1.06,1.63-1.66,3.01-1.8,4.14c-0.14,0.57-0.14,1.06,0,1.48C201.46,19.17,201.71,19.24,202.07,18.96z M206.41,45.47
		c0.07-0.07,0.11-0.42,0.11-1.06c-0.07-0.42-0.18-2.16-0.32-5.2c0-0.78-0.11-1.73-0.32-2.86c-0.07-0.56-0.18-0.92-0.32-1.06
		c-0.14-0.14-0.5-0.25-1.06-0.32c-0.35-0.07-0.57-0.07-0.64,0c-0.07,0.07-0.07,0.28,0,0.64c0.07,0.64,0,1.38-0.21,2.23
		c-0.28,0.92-0.67,1.8-1.17,2.65c-0.28,0.42-0.32,0.81-0.11,1.17c0.92,1.63,2.01,3.01,3.29,4.14c0.21,0.21,0.39,0.28,0.53,0.21
		C206.34,45.93,206.41,45.75,206.41,45.47z M204.4,24.05c0.07,0.21,0.42,1.13,1.06,2.76c0.21,0,0.35-0.07,0.42-0.21
		c0.42-0.78,0.67-1.27,0.74-1.48c0.21-0.49,0.28-0.83,0.21-1.01c-0.07-0.18-0.35-0.41-0.85-0.69c-1.2-0.71-1.98-1.45-2.33-2.23
		l-0.42-1.38c-0.42,0.35-0.65,0.6-0.69,0.74c-0.04,0.14,0.09,0.39,0.37,0.74C203.48,22.07,203.97,22.99,204.4,24.05z M211.4,31.68
		c-1.91,1.98-3.11,3.68-3.6,5.09c1.06-0.42,1.92-1.11,2.6-2.07C211.06,33.75,211.4,32.74,211.4,31.68z M210.02,47.69
		c0,0.35-0.05,0.97-0.16,1.86c-0.11,0.88-0.18,1.57-0.21,2.07c-0.04,0.5-0.02,1.11,0.05,1.86c0.07,0.74,0.18,1.43,0.32,2.07
		c0.49-0.85,0.74-2.12,0.74-3.82S210.51,48.68,210.02,47.69z M216.7,55.54c-0.14,0.07-0.32,0.14-0.53,0.21
		c-1.06,0.42-1.87,0.76-2.44,1.01c-0.57,0.25-1.2,0.67-1.91,1.27c-0.71,0.6-1.24,1.33-1.59,2.17c0.85-0.14,1.7-0.49,2.54-1.06
		c0.85-0.57,1.5-1.08,1.96-1.54C215.2,57.15,215.85,56.46,216.7,55.54z M221.05,44.09c-1.06,0.64-1.86,1.11-2.39,1.43
		c-0.53,0.32-1.13,0.87-1.8,1.64c-0.67,0.78-1.18,1.59-1.54,2.44c1.34-0.42,2.4-1.08,3.18-1.96
		C219.28,46.76,220.13,45.57,221.05,44.09z M216.38,34.55c-0.07,0.14-0.2,0.55-0.37,1.22c-0.18,0.67-0.3,1.15-0.37,1.43
		c-0.07,0.28-0.14,0.69-0.21,1.22c-0.07,0.53-0.05,1.01,0.05,1.43c0.11,0.42,0.27,0.85,0.48,1.27
		C216.38,39.92,216.52,37.73,216.38,34.55z M227.2,32.74c-2.83,0.99-4.84,2.23-6.04,3.71c0.99,0,2.16-0.42,3.5-1.27
		C225.99,34.33,226.84,33.52,227.2,32.74z M221.58,25c-0.5,2.83-0.53,4.84-0.11,6.04C222.11,28.86,222.14,26.84,221.58,25z
		 M227.09,27.65c0.92-0.07,1.78-0.46,2.6-1.17c0.81-0.71,1.36-1.52,1.64-2.44c-0.21,0.21-0.57,0.48-1.06,0.8
		c-0.5,0.32-0.9,0.58-1.22,0.79c-0.32,0.21-0.65,0.51-1.01,0.9C227.69,26.93,227.37,27.3,227.09,27.65z"/>
	<path class="st0" d="M281.48,7.29c0.42,0.28,0.6,0.67,0.53,1.17c-0.42,3.39-0.67,5.27-0.74,5.62c-0.28,1.63-1.03,2.93-2.23,3.92
		c-1.2,0.99-2.65,1.45-4.35,1.38c-0.57,0-1.03,0.14-1.38,0.42c-0.78,0.64-1.66,1.71-2.65,3.23c-0.99,1.52-1.63,2.81-1.91,3.87
		c1.06-0.64,3.53-1.7,7.42-3.18c0.07,0,0.21-0.04,0.42-0.11c0.64-0.28,1.1-0.21,1.38,0.21c0.21,0.28,0.11,0.71-0.32,1.27
		c-2.12,2.54-3.75,4.28-4.88,5.2c-1.84,1.34-3.71,1.87-5.62,1.59c-0.5-0.14-0.85,0.07-1.06,0.64c-0.57,1.34-1.27,3.25-2.12,5.73
		c-0.14,0.35-0.04,0.95,0.32,1.8c1.2,3.46,2.16,7.17,2.86,11.13c0.49,3.04,0.85,6.29,1.06,9.75c0.14,1.34,0.28,4.1,0.42,8.27
		c0.07,0.78,0,1.45-0.21,2.01c-0.14,0.42-0.35,0.62-0.64,0.58c-0.28-0.04-0.46-0.27-0.53-0.69c0-0.28-0.04-0.74-0.11-1.38
		c-0.14-8.83-0.85-16.12-2.12-21.84c-0.14-0.64-0.6-2.33-1.38-5.09c-0.14-0.49-0.32-0.85-0.53-1.06c-0.35,0.85-0.71,2.3-1.06,4.35
		c-0.64,3.68-1.1,7.99-1.38,12.94c-0.14,3.68-0.18,7.56-0.11,11.66c0.07,3.89,0.35,7.14,0.85,9.75c0.07,0.57,0.07,0.95,0,1.17
		c-0.21,0.64-0.53,0.71-0.95,0.21c-0.21-0.21-0.35-0.53-0.42-0.95c-0.35-1.41-0.6-3.04-0.74-4.88c-0.28-4.38-0.35-9.65-0.21-15.8
		c0.28-6.64,0.99-12.47,2.12-17.5c0.28-1.06,0.56-2.08,0.85-3.08c0.14-0.64,0.11-1.24-0.11-1.8c-1.06-2.62-2.3-5.05-3.71-7.32
		c-0.28-0.57-0.67-0.74-1.17-0.53c-0.92,0.21-1.98,0.18-3.18-0.11c-0.78-0.21-1.86-0.56-3.23-1.06c-1.38-0.49-2.39-0.81-3.02-0.95
		c-0.28-0.14-0.5-0.32-0.64-0.53c-0.28-0.42-0.21-0.74,0.21-0.95c0.21-0.14,0.39-0.21,0.53-0.21c0.21,0,0.69-0.05,1.43-0.16
		c0.74-0.11,1.25-0.16,1.54-0.16c0.28,0,0.71,0,1.27,0c0.56,0,1.08,0.04,1.54,0.11c0.46,0.07,0.9,0.21,1.33,0.42h0.21
		c-0.5-1.41-1.42-2.16-2.76-2.23c-1.2-0.07-2.4-0.74-3.61-2.01c-0.28-0.28-0.69-0.76-1.22-1.43c-0.53-0.67-0.83-1.04-0.9-1.11
		c-0.21-0.21-0.48-0.51-0.79-0.9c-0.32-0.39-0.55-0.69-0.69-0.9c-0.28-0.35-0.35-0.67-0.21-0.95c0.21-0.35,0.49-0.49,0.85-0.42
		c3.18,0.64,5.44,1.52,6.79,2.65c1.06,0.92,1.59,1.98,1.59,3.18c0.07,0.42,0.21,0.74,0.42,0.95c1.48,1.56,2.9,3.36,4.24,5.41
		l0.42,0.32c0.42-1.84,0.71-3.32,0.85-4.45c0-0.07,0.07-0.92,0.21-2.54v-0.21c0.07-0.49,0.32-0.74,0.74-0.74
		c0.42-0.07,0.67,0.11,0.74,0.53c1.13,3.89,1.63,6.72,1.48,8.48c-0.14,1.34-0.53,2.37-1.17,3.08c-0.35,0.35-0.39,0.74-0.11,1.17
		c0,0.07,0.28,0.67,0.85,1.8c0.21,0,0.35-0.18,0.42-0.53c0.92-2.54,2.05-5.27,3.39-8.17c0.28-0.64,0.41-1.01,0.37-1.11
		c-0.04-0.11-0.27-0.37-0.69-0.79c-1.13-1.06-1.7-2.37-1.7-3.92c-0.07-1.55-0.07-2.9,0-4.03c0.14-1.77,0.18-3,0.11-3.71
		c0-0.28,0.03-0.53,0.11-0.74c0.21-0.64,0.56-0.74,1.06-0.32c0.21,0.14,0.46,0.46,0.74,0.95c1.77,2.83,2.72,5.44,2.86,7.85
		c0.14-0.07,0.27-0.14,0.37-0.21c0.11-0.07,0.21-0.17,0.32-0.32c0.11-0.14,0.16-0.25,0.16-0.32c0.14-0.14,0.41-0.44,0.8-0.9
		c0.39-0.46,0.72-0.79,1.01-1.01c0.42-0.35,0.6-0.74,0.53-1.17c-0.57-2.76,0.49-5.12,3.18-7.1c0.21-0.14,1.73-1.17,4.56-3.08
		C280.85,7.19,281.2,7.15,281.48,7.29z M252.59,22.56c0.11-0.14,0.12-0.42,0.05-0.85c-0.28-0.71-0.88-1.38-1.8-2.01
		c-0.92-0.64-1.8-0.92-2.65-0.85l-0.11,0.21c0.85,1.2,1.8,2.26,2.86,3.18c0.28,0.21,0.56,0.35,0.85,0.42
		C252.22,22.74,252.48,22.71,252.59,22.56z M251.79,27.55c0.99,0.57,2.16,0.88,3.5,0.95C254.23,27.72,253.07,27.41,251.79,27.55z
		 M261.44,26.49c-0.64,2.33-0.74,4.07-0.32,5.2C261.83,30.41,261.94,28.68,261.44,26.49z M266.85,23.94
		c0.35,0.35,0.64,0.28,0.85-0.21c0.07-0.14,0.11-0.32,0.11-0.53c0.28-2.33-0.28-4.59-1.7-6.79c-0.14,2.97-0.21,4.63-0.21,4.98
		C265.97,22.32,266.28,23.17,266.85,23.94z M272.68,26.81c-2.12,0.85-3.68,1.7-4.67,2.54c-0.42,0.35-0.6,0.62-0.53,0.8
		c0.07,0.18,0.39,0.3,0.95,0.37c0.07,0,0.18,0,0.32,0c1.98-0.42,3.92-1.8,5.83-4.14c0-0.07-0.02-0.12-0.05-0.16
		c-0.04-0.03-0.05-0.09-0.05-0.16C273.35,26.49,272.75,26.74,272.68,26.81z M279.47,14.82c0.35-1.06,0.6-2.83,0.74-5.3
		c-2.33,1.42-3.89,2.54-4.67,3.39c-1.13,1.13-1.59,2.51-1.38,4.13c0.07,0.78,0.46,1.1,1.17,0.96
		C277.52,17.72,278.9,16.66,279.47,14.82z"/>
	<path class="st0" d="M331.37,41.01c0.25,0.21,0.33,0.46,0.27,0.74c-0.14,0.28-0.28,0.53-0.42,0.74c-0.5,0.71-1.66,2.79-3.5,6.26
		c-1.27,2.48-2.76,4.49-4.45,6.04c-1.34,1.2-2.44,2.09-3.29,2.65c-0.85,0.5-1.52,0.78-2.01,0.85c-0.92,0.07-1.52,0.67-1.8,1.8
		c-1.27,4.52-2.44,8.06-3.5,10.6c-0.21,0.57-0.18,1.13,0.11,1.7c1.55,3.25,3.53,6.54,5.94,9.86c0.07,0,0.16,0.09,0.27,0.27
		c0.11,0.18,0.19,0.3,0.27,0.37c0.28,0.35,0.3,0.64,0.05,0.85c-0.25,0.21-0.55,0.21-0.9,0c-0.28-0.21-0.6-0.53-0.95-0.96
		c-2.05-2.83-3.75-5.55-5.09-8.16c-0.35-0.64-0.6-1.02-0.74-1.17c-0.14,0.14-0.39,0.5-0.74,1.06c-1.41,2.97-2.83,5.55-4.24,7.74
		c-0.42,0.57-0.78,0.96-1.06,1.17c-0.28,0.21-0.53,0.23-0.74,0.05c-0.21-0.18-0.28-0.41-0.21-0.69c0.07-0.28,0.25-0.64,0.53-1.06
		c1.48-2.26,3.14-5.27,4.98-9.01c0.42-0.85,0.46-1.7,0.11-2.54c-1.63-3.67-3.01-7.6-4.14-11.77c-0.21-0.92-0.78-1.49-1.7-1.7
		c-2.05-0.49-4.1-1.87-6.15-4.13c-1.2-1.27-2.26-2.86-3.18-4.77c-0.21-0.35-0.41-0.72-0.58-1.11c-0.18-0.39-0.41-0.81-0.69-1.27
		c-0.28-0.46-0.5-0.83-0.64-1.11c-0.14-0.35-0.25-0.6-0.32-0.74c-0.14-0.35-0.07-0.64,0.21-0.85c0.28-0.21,0.6-0.18,0.95,0.11
		c0.14,0.14,0.25,0.28,0.32,0.42c0.92,1.63,2.4,3.04,4.45,4.24c2.76,1.63,4.59,3.11,5.51,4.45c0.14-0.21,0.14-0.56,0-1.06
		c-0.85-3.96-1.42-7.95-1.7-11.98c0-0.14-0.04-0.44-0.11-0.9c-0.07-0.46-0.11-0.79-0.11-1.01c0-0.64-0.32-1.06-0.95-1.27
		c-2.48-0.85-4.42-2.65-5.83-5.41c-0.42-0.71-0.81-1.63-1.17-2.76c-0.71-2.19-1.27-4.14-1.7-5.83c-0.07-0.28-0.11-0.46-0.11-0.53
		c0-0.35,0.14-0.6,0.42-0.74c0.28-0.07,0.53,0,0.74,0.21c0.21,0.21,0.39,0.46,0.53,0.74c0.85,1.7,1.91,3.15,3.18,4.35
		c1.7,1.56,3.04,3.15,4.03,4.77c0.14,0.28,0.28,0.42,0.42,0.42c0.14,0,0.21-0.07,0.21-0.21c0-1.13,0.05-3,0.16-5.62
		c0.11-2.61,0.12-4.67,0.05-6.15v-0.11c-0.07-0.64-0.14-0.95-0.21-0.95c-0.14-0.07-0.46,0.04-0.95,0.32
		c-1.06,0.78-2.37,1.31-3.92,1.59c-0.71,0.14-1.34,0.18-1.91,0.11c-0.71-0.14-1.24-0.49-1.59-1.06c-0.35-0.56-0.42-1.2-0.21-1.91
		c0.21-0.99,0.78-1.84,1.7-2.54c0.92-0.71,1.98-1.09,3.18-1.17c0.71-0.07,1.1-0.11,1.17-0.11c0-0.07-0.14-0.42-0.42-1.06
		c-0.85-1.55-1.24-2.83-1.17-3.82c0.07-0.99,0.39-1.59,0.95-1.8c0.71-0.35,1.41-0.28,2.12,0.21c0.78,0.57,1.38,1.27,1.8,2.12
		c0.07,0.07,0.35,0.67,0.85,1.8c0.21-0.07,0.49-0.42,0.85-1.06c0.78-1.41,1.84-2.58,3.18-3.5c0.49-0.28,0.99-0.49,1.48-0.64
		c0.64-0.07,1.17,0.05,1.59,0.37c0.42,0.32,0.64,0.79,0.64,1.43c0.07,0.85-0.14,1.66-0.64,2.44c-0.64,1.06-1.27,1.87-1.91,2.44
		c0,0.07-0.28,0.39-0.85,0.95c0.21,0.21,0.67,0.36,1.38,0.42c0.92,0.07,1.84,0.32,2.76,0.74c0.92,0.42,1.47,1.1,1.64,2.01
		c0.18,0.92-0.09,1.77-0.79,2.54c-0.78,0.85-1.77,1.34-2.97,1.48c-2.19,0.14-4.03-0.35-5.51-1.48c-0.21-0.14-0.46-0.21-0.74-0.21
		c0,1.13-0.04,2.95-0.11,5.46c-0.07,2.51-0.12,4.47-0.16,5.88c-0.04,1.42,0,3.17,0.11,5.25c0.11,2.09,0.3,3.98,0.58,5.67
		c0.21,0,0.39-0.21,0.53-0.64c1.34-2.97,2.19-5.2,2.54-6.68c0-0.21,0.07-0.39,0.21-0.53c0.14-0.28,0.35-0.41,0.64-0.37
		c0.28,0.04,0.49,0.21,0.64,0.53c0.14,0.32,0.21,0.65,0.21,1.01c0,4.03-0.5,7.42-1.48,10.18c-0.42,1.06-0.95,1.87-1.59,2.44
		c-0.64,0.57-0.85,1.31-0.64,2.23c1.06,5.58,2.33,10.46,3.82,14.63c0.85,2.47,1.45,4.07,1.8,4.77c0.14,0.42,0.32,0.67,0.53,0.74
		c0.14-0.14,0.32-0.49,0.53-1.06c2.05-5.94,3.71-11.77,4.98-17.5c0.07-0.57,0.07-0.95,0-1.17c-0.07-0.21-0.35-0.42-0.85-0.64
		c-1.34-0.64-2.44-1.91-3.29-3.82c-0.71-1.7-1.48-4.59-2.33-8.69c-0.07-0.21-0.07-0.46,0-0.74c0.07-0.21,0.21-0.39,0.42-0.53
		c0.35-0.07,0.6,0.04,0.74,0.32c0.14,0.21,0.25,0.46,0.32,0.74c0.42,1.56,1.34,3.04,2.76,4.45c1.7,1.84,2.72,3.04,3.08,3.61
		c0.21-0.42,0.35-1.13,0.42-2.12c0.35-3.11,0.28-6.18-0.21-9.22c0-0.21,0-0.35,0-0.42c-0.14-0.49-0.25-0.78-0.32-0.85
		c-0.07-0.07-0.39,0-0.95,0.21c-1.2,0.71-2.4,1.2-3.6,1.48c-0.71,0.14-1.42,0.18-2.12,0.11c-0.85-0.07-1.42-0.46-1.7-1.17
		c-0.28-0.71-0.18-1.41,0.32-2.12c0.49-0.57,1.2-0.99,2.12-1.27c0.07-0.07,0.6-0.21,1.59-0.42c0-0.21-0.18-0.42-0.53-0.64
		c-1.06-0.49-1.87-1.06-2.44-1.7c-1.13-1.06-1.45-2.05-0.95-2.97c0.56-0.99,1.66-1.24,3.29-0.74c1.13,0.42,2.12,1.03,2.97,1.8
		c0.07,0.07,0.46,0.46,1.17,1.17c0.14-0.21,0.21-0.67,0.21-1.38c0-1.06,0.18-2.01,0.53-2.86c0.21-0.49,0.46-0.88,0.74-1.17
		c0.85-0.78,1.66-0.78,2.44,0c0.64,0.57,1.02,1.38,1.17,2.44c0,0.14,0,0.3,0,0.48c0,0.18,0,0.3,0,0.37c0,0.35,0.05,0.57,0.16,0.64
		c0.11,0.07,0.3,0.07,0.58,0c0.07,0,0.19-0.04,0.37-0.11c0.18-0.07,0.3-0.11,0.37-0.11c0.71-0.07,1.27,0.07,1.7,0.42
		c0.42,0.35,0.64,0.88,0.64,1.59c0,0.85-0.32,1.66-0.95,2.44c-1.13,1.27-2.58,2.09-4.35,2.44c-0.57,0.14-0.88,0.27-0.95,0.37
		c-0.07,0.11-0.07,0.44,0,1.01c0.49,3.25,0.64,6.01,0.42,8.27c-0.21,3.46-0.6,6.57-1.17,9.33c-0.07,0.07-0.18,0.64-0.32,1.7
		l0.21-0.11c1.2-1.34,3.75-3.53,7.63-6.57c1.41-1.13,2.47-2.05,3.18-2.76c0.35-0.35,0.71-0.64,1.06-0.85
		C330.86,40.73,331.12,40.8,331.37,41.01z"/>
	<path class="st0" d="M381.79,20.44c0.28,0.71,0.07,1.48-0.64,2.33c-0.5,0.57-1.27,1.06-2.33,1.48c-0.99,0.35-2.05,0.57-3.18,0.64
		c-0.78,0-1.34,0.35-1.7,1.06c-1.77,3.46-3.89,6.36-6.36,8.69c-1.91,1.84-3.78,3.22-5.62,4.14c-0.71,0.42-1.1,1.06-1.17,1.91
		c-0.5,7.49-1.84,14.95-4.03,22.37c-1.34,4.45-2.93,8.48-4.77,12.09c-0.78,1.42-1.45,2.69-2.01,3.82c-0.14,0.28-0.28,0.46-0.42,0.53
		c-0.21,0.21-0.41,0.28-0.58,0.21c-0.18-0.07-0.3-0.25-0.37-0.53c-0.07-0.21-0.04-0.49,0.11-0.85c0.14-0.49,0.39-1.02,0.74-1.59
		c3.11-5.37,5.58-11.94,7.42-19.72c0.07-0.21,0.18-0.64,0.32-1.27c0.14-0.64,0.25-1.13,0.32-1.48c0.14-0.64-0.07-1.17-0.64-1.59
		c-3.04-2.26-5.55-5.44-7.53-9.54c-0.78-1.63-1.52-3.57-2.23-5.83c-0.21-0.71-0.64-1.17-1.27-1.38c-1.2-0.49-2.12-1.09-2.76-1.8
		c-0.35-0.42-0.6-0.88-0.74-1.38c-0.28-1.2-0.04-2.08,0.74-2.65c0.85-0.64,1.77-0.67,2.76-0.11c0.42,0.21,0.69,0.3,0.8,0.26
		c0.11-0.03,0.3-0.23,0.58-0.58c0.42-0.56,0.88-0.92,1.38-1.06c0.64-0.28,1.22-0.26,1.75,0.05c0.53,0.32,0.83,0.83,0.9,1.54
		c0.07,1.27-0.46,2.69-1.59,4.24c-0.28,0.35-0.53,0.6-0.74,0.74c-0.57,0.5-0.71,1.1-0.42,1.8c1.2,3.46,2.16,5.83,2.86,7.1
		c0.49,0.78,0.95,1.52,1.38,2.23c0.28,0.42,0.6,0.39,0.95-0.11c0.07-0.14,0.14-0.32,0.21-0.53c0.56-1.27,0.92-2.9,1.06-4.88
		c0.07-0.78-0.21-1.34-0.85-1.7c-0.07,0-0.5-0.28-1.27-0.85c-0.57-0.35-1.03-0.88-1.38-1.59c-0.71-1.34-0.5-2.4,0.64-3.18
		c1.06-0.78,2.08-0.67,3.08,0.32c0.35,0.35,0.58,0.53,0.69,0.53s0.33-0.14,0.69-0.42c0.64-0.49,1.27-0.56,1.91-0.21
		c0.64,0.28,0.92,0.81,0.85,1.59c0,0.99-0.39,1.94-1.17,2.86c-0.35,0.35-0.71,0.67-1.06,0.95c-0.42,0.28-0.64,0.74-0.64,1.38
		c-0.14,2.83-0.74,5.2-1.8,7.1c-0.28,0.42-0.28,0.81,0,1.17c0.78,0.99,1.66,1.84,2.65,2.54c0.42,0.28,0.71,0.14,0.85-0.42
		c0.49-2.62,0.88-5.48,1.17-8.59c0-0.64,0.14-3.08,0.42-7.32c0-0.14,0-0.35,0-0.64c0-0.28,0-0.46,0-0.53c0-0.57-0.21-0.96-0.64-1.17
		c-2.48-0.92-4.67-2.58-6.57-4.98c-0.28-0.42-0.71-0.64-1.27-0.64c-0.99,0.07-1.87,0.07-2.65,0c-1.2,0-2.4-0.28-3.6-0.85
		c-0.92-0.42-1.52-0.95-1.8-1.59c-0.64-1.2-0.6-2.23,0.11-3.07c0.71-1.06,1.7-1.48,2.97-1.27c0.14,0,0.6,0.11,1.38,0.32
		c0.42,0.14,0.64,0,0.64-0.42c0-0.71,0.14-1.31,0.42-1.8c0.35-0.99,0.95-1.52,1.8-1.59c0.85-0.07,1.55,0.28,2.12,1.06
		c0.78,1.2,1.06,2.69,0.85,4.45c-0.07,0.64-0.21,1.52-0.42,2.65c-0.14,0.5-0.07,0.88,0.21,1.17c1.7,2.19,3.43,3.75,5.2,4.67
		c0.14,0.14,0.28,0.21,0.42,0.21c0.35,0.14,0.58,0.18,0.69,0.11c0.11-0.07,0.16-0.28,0.16-0.64c-0.07-0.85-0.12-2.17-0.16-3.98
		c-0.04-1.8-0.12-3.16-0.27-4.08c-0.07-0.42-0.32-0.78-0.74-1.06c-1.84-1.27-3.15-2.44-3.92-3.5c-0.85-1.27-1.38-2.4-1.59-3.39
		c-0.21-0.92-0.11-1.84,0.32-2.76c0.42-0.85,1.06-1.38,1.91-1.59s1.63,0,2.33,0.64c0.64,0.5,1.17,1.13,1.59,1.91l0.74,1.06
		c0.42-0.92,0.88-1.66,1.38-2.23c0.49-0.64,1.13-1.13,1.91-1.48c1.48-0.78,2.61-0.42,3.39,1.06c0.49,0.99,0.56,2.09,0.21,3.29
		c-0.42,1.7-1.31,3.15-2.65,4.35c-0.71,0.64-1.59,1.31-2.65,2.01c-0.57,0.5-0.81,1.06-0.74,1.7c0.07,0.99,0.12,2.48,0.16,4.45
		c0.03,1.98,0.09,3.43,0.16,4.35c0.14,0,0.11,1.45-0.11,4.35c0,0.07-0.02,0.26-0.05,0.58c-0.04,0.32-0.04,0.57,0,0.74
		c0.03,0.18,0.12,0.3,0.26,0.37c0.35,0,0.55,0.02,0.58,0.05c0.03,0.04,0.21-0.07,0.53-0.32c0.32-0.25,0.51-0.37,0.58-0.37
		c0.21-0.14,0.55-0.39,1.01-0.74c0.46-0.35,0.76-0.57,0.9-0.64c0.42-0.35,0.6-0.81,0.53-1.38c-0.42-1.7-0.6-3.32-0.53-4.88
		c0.07-0.49-0.11-0.88-0.53-1.17c-0.85-0.71-1.48-1.66-1.91-2.86c-0.28-0.92-0.18-1.84,0.32-2.76c0.42-0.85,1.01-1.29,1.75-1.33
		c0.74-0.04,1.36,0.34,1.86,1.11l0.11,0.11c0.28,0.5,0.49,0.76,0.64,0.79c0.14,0.04,0.46-0.09,0.95-0.37
		c0.92-0.49,1.66-0.46,2.23,0.11c0.64,0.64,0.71,1.42,0.21,2.33c-0.64,1.2-1.52,2.05-2.65,2.54c-0.99,0.42-1.45,1.17-1.38,2.23
		c0.07,0.35,0.11,0.85,0.11,1.48c0,0.64,0,1.03,0,1.17c0,0.35,0.11,0.57,0.32,0.64c0.14,0.07,0.35-0.04,0.64-0.32
		c1.2-1.13,2.47-2.79,3.82-4.98c0.07-0.14,0.53-0.99,1.38-2.54c0.28-0.49,0.32-0.99,0.11-1.48c-0.28-0.71-0.53-1.87-0.74-3.5
		c-0.14-1.2,0.25-2.3,1.17-3.29c0.64-0.64,1.33-0.88,2.07-0.74c0.74,0.14,1.25,0.67,1.54,1.59c0.14,0.35,0.21,0.71,0.21,1.06
		c0,0.42,0.07,0.69,0.21,0.79c0.14,0.11,0.42,0.05,0.85-0.16c0.14-0.07,0.42-0.14,0.85-0.21c0.28,0,0.49,0,0.64,0
		C380.69,19.24,381.43,19.67,381.79,20.44z M344.89,33.7c1.27,0.71,2.01,1.04,2.23,1.01c0.21-0.04,0.78-0.62,1.7-1.75
		c0.56-0.64,0.88-1.38,0.95-2.23c0-0.49-0.14-0.78-0.42-0.85c-0.21-0.14-0.48-0.05-0.8,0.27c-0.32,0.32-0.51,0.69-0.58,1.11
		l-0.11,1.06c-0.07,0.57-0.28,0.88-0.64,0.95c-0.35,0.14-0.67-0.07-0.95-0.64c-0.35-0.64-0.64-1.06-0.85-1.27
		c-0.5-0.49-0.95-0.6-1.38-0.32c-0.5,0.35-0.57,0.88-0.21,1.59C344.04,33.06,344.39,33.42,344.89,33.7z M351.67,24.79
		c0.35-1.49,0.53-2.51,0.53-3.08c-0.07-1.2-0.18-1.98-0.32-2.33c-0.28-0.85-0.67-1.27-1.17-1.27c-0.57,0.07-0.85,0.6-0.85,1.59
		c0,0.71,0.18,1.48,0.53,2.33c0,0.07,0.05,0.21,0.16,0.42c0.11,0.21,0.16,0.35,0.16,0.42c0.21,0.5,0.21,0.85,0,1.06
		c-0.28,0.21-0.67,0.14-1.17-0.21c-0.07-0.07-0.28-0.25-0.64-0.53c-0.57-0.49-1.13-0.92-1.7-1.27c-0.5-0.21-0.92-0.32-1.27-0.32
		c-0.85,0-1.38,0.28-1.59,0.85c-0.21,0.71-0.07,1.31,0.42,1.8c0.28,0.28,0.78,0.57,1.48,0.85c1.13,0.42,2.61,0.6,4.45,0.53
		C351.21,25.57,351.53,25.29,351.67,24.79z M352.73,35.82c0.35,0.64,1.2,1.38,2.54,2.23c0.14,0.07,0.32,0.11,0.53,0.11
		c0.35-0.14,0.78-0.53,1.27-1.17c0.49-0.64,0.74-1.17,0.74-1.59c0-0.21-0.04-0.35-0.11-0.42c-0.21-0.07-0.39,0-0.53,0.21
		c-0.35,0.35-0.6,0.92-0.74,1.7c-0.14,0.42-0.39,0.64-0.74,0.64c-0.42,0-0.67-0.21-0.74-0.64c-0.07-0.14-0.14-0.42-0.21-0.85
		c-0.14-0.42-0.28-0.78-0.42-1.06c-0.42-0.57-0.88-0.71-1.38-0.42C352.52,34.83,352.45,35.25,352.73,35.82z M359.2,19.91
		c0.28,0.21,0.64,0.18,1.06-0.11c0.07-0.07,0.46-0.37,1.17-0.9c0.71-0.53,1.24-0.97,1.59-1.33c1.55-1.41,2.4-2.97,2.54-4.67
		l-0.11-0.74c-0.21-1.2-0.85-1.52-1.91-0.95c-0.57,0.35-1.03,0.74-1.38,1.17c-0.92,1.34-1.42,2.76-1.48,4.24
		c0,0.85-0.23,1.27-0.69,1.27c-0.46,0-0.76-0.39-0.9-1.17v-0.21c-0.14-0.78-0.39-1.63-0.74-2.54c-0.57-1.13-1.17-1.91-1.8-2.33
		c-0.71-0.49-1.31-0.39-1.8,0.32c-0.28,0.35-0.42,0.78-0.42,1.27c-0.07,0.71,0.11,1.48,0.53,2.33
		C355.63,16.98,357.08,18.43,359.2,19.91z M365.25,26.7c0.14,0.21,0.39,0.25,0.74,0.11c0.92-0.49,1.7-0.99,2.33-1.49
		c0.35-0.35,0.6-0.71,0.74-1.06c0.14-0.28,0.11-0.46-0.11-0.53c-0.07-0.07-0.21-0.04-0.42,0.11c-0.5,0.28-0.92,0.78-1.27,1.48
		c-0.28,0.5-0.6,0.71-0.95,0.64c-0.35-0.07-0.57-0.39-0.64-0.95c-0.07-0.71-0.21-1.31-0.42-1.8c-0.28-0.57-0.57-0.85-0.85-0.85
		c-0.35,0.07-0.6,0.39-0.74,0.95v0.53C363.66,24.76,364.19,25.71,365.25,26.7z M380.09,21.93c0.28-0.28,0.39-0.57,0.32-0.85
		c-0.14-0.28-0.42-0.42-0.85-0.42c-0.85,0.07-1.66,0.39-2.44,0.95c-0.57,0.35-0.88,0.53-0.95,0.53c-0.28,0.14-0.51,0.14-0.69,0
		c-0.18-0.14-0.27-0.39-0.27-0.74c0-0.07,0.03-0.19,0.11-0.37c0.07-0.18,0.11-0.3,0.11-0.37c0.21-1.06,0.28-1.73,0.21-2.01
		c-0.07-0.64-0.28-0.99-0.64-1.06c-0.35-0.07-0.71,0.18-1.06,0.74c-0.21,0.28-0.32,0.88-0.32,1.8c0,0.85,0.14,1.7,0.42,2.54
		c0.14,0.5,0.46,0.74,0.95,0.74c1.06,0,1.87-0.07,2.44-0.21C378.64,22.92,379.52,22.49,380.09,21.93z"/>
	<path class="st0" d="M430.99,19.28c1.84-0.35,3.46,0.14,4.88,1.48c1.41,1.34,1.98,2.97,1.7,4.88c-0.42,2.4-1.84,4.52-4.24,6.36
		c-2.33,1.77-5.41,3-9.22,3.71c-2.19,0.42-4.52,0.64-7,0.64c-0.71,0-1.15,0.09-1.33,0.27c-0.18,0.18-0.27,0.58-0.27,1.22
		c-0.14,1.84-0.25,3.46-0.32,4.88c-0.14,4.52-0.21,7.39-0.21,8.59c0.14,6.93,0.53,12.26,1.17,16.01c0.07,0.42,0.18,0.88,0.32,1.38
		c0,0.07,0.07,0.46,0.21,1.17c0.28-0.07,0.56-0.28,0.85-0.64c2.69-3.25,4.42-7.17,5.2-11.77c0.35-1.98,0.6-4.52,0.74-7.63
		c0.07-1.2,0.25-2.44,0.53-3.71c0.21-0.92,0.56-1.7,1.06-2.33c0.99-1.13,2.12-1.31,3.39-0.53c0.64,0.42,1.17,1.1,1.59,2.01
		c1.63,3.61,1.84,7.35,0.64,11.24c-1.27,4.17-3.57,8.13-6.89,11.88c-1.48,1.77-3.29,3.04-5.41,3.82c-0.5,0.14-0.78,0.28-0.85,0.42
		c-0.07,0.14-0.04,0.5,0.11,1.06c0.64,2.12,1.52,4.42,2.65,6.89c0.21,0.5,0.32,0.85,0.32,1.06c0.14,0.42,0.07,0.71-0.21,0.85
		c-0.28,0.14-0.57,0.03-0.85-0.32c-0.21-0.21-0.46-0.6-0.74-1.17c-1.2-2.54-2.12-5.05-2.76-7.53c-0.42-1.41-0.81-3-1.17-4.77
		c-0.14-0.64-0.57-1.06-1.27-1.27c-6.93-2.4-11.73-6.86-14.42-13.36c-1.34-3.18-1.56-6.01-0.64-8.48c0.28-0.64,0.6-1.17,0.95-1.59
		c1.06-1.13,2.26-1.34,3.6-0.64c0.71,0.35,1.41,0.99,2.12,1.91c0.71,0.99,1.48,2.48,2.33,4.45c0.56,1.27,1.31,3.11,2.23,5.51
		c0.92,2.4,1.59,4.1,2.01,5.09c0.28,0.64,0.85,1.73,1.7,3.29c0.14,0.21,0.32,0.35,0.53,0.42c-0.07-1.77-0.11-2.69-0.11-2.76
		c-0.5-5.44-0.6-11.24-0.32-17.39c0.07-1.84,0.18-3.85,0.32-6.04c0.07-0.85,0.03-1.34-0.11-1.49c-0.14-0.14-0.6-0.21-1.38-0.21
		c-3.39,0-6.65-0.46-9.75-1.38c-2.83-0.85-5.16-2.08-7-3.71c-1.7-1.55-2.72-3.32-3.07-5.3c-0.35-2.05,0.21-3.76,1.7-5.14
		c1.48-1.38,3.25-1.82,5.3-1.33c1.13,0.28,2.23,0.88,3.29,1.8c0.78,0.71,1.45,1.42,2.01,2.12c0.42,0.57,0.74,0.88,0.95,0.95
		c0.07-0.14,0.03-0.42-0.11-0.85c-1.06-2.83-1.52-5.23-1.38-7.21c0.07-1.13,0.25-2.16,0.53-3.08c0.07-0.21,0.18-0.42,0.32-0.64
		c0.64-1.13,1.4-1.73,2.28-1.8c0.88-0.07,1.7,0.42,2.44,1.48s1.47,2.83,2.17,5.3c0.78,2.83,1.45,5.76,2.01,8.8
		c0,0.14,0.07,0.28,0.21,0.42c0.35-2.19,0.53-3.32,0.53-3.39c0.92-5.02,2.26-9.05,4.03-12.09c0.71-1.2,1.45-2.12,2.23-2.76
		c0.56-0.56,1.09-0.95,1.59-1.17c0.92-0.49,1.75-0.58,2.49-0.27c0.74,0.32,1.22,0.97,1.43,1.96c0.35,1.2,0.28,2.76-0.21,4.67
		c-0.99,4.24-2.58,8.38-4.77,12.41c-1.06,1.91-1.98,3.43-2.76,4.56c-0.07,0.21-0.11,0.39-0.11,0.53c0.42-0.35,1.17-1.2,2.23-2.54
		c0.42-0.49,1.17-1.41,2.23-2.76c1.06-1.34,1.91-2.37,2.54-3.08C427.34,20.83,429.08,19.7,430.99,19.28z M411.58,34.65
		c0.56,0,0.92-0.07,1.06-0.21l-1.17-1.06c-1.41-1.41-3.57-4.03-6.47-7.85c-1.13-1.41-2.12-2.51-2.97-3.29
		c-0.78-0.78-1.7-1.31-2.76-1.59c-1.48-0.42-2.79-0.14-3.92,0.85c-1.13,0.99-1.56,2.23-1.27,3.71c0.28,1.84,1.24,3.46,2.86,4.88
		c1.7,1.42,3.92,2.51,6.68,3.29C405.61,33.95,408.26,34.37,411.58,34.65z M413.49,32.53l0.11-0.21c-0.85-5.51-1.98-10.85-3.39-16.01
		c-0.28-0.99-0.67-1.91-1.17-2.76c-0.21-0.49-0.46-0.85-0.74-1.06c-0.5-0.35-0.95-0.32-1.38,0.11c-0.35,0.42-0.6,0.95-0.74,1.59
		c-0.42,1.42-0.46,3-0.11,4.77c0.64,3.68,2.51,7.56,5.62,11.66C412.39,31.61,413,32.25,413.49,32.53z M415.72,32.53
		c0.56-0.64,1.24-1.55,2.01-2.76c3.67-5.66,6.15-11.24,7.42-16.75c0.28-1.13,0.35-2.3,0.21-3.5c-0.14-1.34-0.81-1.66-2.01-0.95
		c-0.92,0.5-1.7,1.24-2.33,2.23c-1.41,1.98-2.54,4.42-3.39,7.32c-0.78,2.76-1.34,5.66-1.7,8.7
		C415.65,29.35,415.58,31.26,415.72,32.53z M435.97,25.53c0.21-1.49-0.11-2.69-0.95-3.61c-0.85-0.92-1.91-1.34-3.18-1.27
		c-1.13,0-2.19,0.39-3.18,1.17c-0.85,0.64-2.01,1.91-3.5,3.82c-3.39,4.31-5.8,7.1-7.21,8.38c-0.21,0.21-0.32,0.39-0.32,0.53
		c0.14,0.07,0.49,0.11,1.06,0.11c2.97,0,5.87-0.46,8.69-1.38c2.76-0.92,4.91-2.19,6.47-3.82C435.05,28.25,435.76,26.95,435.97,25.53
		z"/>
	<path class="st0" d="M495.24,23.2c1.34,0,2.46,0.5,3.34,1.48c0.88,0.99,1.25,2.19,1.11,3.61c-0.21,2.12-1.2,4.21-2.97,6.26
		c-1.27,1.56-3.32,3.15-6.15,4.77c-5.58,3.18-11.56,5.69-17.92,7.53c-0.92,0.21-1.48,0.81-1.7,1.8c-0.85,4.81-1.03,9.93-0.53,15.38
		c0.35,4.6,1.41,9.3,3.18,14.1c0.42,1.2,0.88,2.16,1.38,2.86c0.21,0.28,0.32,0.5,0.32,0.64c0.14,0.28,0.12,0.51-0.05,0.69
		c-0.18,0.18-0.41,0.23-0.69,0.16c-0.35-0.07-0.71-0.42-1.06-1.06c-0.5-0.78-0.95-1.84-1.38-3.18c-2.4-6.71-3.57-13.29-3.5-19.72
		c0.14-4.52,0.49-8.09,1.06-10.71c0.14-0.64-0.07-1.13-0.64-1.48c-2.19-1.41-4.74-3.46-7.63-6.15c-3.25-2.97-5.87-5.83-7.85-8.59
		c-2.83-3.96-4.56-7.77-5.2-11.45c-0.21-1.06-0.25-2.12-0.11-3.18c0.21-1.63,0.85-2.77,1.91-3.45c1.06-0.67,2.37-0.79,3.92-0.37
		c1.63,0.5,3.25,1.38,4.88,2.65c2.54,1.98,4.84,4.67,6.89,8.06c0.71,1.27,1.66,3.25,2.86,5.94c0.14,0.28,0.28,0.46,0.42,0.53
		c-0.35-2.12-0.53-3.22-0.53-3.29c-0.64-3.25-0.99-5.9-1.06-7.95c-0.07-3.39,0.64-6.15,2.12-8.27c1.13-1.84,2.54-3.04,4.24-3.6
		c2.69-0.99,4.84-0.35,6.47,1.91c1.34,1.91,2.08,4.03,2.23,6.36c0.14,2.26-0.11,4.52-0.74,6.79c-1.34,4.45-2.9,8.27-4.67,11.45
		c-0.07,0.14-0.71,1.38-1.91,3.71c0.07,0,0.14,0.04,0.21,0.11c2.19-2.54,3.36-3.89,3.5-4.03c4.03-4.31,7.99-7.35,11.88-9.12
		C492.52,23.59,493.97,23.2,495.24,23.2z M470.43,44.51c0.21-1.91,0.07-3.99-0.42-6.26c-0.57-2.47-1.48-5.23-2.76-8.27
		c-2.05-5.02-4.74-9.05-8.06-12.09c-1.34-1.27-2.93-2.3-4.77-3.08c-0.71-0.28-1.48-0.42-2.33-0.42c-0.78,0.07-1.34,0.46-1.7,1.17
		c-0.5,0.85-0.74,1.8-0.74,2.86c0.07,0.99,0.25,1.98,0.53,2.97c1.13,4.1,3.29,8.06,6.47,11.88c2.61,3.04,5.65,6.01,9.12,8.91
		c0.99,0.71,2.23,1.63,3.71,2.76c0.35,0.21,0.58,0.3,0.69,0.27C470.27,45.17,470.36,44.94,470.43,44.51z M472.02,37.73
		c0.28,1.42,0.42,2.19,0.42,2.33c0.71-1.41,1.1-2.16,1.17-2.23c1.2-2.47,2.12-4.31,2.76-5.51c2.61-4.95,4.24-9.72,4.88-14.31
		c0.42-2.9-0.14-5.51-1.7-7.85c-0.78-1.06-1.73-1.7-2.86-1.91c-1.13-0.21-2.23,0.04-3.29,0.74c-0.35,0.21-0.71,0.5-1.06,0.85
		c-1.42,1.27-2.33,2.97-2.76,5.09c-0.57,2.62-0.57,5.58,0,8.91C470.22,27.37,471.03,32,472.02,37.73z M496.73,32.21
		c1.06-1.55,1.59-2.9,1.59-4.03c0-1.27-0.35-2.23-1.06-2.86c-0.71-0.64-1.63-0.85-2.76-0.64c-0.92,0.14-1.84,0.42-2.76,0.85
		c-2.26,0.99-4.28,2.23-6.04,3.71c-5.09,4.17-9.37,9.05-12.83,14.63c-0.14,0.28-0.25,0.53-0.32,0.74c-0.07,0.21-0.07,0.35,0,0.42
		c0.07,0.07,0.21,0.11,0.42,0.11s0.49-0.07,0.85-0.21c2.83-0.99,4.56-1.59,5.2-1.8c4.38-1.63,8.59-3.71,12.62-6.26
		C493.9,35.46,495.59,33.91,496.73,32.21z"/>
	<path class="st0" d="M556.95,50.56c-1.06-0.21-1.8,0.14-2.23,1.06c-0.07,0.07-0.2,0.23-0.37,0.48c-0.18,0.25-0.27,0.48-0.27,0.69
		c0.07,0.14,0.25,0.18,0.53,0.11c1.63-0.42,3.78-0.35,6.47,0.21c0.35,0.07,1.8,0.39,4.35,0.95c0.14,0,0.28,0.04,0.42,0.11
		c0.64,0.14,0.95,0.42,0.95,0.85c0.07,0.42-0.14,0.78-0.64,1.06c-1.91,1.27-3.82,2.09-5.73,2.44c-3.18,0.57-6.04-0.03-8.59-1.8
		c-0.42-0.28-0.85-0.18-1.27,0.32c-0.78,0.99-2.37,2.65-4.77,4.98c-1.48,1.48-3.71,3.32-6.68,5.51c-0.64,0.42-1.1,1.03-1.38,1.8
		c-0.99,2.62-2.4,5.97-4.24,10.07c-0.28,0.71-0.64,1.03-1.06,0.95c-0.5-0.07-0.57-0.56-0.21-1.48c0.78-1.84,1.48-3.39,2.12-4.67
		c0.35-0.78,0.25-1.52-0.32-2.23c-2.76-3.46-4.95-6.64-6.57-9.54c-0.92-1.63-1.59-2.9-2.01-3.82c-0.14-0.42-0.28-0.65-0.42-0.69
		c-0.14-0.04-0.39,0.02-0.74,0.16c-3.11,1.13-6.29,0.81-9.54-0.95c-1.34-0.71-2.65-1.8-3.92-3.29c-0.42-0.49-0.57-0.92-0.42-1.27
		c0.14-0.42,0.53-0.6,1.17-0.53c3.32,0,5.97,0.18,7.95,0.53c0.85,0.14,2.12,0.6,3.82,1.38c-0.14-1.13-0.46-2.05-0.95-2.76
		c-0.07-0.14-0.39-0.25-0.95-0.32c-2.26-0.35-4.07-1.1-5.41-2.23c-1.98-1.77-3.32-3.99-4.03-6.68c-0.14-0.71-0.04-1.18,0.32-1.43
		c0.35-0.25,0.85-0.19,1.48,0.16c0.42,0.28,1.15,0.73,2.17,1.33c1.02,0.6,1.91,1.17,2.65,1.7c0.74,0.53,1.43,1.04,2.07,1.54
		c0.07,0,0.14,0,0.21,0c0.07-0.14,0-0.35-0.21-0.64c-2.05-1.91-2.86-4.56-2.44-7.95c0.35-3.25,1.45-6.57,3.29-9.97
		c0.21-0.28,0.42-0.6,0.64-0.95c0.35-0.49,0.71-0.67,1.06-0.53c0.42,0.07,0.67,0.39,0.74,0.95c0.07,1.84,0.14,2.9,0.21,3.18
		c0,2.26,0,5.48,0,9.65c0,2.05-0.5,3.78-1.48,5.2c-0.28,0.5-0.21,1.27,0.21,2.33c0.14,0,0.39-0.28,0.74-0.85
		c1.55-2.61,3.64-4.59,6.26-5.94c0.42-0.21,0.78-0.35,1.06-0.42c0.42-0.14,0.76-0.09,1.01,0.16c0.25,0.25,0.33,0.58,0.27,1.01
		c-0.07,0.21-0.14,0.39-0.21,0.53c-1.56,2.9-2.79,4.98-3.71,6.26c-0.92,1.27-2.09,2.26-3.5,2.97c-0.42,0.21-0.67,0.39-0.74,0.53
		c-0.07,0.14-0.04,0.42,0.11,0.85c0.42,1.27,0.74,2.05,0.95,2.33c0.14-0.07,0.35-0.39,0.64-0.95c1.98-3.46,5.16-5.9,9.54-7.32
		c0.85-0.28,1.38-0.28,1.59,0c0.35,0.35,0.28,0.95-0.21,1.8c-1.13,1.91-2.51,3.89-4.14,5.94c-1.27,1.63-2.9,2.79-4.88,3.5
		c-0.64,0.21-0.97,0.37-1.01,0.48c-0.04,0.11,0.09,0.48,0.37,1.11c1.84,3.89,4.42,7.92,7.74,12.09c0.28,0.35,0.49,0.53,0.64,0.53
		c0.14,0,0.28-0.21,0.42-0.64c1.91-4.88,3.11-9.4,3.6-13.57c0.49-4.67,0.71-8.48,0.64-11.45c0-1.98-0.14-4.21-0.42-6.68
		c-0.07-0.42-0.16-0.69-0.27-0.8c-0.11-0.11-0.34-0.09-0.69,0.05c-2.4,0.78-5.27,0.5-8.59-0.85c-0.5-0.21-2.01-0.88-4.56-2.01
		c-0.28-0.14-0.5-0.25-0.64-0.32c-0.42-0.28-0.62-0.58-0.58-0.9c0.03-0.32,0.27-0.58,0.69-0.79c0.64-0.28,1.63-0.53,2.97-0.74
		c3.75-0.56,7.17,0.07,10.29,1.91c0.21,0.07,0.39,0.07,0.53,0c-0.07-0.42-0.28-1.38-0.64-2.86c-0.14-0.42-0.39-0.6-0.74-0.53
		c-2.12,0.42-4.6-0.11-7.42-1.59c-0.5-0.21-1.77-0.88-3.82-2.01c-0.21-0.07-0.42-0.17-0.64-0.32c-0.78-0.71-0.71-1.27,0.21-1.7
		c0.71-0.28,1.63-0.42,2.76-0.42c2.9,0.14,5.51,0.88,7.85,2.23h0.32c-0.28-1.34-0.81-2.16-1.59-2.44c-1.06-0.42-2.01-1.2-2.86-2.33
		c-0.78-0.92-1.84-2.47-3.18-4.67c-0.42-0.64-1.11-1.73-2.07-3.29c-0.95-1.55-1.68-2.76-2.17-3.61c-0.42-0.71-0.46-1.24-0.11-1.59
		c0.28-0.35,0.78-0.35,1.48,0c4.45,2.33,7.77,5.13,9.97,8.38c1.2,1.91,1.63,4,1.27,6.26c-0.07,0.57,0,0.92,0.21,1.06
		c0.64-1.77,0.99-2.72,1.06-2.86c0.35-0.78,1.13-2.44,2.33-4.98c0.14-0.28,0.28-0.49,0.42-0.64c0.49-0.49,0.99-0.46,1.48,0.11
		c0.07,0.14,0.14,0.28,0.21,0.42c1.27,3.89,1.06,7.25-0.64,10.07c-0.64,1.06-1.48,1.98-2.54,2.76c-0.5,0.35-0.64,0.81-0.42,1.38
		c0,0.14,0.21,0.92,0.64,2.33c0.21-0.28,0.44-0.65,0.69-1.11c0.25-0.46,0.44-0.76,0.58-0.9c0.85-1.06,2.44-2.44,4.77-4.14
		c0.85-0.64,1.7-1.27,2.54-1.91c0.28-0.21,0.53-0.35,0.74-0.42c0.78-0.28,1.2,0.04,1.27,0.95c0,0.07-0.04,0.18-0.11,0.32
		c-0.64,4.6-2.65,7.88-6.04,9.86c-0.99,0.64-1.95,1.03-2.86,1.17c-0.42,0.07-0.69,0.16-0.8,0.26c-0.11,0.11-0.12,0.34-0.05,0.69
		c0.14,0.78,0.35,3.54,0.64,8.27c0,1.13-0.07,2.9-0.21,5.3c-0.28,3.82-0.67,6.86-1.17,9.12c-0.07,0.21-0.42,1.77-1.06,4.67
		c0.64-0.35,1.45-0.95,2.44-1.8c3.32-2.83,5.87-5.27,7.63-7.32c0.07-0.07,0.18-0.21,0.32-0.42c0.42-0.42,0.39-0.78-0.11-1.06
		c-0.57-0.35-1.13-0.74-1.7-1.17c-1.13-0.99-2.09-2.44-2.86-4.35c-0.57-1.34-1.27-3.39-2.12-6.15c-0.28-0.92-0.21-1.52,0.21-1.8
		c0.35-0.21,0.88-0.11,1.59,0.32c4.03,2.69,6.47,6.08,7.32,10.18c0.07,0,0.14,0.11,0.21,0.32c0.14,0.07,0.35-0.04,0.64-0.32
		c0.07-0.21,0.32-0.64,0.74-1.27c0.35-0.49,0.53-0.83,0.53-1.01c0-0.18-0.25-0.48-0.74-0.9c-1.06-0.92-1.8-1.98-2.23-3.18
		c-0.85-2.12-1.56-4.56-2.12-7.32c-0.14-0.71-0.04-1.17,0.32-1.38c0.42-0.35,0.92-0.32,1.48,0.11c0.99,0.71,1.98,1.8,2.97,3.29
		c1.2,1.84,1.98,3.71,2.33,5.62c0.99-0.64,1.34-1.38,1.06-2.23c-0.57-1.63-0.6-3.39-0.11-5.3c0.56-2.26,1.7-6.29,3.39-12.09
		c0.07-0.14,0.11-0.25,0.11-0.32c0.21-0.56,0.53-0.85,0.95-0.85c0.42,0,0.74,0.28,0.95,0.85c0.28,0.64,0.49,1.45,0.64,2.44
		c0.64,3.6,0.74,6.57,0.32,8.91c-0.5,2.9-1.45,4.95-2.86,6.15c-0.21,0.21-0.64,0.57-1.27,1.06c-0.42,0.28-0.64,0.46-0.64,0.53
		c0.07,0.14,0.21,0.18,0.42,0.11c0.71-0.35,1.48-0.69,2.33-1.01c0.85-0.32,1.86-0.64,3.02-0.95c1.17-0.32,2.01-0.55,2.54-0.69
		s0.94-0.05,1.22,0.26c0.28,0.32,0.28,0.73,0,1.22c-1.06,2.05-2.54,3.73-4.45,5.04C561.72,50.43,559.5,50.91,556.95,50.56z"/>
	<path class="st0" d="M596.92,50.13c1.48-0.35,2.58-0.14,3.29,0.64c0.78,0.85,0.99,2.01,0.64,3.5c-0.5,1.63-1.59,2.97-3.29,4.03
		c-0.99,0.64-2.48,1.24-4.45,1.8c-1.27,0.35-2.26,0.71-2.97,1.06c-0.64,0.35-0.99,0.95-1.06,1.8c-0.28,2.97-0.35,5.83-0.21,8.59
		c0.14,3.39,0.46,6.08,0.95,8.06c0.14,0.5,0.18,0.85,0.11,1.06c-0.07,0.35-0.25,0.53-0.53,0.53c-0.21,0.07-0.39-0.04-0.53-0.32
		c-0.21-0.28-0.39-0.78-0.53-1.48c-0.35-1.34-0.6-2.93-0.74-4.77c-0.42-4.59-0.32-9.22,0.32-13.89c0.07-0.21,0.12-0.51,0.16-0.9
		c0.03-0.39,0.07-0.72,0.11-1.01c0.03-0.28,0.09-0.57,0.16-0.85c0.21-1.06-0.14-2.26-1.06-3.6c-0.71-0.92-1.7-1.77-2.97-2.54
		c-1.63-0.99-2.54-1.55-2.76-1.7c-1.98-1.34-2.86-3.04-2.65-5.09c0.07-0.57,0.18-1.02,0.32-1.38c0.42-1.2,1.2-2,2.33-2.39
		c1.13-0.39,2.26-0.16,3.39,0.69c1.06,0.78,1.94,1.87,2.65,3.29c0.56,1.2,1.06,2.76,1.48,4.67c0.14,0.57,0.25,0.96,0.32,1.17
		c0.35-1.48,0.53-2.26,0.53-2.33c1.48-7,3.64-13.15,6.47-18.45c1.27-2.47,3.08-5.13,5.41-7.95c0.35-0.49,0.78-0.88,1.27-1.17
		c0.42-0.28,0.71-0.33,0.85-0.16c0.14,0.18,0.11,0.44-0.11,0.79c-0.42,0.64-0.74,1.06-0.95,1.27c-4.88,5.8-8.45,13.22-10.71,22.27
		c-0.42,1.7-1.03,4.56-1.8,8.59c-0.07,0.42-0.07,0.81,0,1.17c0.56-0.85,1.24-1.66,2.01-2.44C593.78,51.33,595.3,50.49,596.92,50.13z
		 M590.77,35.29c-3.39-2.47-5.55-5.13-6.47-7.95c-0.5-1.48-0.6-2.69-0.32-3.6c0.35-0.99,0.88-1.57,1.59-1.75
		c0.71-0.18,1.48,0.02,2.33,0.58c0.42,0.35,0.78,0.78,1.06,1.27c1.98,3.04,3.11,6.47,3.39,10.29v0.32c0,0.71-0.14,1.1-0.42,1.17
		C591.59,35.75,591.2,35.64,590.77,35.29z M594.49,28.08c-1.91-1.34-3.46-3.11-4.67-5.3c-0.85-1.55-1.27-2.97-1.27-4.24
		c0.14-0.56,0.21-0.88,0.21-0.95c0.42-1.13,1.2-1.45,2.33-0.95c0.92,0.42,1.7,1.2,2.33,2.33c1.06,1.91,1.98,4.56,2.76,7.95v0.11
		c0,0.71-0.11,1.13-0.32,1.27C595.51,28.5,595.05,28.43,594.49,28.08z M598.3,22.67c-2.19-3.04-3.36-5.97-3.5-8.8
		c-0.07-0.92,0.11-1.84,0.53-2.76c0.35-0.71,0.83-1.11,1.43-1.22c0.6-0.11,1.18,0.09,1.75,0.58c0.49,0.42,0.92,0.99,1.27,1.7
		c0.64,1.34,0.95,3.18,0.95,5.51c0,0.92-0.21,2.44-0.64,4.56c-0.14,0.57-0.35,0.88-0.64,0.95C599.05,23.27,598.66,23.09,598.3,22.67
		z M610.5,37.41c0.71,0.5,1.06,1.08,1.06,1.75c0,0.67-0.39,1.26-1.17,1.75c-0.78,0.5-2.12,0.74-4.03,0.74
		c-0.64,0-1.66-0.21-3.08-0.64c-1.41-0.42-3.22-1.13-5.41-2.12c-0.07,0-0.32-0.14-0.74-0.42c-0.64-0.35-0.92-0.74-0.85-1.17
		c0-0.49,0.39-0.85,1.17-1.06c0.42-0.14,1.02-0.28,1.8-0.42c2.76-0.49,5.58-0.39,8.48,0.32C608.8,36.42,609.72,36.84,610.5,37.41z
		 M610.81,29.88c0.85,0.42,1.48,0.92,1.91,1.48c0.78,1.2,0.53,2.19-0.74,2.97c-0.71,0.42-1.48,0.64-2.33,0.64
		c-2.12,0-4.42-0.64-6.89-1.91c-0.64-0.28-1.38-0.74-2.23-1.38c-0.71-0.49-1.03-0.92-0.95-1.27c0.07-0.42,0.49-0.78,1.27-1.06
		c1.41-0.49,2.9-0.71,4.45-0.64C607.14,28.64,608.98,29.03,610.81,29.88z M614.84,24.15c0.78,0.64,1.13,1.27,1.06,1.91
		c-0.14,0.78-0.67,1.31-1.59,1.59c-1.13,0.28-2.09,0.39-2.86,0.32c-2.83-0.21-5.27-0.71-7.32-1.48c-0.57-0.14-0.95-0.32-1.17-0.53
		c-0.64-0.64-0.6-1.2,0.11-1.7c0.49-0.35,1.06-0.64,1.7-0.85c1.55-0.42,3.14-0.64,4.77-0.64c0.92-0.07,2.05,0.11,3.39,0.53
		C613.71,23.52,614.35,23.8,614.84,24.15z M604.88,19.59c-0.35-0.28-0.46-0.78-0.32-1.48c0.14-0.99,0.6-2.23,1.38-3.71
		c1.41-2.83,3.22-4.77,5.41-5.83c0.71-0.28,1.34-0.46,1.91-0.53c0.64-0.07,1.17,0.09,1.59,0.48c0.42,0.39,0.6,0.94,0.53,1.64
		c-0.07,0.71-0.39,1.52-0.95,2.44c-1.13,1.77-2.69,3.36-4.67,4.77c-0.99,0.71-2.16,1.42-3.5,2.12
		C605.69,19.77,605.23,19.81,604.88,19.59z"/>
	<path class="st0" d="M651.32,50.88c0.21,1.2-0.04,2.47-0.74,3.82c-1.7,3.04-4.42,4.91-8.16,5.62c-0.14,0-0.95,0.07-2.44,0.21
		c-0.35,0.07-0.57,0.14-0.64,0.21c-0.07,0.07-0.11,0.28-0.11,0.64c0.14,1.98,0.25,3.46,0.32,4.45c0.49,4.45,0.95,7.95,1.38,10.5
		c0.21,1.13,0.53,2.54,0.95,4.24c0.14,0.57,0.18,0.95,0.11,1.17c-0.07,0.28-0.25,0.44-0.53,0.48c-0.28,0.04-0.5-0.09-0.64-0.37
		c-0.07-0.07-0.14-0.32-0.21-0.74c-0.57-1.63-1.1-4.17-1.59-7.63c-0.28-1.98-0.67-5.69-1.17-11.13c-0.07-0.49-0.18-0.79-0.32-0.9
		c-0.14-0.11-0.46-0.12-0.95-0.05c-2.12,0.35-4.03,0.14-5.73-0.64c-1.91-0.92-3.22-2.23-3.92-3.92c-0.21-0.35-0.32-0.71-0.32-1.06
		c-0.28-1.34,0-2.44,0.85-3.29c0.85-0.85,1.94-1.17,3.29-0.95c1.84,0.35,3.39,1.17,4.67,2.44c0.07,0.07,0.6,0.53,1.59,1.38
		c0.07,0,0.11-0.21,0.11-0.64c0.07-0.64,0.05-1.54-0.05-2.7c-0.11-1.17-0.16-2-0.16-2.49c0-0.35-0.07-0.58-0.21-0.69
		c-0.14-0.11-0.42-0.16-0.85-0.16c-1.77,0-3.36-0.35-4.77-1.06c-2.26-1.06-3.6-2.72-4.03-4.98c-0.28-1.49,0.07-2.69,1.06-3.61
		c0.99-0.92,2.23-1.2,3.71-0.85c1.48,0.35,2.9,1.38,4.24,3.08c0.35,0.5,0.6,0.74,0.74,0.74c0-0.14,0.03-0.56,0.11-1.27
		c0-1.77,0-3.18,0-4.24c0-0.56-0.07-0.9-0.21-1.01c-0.14-0.11-0.46-0.16-0.95-0.16c-1.34,0-2.3-0.11-2.86-0.32
		c-1.48-0.35-2.69-1.04-3.6-2.07c-0.92-1.02-1.45-2.24-1.59-3.66c-0.14-0.99,0.04-1.93,0.53-2.81c0.49-0.88,1.17-1.5,2.01-1.86
		c1.06-0.42,2.16-0.39,3.29,0.11c1.2,0.57,2.26,1.56,3.18,2.97c0.35,0.5,0.6,0.78,0.74,0.85c0.07-0.14,0.12-0.3,0.16-0.48
		c0.04-0.18,0.05-0.39,0.05-0.64c0-0.25,0-0.41,0-0.48c0-0.14,0.07-0.69,0.21-1.64c0.14-0.95,0.25-1.68,0.32-2.17
		c0.14-0.71,0-1.34-0.42-1.91c-1.2-1.55-1.94-3.39-2.23-5.51c-0.42-3.11,0.35-5.58,2.33-7.42c1.48-1.27,3.08-1.52,4.77-0.74
		c2.83,1.27,3.92,3.54,3.29,6.79c-0.5,2.4-1.87,4.56-4.14,6.47c0,0.07-0.04,0.11-0.11,0.11c-1.56,0.71-2.33,2.19-2.33,4.45
		c0,0.07-0.07,0.5-0.21,1.27c0.71-1.27,1.45-2.4,2.23-3.39c1.34-1.48,2.72-2.26,4.14-2.33c1.34-0.07,2.42,0.37,3.23,1.33
		c0.81,0.96,1.11,2.07,0.9,3.34c-0.21,1.77-1.13,3.25-2.76,4.45c-1.48,1.13-3.32,1.77-5.51,1.91c-0.57,0.07-1.24,0.11-2.01,0.11
		c-0.42,0-0.67,0.18-0.74,0.53c-0.14,0.57-0.23,1.59-0.27,3.07c-0.04,1.49,0.02,2.58,0.16,3.29c0.07-0.07,0.32-0.39,0.74-0.95
		c0.99-1.34,2.01-2.33,3.08-2.97c1.2-0.78,2.54-0.99,4.03-0.64c1.13,0.28,1.98,0.97,2.54,2.07c0.56,1.1,0.64,2.28,0.21,3.55
		c-0.71,2.26-2.33,3.96-4.88,5.09c-1.2,0.5-2.76,0.81-4.67,0.95c-0.57,0-0.92,0.07-1.06,0.21c-0.14,0.14-0.21,0.53-0.21,1.17
		c0,1.06,0.03,2.16,0.11,3.29c0,0.64,0.11,1.03,0.32,1.17c0.07-0.07,0.32-0.53,0.74-1.38c1.06-1.84,2.37-3.07,3.92-3.71
		c1.84-0.64,3.57-0.51,5.2,0.37C650.19,48,651.11,49.25,651.32,50.88z M631.7,56.18c0.64-0.78,1.7-0.99,3.18-0.64
		c-1.42-1.77-3.08-2.61-4.98-2.54c-1.2,0-1.84,0.64-1.91,1.91c0,0.85,0.25,1.63,0.74,2.33c0.56,0.78,1.34,1.45,2.33,2.01
		c0.35,0.21,0.64,0.25,0.85,0.11C631.14,58.02,631.07,56.96,631.7,56.18z M633.72,41.76c0.64,0.28,1.02,0.42,1.17,0.42
		c-1.13-1.55-2.37-2.47-3.71-2.76c-0.78-0.14-1.43-0.02-1.96,0.37c-0.53,0.39-0.83,0.97-0.9,1.75c-0.07,0.78,0.11,1.56,0.53,2.33
		c0.71,1.27,1.84,2.12,3.39,2.54c-0.78-1.06-1.24-1.77-1.38-2.12c-0.35-1.06-0.18-1.91,0.53-2.54
		C631.95,41.33,632.73,41.33,633.72,41.76z M634.46,28.61c0.07,0.07,0.49,0.28,1.27,0.64c-0.5-1.77-1.45-2.9-2.86-3.39
		c-1.77-0.64-3.01-0.11-3.71,1.59c-0.42,1.2-0.21,2.46,0.64,3.76c0.85,1.31,1.94,2.03,3.29,2.17c-0.64-0.64-1.1-1.27-1.38-1.91
		c-0.5-0.99-0.42-1.84,0.21-2.54C632.48,28.29,633.33,28.18,634.46,28.61z M637.53,14.61c0.42-0.78,0.85-1.31,1.27-1.59
		c0.64-0.49,1.27-0.65,1.91-0.48c0.64,0.18,1.13,0.58,1.48,1.22c0.42,0.85,0.53,1.73,0.32,2.65c0,0.07-0.14,0.64-0.42,1.7
		c1.98-1.98,2.76-4.13,2.33-6.47c-0.21-1.55-1.13-2.58-2.76-3.08c-1.27-0.35-2.37-0.03-3.29,0.95c-1.27,1.48-1.73,3.46-1.38,5.94
		L637.53,14.61z M649.94,52.25c0.28-1.2,0-2.26-0.85-3.18c-0.85-0.85-1.87-1.33-3.08-1.43c-1.2-0.11-2.26,0.2-3.18,0.9
		c-1.77,1.34-2.9,3.36-3.39,6.04c0.14-0.07,0.39-0.35,0.74-0.85c1.27-1.48,2.61-2.19,4.03-2.12c1.34,0.14,2.08,0.85,2.23,2.12
		c0.14,1.13-0.21,2.12-1.06,2.97c0,0.07-0.5,0.53-1.48,1.38C647.08,57.24,649.09,55.29,649.94,52.25z M641.25,37.83
		c-0.85,0.99-1.34,1.84-1.48,2.54c0.14-0.07,0.35-0.21,0.64-0.42c0.71-0.64,1.52-1.06,2.44-1.27c0.71-0.14,1.27-0.03,1.7,0.32
		c0.42,0.35,0.6,0.88,0.53,1.59c0,0.85-0.46,1.7-1.38,2.54c-0.07,0.07-0.18,0.14-0.32,0.21c-0.14,0.07-0.27,0.16-0.37,0.26
		s-0.23,0.23-0.37,0.37c0.49,0,1.02-0.14,1.59-0.42c2.05-0.99,3.29-2.44,3.71-4.35c0.35-1.13,0.14-2.07-0.64-2.81
		c-0.78-0.74-1.73-0.97-2.86-0.69C643.15,36,642.09,36.7,641.25,37.83z M644.11,22.78c-1.48,0.99-2.51,2.37-3.07,4.13
		c1.2-0.85,2.16-1.38,2.86-1.59c0.85-0.21,1.48-0.03,1.91,0.53c0.42,0.64,0.46,1.34,0.11,2.12c-0.35,0.5-0.92,1.03-1.7,1.59
		c-0.5,0.28-0.78,0.5-0.85,0.64c1.48-0.42,2.69-1.09,3.61-2.01c0.85-0.92,1.31-1.84,1.38-2.76c0.07-1.27-0.32-2.16-1.17-2.65
		C646.19,22.14,645.17,22.14,644.11,22.78z"/>
	<path class="st0" d="M698.18,45.68c0.28,0.21,0.32,0.67,0.11,1.38c-0.92,3.6-2.51,6.43-4.77,8.48c-2.19,1.91-4.63,3.18-7.32,3.82
		c-0.64,0.14-1.01,0.28-1.11,0.42c-0.11,0.14-0.16,0.53-0.16,1.17c-0.21,5.73-1.24,11.84-3.08,18.34c-0.28,0.85-0.53,1.45-0.74,1.8
		c-0.21,0.35-0.46,0.5-0.74,0.42c-0.21-0.07-0.32-0.32-0.32-0.74c0-0.28,0.07-0.74,0.21-1.38c1.34-4.52,2.3-8.91,2.86-13.15
		c0.21-2.26,0.32-3.96,0.32-5.09c0-0.42-0.05-0.67-0.16-0.74c-0.11-0.07-0.34-0.04-0.69,0.11c-2.12,0.57-4.45,0.5-7-0.21
		c-1.91-0.57-4.63-1.52-8.16-2.86h-0.11c-0.07,0-0.18-0.03-0.32-0.11c-0.64-0.28-0.92-0.64-0.85-1.06c0.07-0.56,0.53-0.85,1.38-0.85
		c0.56,0,1.43-0.03,2.6-0.11c1.17-0.07,2.12-0.12,2.86-0.16c0.74-0.04,1.63-0.04,2.65,0c1.02,0.04,1.96,0.16,2.81,0.37
		c1.34,0.35,2.47,0.74,3.39,1.17c0.28,0.14,0.6,0.27,0.95,0.37c0.35,0.11,0.53-0.02,0.53-0.37c-0.07-0.64-0.14-1.38-0.21-2.23
		c-0.07-0.28-0.25-0.39-0.53-0.32c-0.14,0-0.25,0.04-0.32,0.11c-1.7,0.5-3.57,0.42-5.62-0.21c-5.51-1.63-8.87-2.61-10.07-2.97
		c-0.07,0-0.18,0-0.32,0c-0.57-0.21-0.85-0.53-0.85-0.95c0-0.49,0.35-0.81,1.06-0.96c0.42-0.14,2.12-0.32,5.09-0.53
		c0.71-0.07,1.77-0.05,3.18,0.05c1.41,0.11,2.3,0.16,2.65,0.16c-2.76-0.49-4.81-1.02-6.15-1.59c-0.42-0.14-1.03-0.37-1.8-0.69
		c-0.78-0.32-1.31-0.55-1.59-0.69c-0.64-0.21-0.92-0.53-0.85-0.95c0-0.49,0.35-0.81,1.06-0.95c1.77-0.35,3.71-0.42,5.83-0.21
		c2.76,0.21,5.09,0.71,7,1.48c0.35,0.14,0.58,0.16,0.69,0.05c0.11-0.11,0.16-0.3,0.16-0.58c-0.07-0.07-0.11-0.12-0.11-0.16
		c0-0.03,0-0.09,0-0.16c-0.14-0.92-0.32-1.45-0.53-1.59c-0.21-0.14-0.78-0.18-1.7-0.11c-2.26,0.21-4.91-0.18-7.95-1.17
		c-0.35-0.07-2.33-0.71-5.94-1.91c-0.14-0.07-0.32-0.17-0.53-0.32c-0.42-0.21-0.64-0.49-0.64-0.85c0-0.42,0.25-0.71,0.74-0.85
		c0.64-0.21,1.34-0.35,2.12-0.42c4.1-0.28,8.02,0.32,11.77,1.8c0.64,0.28,1.02,0.39,1.17,0.32c0.07-0.14,0.11-0.25,0.11-0.32
		c0-0.07-0.04-0.21-0.11-0.42c-0.07-0.21-0.11-0.35-0.11-0.42c-0.07-0.14-0.14-0.42-0.21-0.85c-0.14-0.35-0.39-0.49-0.74-0.42
		c-1.06,0-1.75,0.05-2.07,0.16c-0.32,0.11-0.97,0.05-1.96-0.16c-0.99-0.21-1.64-0.35-1.96-0.42c-0.32-0.07-0.97-0.25-1.96-0.53
		c-0.99-0.28-1.63-0.46-1.91-0.53c-0.64-0.21-1.73-0.6-3.29-1.17c-0.42-0.14-0.88-0.35-1.38-0.64c-0.35-0.21-0.5-0.49-0.42-0.85
		c0.07-0.35,0.28-0.57,0.64-0.64c0.92-0.07,1.55-0.11,1.91-0.11c4.52-0.14,8.31,0.32,11.35,1.38h0.32c0-0.07-0.07-0.46-0.21-1.17
		c-0.14-0.42-0.46-0.57-0.95-0.42c-1.98,0.35-4.67-0.04-8.06-1.17c-1.34-0.49-2.79-1.17-4.35-2.01c-0.35-0.14-0.6-0.28-0.74-0.42
		c-0.71-0.64-0.64-1.17,0.21-1.59c0.28-0.07,0.64-0.14,1.06-0.21c4.03-0.14,7.46,0.57,10.29,2.12c0.49,0.21,0.85,0.28,1.06,0.21
		c0-0.21-0.21-0.78-0.64-1.7c-0.14-0.28-0.39-0.46-0.74-0.53c-1.27,0-2.6-0.21-3.98-0.64c-1.38-0.42-2.49-0.86-3.34-1.33
		c-0.85-0.46-2.01-1.11-3.5-1.96c-0.5-0.28-1.1-0.67-1.8-1.17c-0.5-0.35-0.71-0.74-0.64-1.17c0.14-0.49,0.56-0.74,1.27-0.74
		c0.49,0,0.95,0.04,1.38,0.11c3.53,0.64,6.43,1.66,8.69,3.08c0.35,0.28,0.64,0.42,0.85,0.42c0.14-0.21,0.07-0.42-0.21-0.64
		c-1.34-0.71-2.62-1.94-3.82-3.71c-1.91-2.76-3.68-5.69-5.3-8.8c-0.14-0.28-0.28-0.6-0.42-0.95c-0.14-0.42-0.07-0.76,0.21-1.01
		c0.28-0.25,0.6-0.3,0.95-0.16c0.28,0.14,0.49,0.28,0.64,0.42c3.32,2.4,5.83,5.16,7.53,8.27c0.64,1.2,1.17,2.83,1.59,4.88
		c0.07,0.5,0.14,0.78,0.21,0.85c0.14-0.07,0.28-0.35,0.42-0.85c0.28-1.34,0.76-3.23,1.43-5.67c0.67-2.44,1.11-4.05,1.33-4.82
		c0.14-0.42,0.3-0.74,0.48-0.95c0.18-0.21,0.41-0.28,0.69-0.21c0.56,0.07,0.85,0.53,0.85,1.38c0.21,4.1-0.04,7.46-0.74,10.07
		c-0.42,1.34-1.17,2.65-2.23,3.92c-0.35,0.5-0.53,0.85-0.53,1.06s0.21,0.6,0.64,1.17c0.71-1.55,1.1-2.37,1.17-2.44
		c0.28-0.64,0.74-1.47,1.38-2.49c0.64-1.02,1.06-1.71,1.27-2.07c0.56-1.06,1.2-2.37,1.91-3.92c0.35-0.85,0.78-1.2,1.27-1.06
		c0.49,0.07,0.74,0.57,0.74,1.48c-0.21,4.45-1.42,8.2-3.61,11.24c-0.64,0.85-1.27,1.52-1.91,2.01c-0.57,0.35-0.87,0.64-0.9,0.85
		c-0.04,0.21,0.05,0.6,0.27,1.17c0.07,0.28,0.18,0.46,0.32,0.53l0.21-0.11c0.64-1.06,1.61-2.54,2.92-4.45
		c1.31-1.91,2.17-3.22,2.6-3.92c0.14-0.14,0.3-0.39,0.48-0.74c0.17-0.35,0.33-0.6,0.48-0.74c0.35-0.57,0.72-0.78,1.11-0.64
		c0.39,0.14,0.58,0.5,0.58,1.06c0,0.21-0.07,1.1-0.21,2.65c-0.21,2.12-0.71,3.96-1.48,5.51c-1.06,2.12-2.65,3.68-4.77,4.67
		c-0.42,0.21-0.65,0.37-0.69,0.48c-0.04,0.11,0.02,0.37,0.16,0.79l0.42,1.27c0.14,0.07,0.28,0,0.42-0.21
		c0.64-1.41,1.87-3.14,3.71-5.2c0.85-0.92,1.84-2.12,2.97-3.61c0.21-0.35,0.39-0.6,0.53-0.74c0.21-0.28,0.46-0.39,0.74-0.32
		c0.35,0.14,0.57,0.39,0.64,0.74c0,0.21,0,0.39,0,0.53c-0.71,3.82-1.91,6.75-3.61,8.8c-1.06,1.27-2.23,2.23-3.5,2.86
		c-0.5,0.28-0.78,0.51-0.85,0.69c-0.07,0.18-0.04,0.55,0.11,1.11c0.07,0.5,0.14,0.78,0.21,0.85c0.14,0,0.32-0.18,0.53-0.53
		c0.85-1.55,1.98-3,3.39-4.35c2.76-2.76,4.52-4.7,5.3-5.83c0.21-0.21,0.39-0.35,0.53-0.42c0.64-0.42,1.02-0.28,1.17,0.42
		c0.07,0.28,0.03,0.6-0.11,0.95c-1.48,4.74-3.46,8.31-5.94,10.71c-1.13,1.06-2.23,1.84-3.29,2.33c-0.42,0.21-0.67,0.39-0.74,0.53
		c-0.07,0.14-0.07,0.42,0,0.85c0,0.28,0.03,0.67,0.11,1.17l0.11,0.11h0.21c1.48-1.84,3.92-4.03,7.32-6.57
		c1.41-1.06,2.54-2.05,3.39-2.97c0.14-0.14,0.25-0.28,0.32-0.42c0.49-0.42,0.94-0.51,1.33-0.26c0.39,0.25,0.48,0.69,0.27,1.33
		c-0.21,0.5-0.67,1.45-1.38,2.86c-1.56,2.97-3.25,5.2-5.09,6.68c0.35,0,0.67-0.11,0.95-0.32c0.07,0,0.79-0.53,2.17-1.59
		c1.38-1.06,2.39-1.87,3.02-2.44c0.07-0.07,0.14-0.14,0.21-0.21C697.37,45.57,697.83,45.47,698.18,45.68z M665.42,21.5
		c3.11,1.91,5.83,3,8.16,3.29C671.32,23.02,668.6,21.93,665.42,21.5z M667.12,27.87c1.13,0.71,2.56,1.29,4.29,1.75
		c1.73,0.46,3.13,0.62,4.19,0.48C672.98,28.61,670.16,27.87,667.12,27.87z M667.65,11.43c2.12,4.03,3.99,6.79,5.62,8.27
		C672.56,16.8,670.69,14.05,667.65,11.43z M677.93,41.33c0.56,0.07,1.17,0,1.8-0.21c-3.46-1.7-7.39-2.44-11.77-2.23
		c1.63,0.57,2.47,0.85,2.54,0.85C673.27,40.73,675.74,41.26,677.93,41.33z M668.92,33.49c1.63,0.78,3.39,1.33,5.3,1.64
		c1.91,0.32,3.29,0.3,4.14-0.05C675.46,33.95,672.31,33.42,668.92,33.49z M682.07,52.46c0-0.14-0.18-0.32-0.53-0.53
		c-0.78-0.42-1.45-0.74-2.01-0.95c-2.48-0.78-5.66-0.95-9.54-0.53c2.47,0.71,3.78,1.1,3.92,1.17c1.91,0.57,3.14,0.95,3.71,1.17
		c0.92,0.21,2.16,0.25,3.71,0.11C681.75,52.89,682,52.75,682.07,52.46z M681.75,59.15c0.35-0.14,0.53-0.28,0.53-0.42
		c0-0.14-0.18-0.32-0.53-0.53c-0.07,0-0.21-0.03-0.42-0.11c-2.69-1.27-6.22-1.73-10.6-1.38l-0.42,0.21
		c3.46,1.34,6.22,2.16,8.27,2.44C679.7,59.5,680.76,59.43,681.75,59.15z M670.72,45.57c0.99,0.28,1.68,0.5,2.07,0.64
		c0.39,0.14,1.01,0.34,1.86,0.58c0.85,0.25,1.55,0.41,2.12,0.48c0.56,0.07,1.22,0.11,1.96,0.11s1.47-0.07,2.17-0.21
		c-1.13-0.78-2.9-1.34-5.3-1.7C673.2,45.11,671.57,45.15,670.72,45.57z M679.31,15.46c-1.06,3.11-1.7,5.69-1.91,7.74
		C678.6,21.36,679.24,18.78,679.31,15.46z M682.49,50.56c0.14-0.07,0.14-0.42,0-1.06c-0.07-0.49-0.16-0.78-0.27-0.85
		c-0.11-0.07-0.41-0.07-0.9,0c-1.42,0.21-2.69,0.28-3.82,0.21c0.35,0.14,0.99,0.35,1.91,0.64c0.92,0.28,1.63,0.53,2.12,0.74
		C682.03,50.52,682.35,50.63,682.49,50.56z M683.55,20.66c-0.21,0.35-0.73,1.13-1.54,2.33c-0.81,1.2-1.41,2.23-1.8,3.07
		c-0.39,0.85-0.69,1.73-0.9,2.65C681.57,26.88,682.99,24.19,683.55,20.66z M686.31,25.75c-0.28,0.57-1.11,1.84-2.49,3.82
		c-1.38,1.98-2.32,3.6-2.81,4.88c1.34-0.28,2.58-1.34,3.71-3.18C685.85,29.42,686.38,27.58,686.31,25.75z M683.55,38.36
		c-0.35,0.64-0.46,1.1-0.32,1.38c2.54-1.63,4.2-4.03,4.98-7.21c-0.92,0.92-1.38,1.42-1.38,1.48
		C685.21,35.85,684.12,37.3,683.55,38.36z M690.87,37.3c-1.13,1.06-2.01,1.89-2.65,2.49c-0.64,0.6-1.36,1.45-2.17,2.54
		c-0.81,1.1-1.4,2.17-1.75,3.23C687.12,44.02,689.31,41.26,690.87,37.3z M684.82,56.6c1.06-1.63,2.47-3.22,4.24-4.77
		c-1.42,0.71-2.72,1.2-3.92,1.48c-0.5,0.07-0.71,0.35-0.64,0.85C684.51,54.3,684.61,55.12,684.82,56.6z M685.78,50.56
		c-0.28,0.42-0.39,0.71-0.32,0.85c1.34,0,2.92-0.88,4.72-2.65c1.8-1.77,2.99-3.46,3.55-5.09c-0.14,0.07-0.92,0.6-2.33,1.59
		C688.78,47.31,686.91,49.07,685.78,50.56z M685.99,57.87c2.12-0.28,4.28-1.43,6.47-3.45c2.19-2.01,3.32-3.87,3.39-5.57
		c-0.42,0.35-1.24,0.95-2.44,1.8c-1.2,0.85-2.21,1.61-3.02,2.28c-0.81,0.67-1.57,1.36-2.28,2.07
		C687.12,55.93,686.42,56.88,685.99,57.87z"/>
	<path class="st0" d="M738.26,29.77c-0.14,0.21-0.81,1.06-2.01,2.54c-1.2,1.48-2.09,2.65-2.65,3.5l-0.11,0.32
		c0.07,0.07,0.17,0.07,0.32,0c2.05-1.06,4.95-1.77,8.7-2.12c2.26-0.21,4.13-0.46,5.62-0.74c0.49-0.14,0.78-0.21,0.85-0.21
		c0.56-0.07,0.97,0.04,1.22,0.32c0.25,0.28,0.3,0.71,0.16,1.27c-0.35,1.48-0.88,2.9-1.59,4.24c-1.42,2.69-2.93,4.63-4.56,5.83
		c-2.33,1.7-4.98,2.33-7.95,1.91c-2.12-0.35-4.1-1.17-5.94-2.44c-0.35-0.28-0.64-0.46-0.85-0.53c-0.28-0.21-0.5-0.18-0.64,0.11
		c-0.57,0.99-0.92,1.7-1.06,2.12c-2.12,4.6-3.6,9.58-4.45,14.95c-0.21,1.34-0.71,4.56-1.48,9.65c-0.07,0.42,0,0.74,0.21,0.96
		c0.85-1.41,1.31-2.16,1.38-2.23c0.64-0.99,1.24-1.84,1.8-2.54c0.42-0.49,0.53-1.06,0.32-1.7c-0.78-2.4-0.99-4.88-0.64-7.42
		c0.07-0.64,0.21-1.13,0.42-1.48c0.64-0.85,1.31-0.88,2.01-0.11c0.42,0.42,0.74,0.99,0.95,1.7c0.42,1.63,0.53,2.97,0.32,4.03
		c0,0.07,0,0.25,0,0.53l0.11,0.21c0.21-0.14,0.71-0.64,1.48-1.49c0.14-0.14,0.14-0.49,0-1.06c-0.42-2.05-0.6-3.5-0.53-4.35
		c0-0.64,0.11-1.27,0.32-1.91c0.07-0.49,0.32-0.88,0.74-1.17c0.35-0.42,0.76-0.6,1.22-0.53c0.46,0.07,0.83,0.35,1.11,0.85
		c0.49,0.78,0.71,1.66,0.64,2.65c0,0.07-0.04,0.78-0.11,2.12c0.49-0.28,1.24-0.88,2.23-1.8c1.06-0.64,1.63-0.99,1.7-1.06
		c0.35-0.21,0.67-0.35,0.95-0.42c0.42-0.14,0.71-0.07,0.85,0.21c0.14,0.21,0.07,0.46-0.21,0.74c-0.14,0.14-0.42,0.35-0.85,0.64
		c0,0.07-0.39,0.35-1.17,0.85l-0.32,0.32c-0.85,0.5-1.42,0.95-1.7,1.38c0.14,0.07,0.6,0.07,1.38,0c0.85,0,1.52,0.14,2.01,0.42
		c0.99,0.57,1.09,1.31,0.32,2.23c-0.36,0.35-0.88,0.64-1.59,0.85c-1.56,0.5-3.01,0.5-4.35,0c-0.99-0.28-1.73-0.04-2.23,0.74
		c-0.07,0-0.2,0.11-0.37,0.32c-0.18,0.21-0.3,0.39-0.37,0.53c0.14,0,0.74-0.11,1.8-0.32c1.06-0.21,1.87-0.25,2.44-0.11
		c0.78,0.21,1.25,0.6,1.43,1.17c0.18,0.57,0.02,1.17-0.48,1.8c-0.64,0.71-1.63,1.1-2.97,1.17c-1.63,0.14-3,0.07-4.13-0.21
		c-0.71-0.21-1.27-0.03-1.7,0.53c-1.41,1.91-2.9,4.28-4.45,7.1c-0.21,0.5-0.32,0.95-0.32,1.38c0.07,2.62,0.14,4.17,0.21,4.67
		c0.07,0.28,0.07,0.6,0,0.95c0,0.35-0.14,0.57-0.42,0.64c-0.28,0-0.5-0.14-0.64-0.42c-0.21-0.42-0.32-0.78-0.32-1.06
		c-0.42-3.11-0.46-5.55-0.11-7.32c0.49-3.32,0-7.67-1.48-13.04c-0.21-0.64-0.67-0.99-1.38-1.06c-1.42-0.14-2.79-0.53-4.14-1.17
		c-0.99-0.49-1.66-1.09-2.01-1.8c-0.5-0.85-0.53-1.59-0.11-2.23c0.42-0.56,1.13-0.74,2.12-0.53c0.49,0.07,1.27,0.46,2.33,1.17
		c0.57,0.35,0.92,0.5,1.06,0.42c-0.07-0.49-0.35-1.13-0.85-1.91c-0.07-0.21-0.42-0.32-1.06-0.32c-1.2-0.07-2.47-0.49-3.82-1.27
		c-0.42-0.21-0.81-0.53-1.17-0.95c-0.64-0.71-0.81-1.34-0.53-1.91c0.35-0.64,1.02-0.88,2.01-0.74c0.42,0.07,0.96,0.25,1.59,0.53
		c0.49,0.21,0.81,0.32,0.95,0.32c-0.64-1.06-1.06-1.73-1.27-2.01c-0.07-0.07-0.12-0.12-0.16-0.16c-0.04-0.03-0.09-0.09-0.16-0.16
		c-0.07-0.21-0.32-0.64-0.74-1.27c-0.64-0.85-0.78-1.41-0.42-1.7c0.42-0.21,0.92,0.11,1.48,0.96c0.21,0.21,0.96,1.27,2.23,3.18
		c0,0.07,0.14,0.32,0.42,0.74c0.14-0.14,0.28-0.49,0.42-1.06c0.35-1.27,0.85-2.26,1.48-2.97c0.57-0.57,1.13-0.78,1.7-0.64
		c0.64,0.14,1.02,0.64,1.17,1.49c0.14,0.64,0.07,1.45-0.21,2.44c-0.42,1.34-1.13,2.69-2.12,4.03c-0.35,0.57-0.39,1.06-0.11,1.48
		c0.07,0.14,0.18,0.41,0.32,0.79c0.14,0.39,0.28,0.65,0.42,0.8c0.07-0.07,0.21-0.46,0.42-1.17c0.49-1.55,1.2-2.83,2.12-3.82
		c0.78-0.78,1.45-1.06,2.01-0.85c0.71,0.28,0.96,1.03,0.74,2.23c-0.5,2.54-1.56,4.88-3.18,7c-0.42,0.5-0.53,1.03-0.32,1.59
		c0.21,0.57,0.46,1.38,0.74,2.44c0.28,1.06,0.42,1.66,0.42,1.8c1.34-9.4,4.06-17.5,8.16-24.28l-1.91-0.21
		c-2.12-0.28-3.75-1.41-4.88-3.39c-0.57-1.06-1.06-2.51-1.48-4.35c-0.92-3.75-1.77-6.79-2.54-9.12c-0.14-0.35-0.21-0.64-0.21-0.85
		c-0.07-0.71,0.28-1.09,1.06-1.17c0.14,0,0.35,0,0.64,0c3.25,0.71,5.76,1.63,7.53,2.76c3.53,2.4,5.34,5.62,5.41,9.65
		c0,0.07,0.03,0.25,0.11,0.53c0.14,0,0.35-0.18,0.64-0.53c1.34-1.7,2.44-3.08,3.29-4.13c0.28-0.35,0.41-0.58,0.37-0.69
		c-0.04-0.11-0.2-0.3-0.48-0.58c-2.19-1.7-3.08-4.1-2.65-7.21c0.35-2.54,1.63-4.73,3.82-6.57c1.06-0.92,2.76-2.01,5.09-3.29
		c2.76-1.48,4.63-2.56,5.62-3.23c0.99-0.67,1.66-0.44,2.01,0.69c0.21,0.92,0.46,2.62,0.74,5.09c0.49,4.1,0.32,7.56-0.53,10.39
		c-0.5,1.63-1.17,3.04-2.01,4.24c-0.99,1.34-2.37,2.23-4.14,2.65c-1.77,0.42-3.43,0.21-4.98-0.64c-0.28-0.21-0.46-0.32-0.53-0.32
		C738.97,29.28,738.62,29.35,738.26,29.77z M710.91,49.81c0.64,0.85,1.55,1.34,2.76,1.48C712.74,50.31,711.83,49.81,710.91,49.81z
		 M716.31,57.55c0.07-0.07,0.11-0.14,0.11-0.21c-0.92-0.78-1.42-1.2-1.48-1.27c-0.71-0.49-1.38-0.85-2.01-1.06
		c-0.21-0.07-0.39-0.04-0.53,0.11c-0.07,0.07-0.04,0.21,0.11,0.42c0.14,0.28,0.39,0.53,0.74,0.74
		C714.16,56.92,715.18,57.34,716.31,57.55z M717.91,45.79c-0.71,0.99-1.03,2.37-0.95,4.13c0.92-1.2,1.45-2.51,1.59-3.92
		c0.07-0.28,0.04-0.42-0.11-0.42C718.29,45.5,718.12,45.57,717.91,45.79z M721.83,51.3c-0.57,0.35-1.04,1.03-1.43,2.01
		c-0.39,0.99-0.58,1.98-0.58,2.97C721.09,54.87,721.76,53.21,721.83,51.3z M731.16,34.55c0.28-0.42,0.42-0.92,0.42-1.48
		c-0.07-3.61-1.73-6.4-4.98-8.38c-1.34-0.85-3.18-1.55-5.51-2.12c-0.42-0.07-0.67-0.07-0.74,0c-0.07,0.21-0.07,0.46,0,0.74
		c0.21,0.57,1.09,3.75,2.65,9.54c0.35,1.42,0.85,2.54,1.49,3.39c0.56,0.78,1.38,1.34,2.44,1.7c0-0.07-0.11-0.32-0.32-0.74
		c-0.5-0.71-0.85-1.34-1.06-1.91c-0.35-0.85-0.25-1.31,0.32-1.38c0.28-0.07,0.6,0.18,0.95,0.74c0.71,0.99,1.06,1.52,1.06,1.59
		c-0.07-0.57-0.42-1.91-1.06-4.03c-0.21-0.71-0.32-1.2-0.32-1.48c0-0.49,0.12-0.78,0.37-0.85c0.25-0.07,0.51,0.09,0.79,0.48
		c0.28,0.39,0.49,0.87,0.64,1.43c0.07,0.21,0.39,1.31,0.96,3.29c0.28-0.35,0.39-0.85,0.32-1.49c0-0.21-0.11-0.85-0.32-1.91
		c-0.14-0.71-0.18-1.27-0.11-1.7c0-0.28,0.11-0.46,0.32-0.53c0.21-0.07,0.42,0,0.64,0.21c0.21,0.28,0.39,0.74,0.53,1.38
		C730.98,32.32,731.16,33.49,731.16,34.55z M726.49,57.87c-0.21,2.33-0.18,4.13,0.11,5.41C727.45,61.37,727.41,59.57,726.49,57.87z
		 M733.39,64.45c-1.13,0-2.33,0.36-3.61,1.06c0.99,0.35,2.01,0.35,3.08,0c0.28-0.07,0.57-0.18,0.85-0.32
		c0.21-0.14,0.28-0.32,0.21-0.53C733.84,64.52,733.67,64.45,733.39,64.45z M731.79,53.53c-0.85,1.13-0.92,2.69-0.21,4.67
		C732.29,56.35,732.36,54.8,731.79,53.53z M735.08,37.09c-1.06,0.57-1.87,1.17-2.44,1.8c0.28-0.07,0.95-0.25,2.01-0.53
		c0.92-0.21,1.59-0.32,2.01-0.32s0.67,0.14,0.74,0.42c0.14,0.28-0.04,0.53-0.53,0.74c-0.28,0.14-1.03,0.42-2.23,0.85
		c-1.06,0.28-1.8,0.53-2.23,0.74c1.77,0.14,3.22,0.14,4.35,0c0.64-0.07,1.55-0.27,2.76-0.58c1.2-0.32,1.91-0.51,2.12-0.58
		c0.64-0.14,1.1-0.17,1.38-0.11c0.28,0.07,0.44,0.2,0.48,0.37c0.04,0.18-0.05,0.34-0.26,0.48c-0.5,0.28-1.2,0.57-2.12,0.85
		c-2.83,0.71-4.95,1.13-6.36,1.27c0.64,0.21,1.45,0.32,2.44,0.32c0.64,0,1.13,0.07,1.48,0.21c0.35,0.14,0.56,0.32,0.64,0.53
		c0,0.28-0.21,0.53-0.64,0.74c-0.14,0-0.53,0.04-1.17,0.11c-1.13,0-2.54-0.17-4.24-0.53l0.21,0.32c1.98,0.92,3.98,1.22,5.99,0.9
		s3.76-1.29,5.25-2.92c1.7-1.77,2.97-3.96,3.82-6.57c0.14-0.42,0.16-0.69,0.05-0.79c-0.11-0.11-0.37-0.12-0.79-0.05
		c-0.92,0.21-2.28,0.41-4.08,0.58c-1.8,0.18-3.02,0.3-3.66,0.37C738.16,36,736.5,36.45,735.08,37.09z M737.42,60.21
		c-1.06-0.28-2.12-0.14-3.18,0.42C735.44,60.84,736.5,60.7,737.42,60.21z M736.57,25.32c0.28,0.5,0.64,0.88,1.06,1.17
		c0.35,0.21,0.57,0.11,0.64-0.32c0-0.07,0-0.16,0-0.26c0-0.11,0-0.19,0-0.27c0.07-1.55,0.46-3.22,1.17-4.98
		c0.42-0.99,0.85-1.34,1.27-1.06c0.35,0.21,0.42,0.71,0.21,1.48c-0.14,0.35-0.3,0.87-0.48,1.54c-0.18,0.67-0.3,1.11-0.37,1.33
		c-0.14,0.42-0.11,0.74,0.11,0.95c1.2-1.63,1.87-2.51,2.01-2.65c1.7-2.33,2.65-3.61,2.86-3.82c0.49-0.49,0.85-0.64,1.06-0.42
		c0.28,0.14,0.21,0.53-0.21,1.17c-0.64,0.99-1.38,2.09-2.23,3.29c-0.14,0.21-1.03,1.45-2.65,3.71c0.28,0,0.56-0.07,0.85-0.21
		c0.71-0.42,1.7-1.17,2.97-2.23c0.49-0.42,0.92-0.71,1.27-0.85c0.28-0.07,0.48-0.03,0.58,0.11c0.11,0.14,0.12,0.32,0.05,0.53
		c-0.14,0.35-0.46,0.74-0.95,1.17c-1.48,1.27-2.9,2.26-4.24,2.97c-0.07,0.07-0.16,0.12-0.27,0.16c-0.11,0.04-0.2,0.09-0.26,0.16
		c-0.28,0.14-0.41,0.26-0.37,0.37c0.03,0.11,0.16,0.23,0.37,0.37c0.21,0.07,0.39,0.14,0.53,0.21c0.92,0.28,2,0.27,3.23-0.05
		c1.24-0.32,2.17-0.9,2.81-1.75c0.92-1.27,1.59-2.83,2.01-4.67c0.78-3.25,0.71-7.53-0.21-12.83c-0.07-0.49-0.35-0.6-0.85-0.32
		c-0.64,0.28-1.95,0.99-3.92,2.12c-2.83,1.63-4.67,2.76-5.51,3.39c-1.48,1.13-2.47,2.48-2.97,4.03
		C735.29,21.19,735.44,23.34,736.57,25.32z"/>
	<path class="st0" d="M805.27,48.12c0.42,0.21,0.64,0.74,0.64,1.59c-0.07,4.45-0.5,8.63-1.27,12.51c-0.57,2.9-2.01,5.23-4.35,7
		c-2.05,1.56-4.24,2.05-6.57,1.49c-1.7-0.42-2.65-1.52-2.86-3.29l-0.11-0.32c-0.07-0.57-0.16-0.88-0.26-0.95
		c-0.11-0.07-0.44,0.07-1.01,0.42c-2.26,1.27-4.56,1.91-6.89,1.91c-0.42,0-0.78,0.25-1.06,0.74c-1.42,2.62-3.01,5.23-4.77,7.85
		c-0.85,1.2-1.59,2.09-2.23,2.65c-0.64,0.64-1.1,0.78-1.38,0.42c-0.35-0.35-0.25-0.85,0.32-1.48c1.91-2.12,4.06-5.34,6.47-9.65
		c0.28-0.56,0.42-0.92,0.42-1.06s-0.21-0.46-0.64-0.96c-1.34-1.55-2.44-3.25-3.29-5.09c-0.28-0.42-0.5-0.67-0.64-0.74
		c-0.78,0.85-1.17,1.31-1.17,1.38c-1.06,0.99-2.17,1.42-3.34,1.27c-1.17-0.14-2.14-0.81-2.92-2.01c-0.71-1.06-1.31-2.44-1.8-4.13
		c-0.71-2.33-1.17-3.89-1.38-4.67c-0.57-1.98-1.31-3.85-2.23-5.62c-0.21-0.42-0.35-0.78-0.42-1.06c-0.35-0.99,0.04-1.52,1.17-1.59
		c0.35,0,0.78,0.04,1.27,0.11c5.73,1.2,9.26,1.98,10.6,2.33c2.12,0.71,3.75,1.52,4.88,2.44c1.7,1.27,2.65,2.69,2.86,4.24
		c0.14,1.42-0.32,2.69-1.38,3.82s-2.3,1.7-3.71,1.7h-0.53c-0.21-0.07-0.37-0.05-0.48,0.05c-0.11,0.11-0.12,0.26-0.05,0.48
		c0.78,2.12,1.94,4.1,3.5,5.94c0.35,0.42,0.64,0.39,0.85-0.11c0.92-2.05,1.55-3.53,1.91-4.45c2.05-5.44,3.39-10.74,4.03-15.9v-0.21
		c0.14-0.64,0.16-1.06,0.05-1.27c-0.11-0.21-0.51-0.39-1.22-0.53c-1.2-0.21-2.37-0.78-3.5-1.7c-0.5-0.35-0.85-0.56-1.06-0.64
		c-0.07,0.14-0.12,0.28-0.16,0.42c-0.04,0.14-0.07,0.3-0.11,0.48c-0.04,0.18-0.09,0.3-0.16,0.37c-0.42,1.34-1.18,2.23-2.28,2.65
		c-1.1,0.42-2.25,0.32-3.45-0.32c-0.85-0.49-1.66-1.2-2.44-2.12c-0.28-0.42-1.06-1.63-2.33-3.61c-1.27-2.05-2.65-3.78-4.13-5.2
		c-1.27-1.2-1.06-2.08,0.64-2.65c3.04-0.92,6.01-1.24,8.91-0.96c2.33,0.21,3.57,0.35,3.71,0.42c1.48,0.35,2.65,0.81,3.5,1.38
		c0.78,0.57,1.31,1.31,1.59,2.23c0.28,0.92,0.28,1.84,0,2.76c-0.35,0.99-0.95,1.66-1.8,2.01c-0.35,0.21-0.6,0.39-0.74,0.53
		c1.27,1.42,2.76,2.3,4.45,2.65c0.49,0.07,0.78-0.14,0.85-0.64l0.11-2.23c-0.14-4.67-0.85-8.66-2.12-11.98
		c-0.07-0.28-0.14-0.46-0.21-0.53c-0.07-0.28-0.25-0.32-0.53-0.11c-0.07,0-0.21,0.11-0.42,0.32c-0.85,0.71-1.75,1.01-2.7,0.9
		s-1.79-0.62-2.49-1.54c-0.78-0.99-1.31-2.16-1.59-3.5c-0.35-1.2-0.85-3.22-1.49-6.04c-0.57-2.26-1.31-4.21-2.23-5.83
		c-0.14-0.21-0.21-0.39-0.21-0.53c-0.35-0.92-0.07-1.38,0.85-1.38c0.21,0,0.39,0,0.53,0c5.37,1.2,9.33,2.69,11.88,4.45
		c2.19,1.56,3.61,3.54,4.24,5.94c0.35,1.2,0.12,2.42-0.69,3.66c-0.81,1.24-1.89,1.86-3.23,1.86c-0.42,0-0.67,0.05-0.74,0.16
		c-0.07,0.11-0.04,0.41,0.11,0.9c0.92,2.47,1.59,4.88,2.01,7.21c0.28,1.91,0.42,4.45,0.42,7.63c0,0.35,0.07,0.6,0.21,0.74
		c1.48-0.57,2.79-1.48,3.92-2.76c-0.07-0.28-0.28-0.46-0.64-0.53c-1.42-0.21-2.37-0.95-2.86-2.23c-0.5-1.27-0.25-2.65,0.74-4.14
		c0.71-1.06,1.63-1.87,2.76-2.44c1.7-0.78,2.93-1.34,3.71-1.7c1.84-0.78,3.57-1.87,5.2-3.29c0.42-0.35,0.78-0.64,1.06-0.85
		c0.78-0.49,1.31-0.28,1.59,0.64c0.07,0.35,0.11,0.81,0.11,1.38c0.35,4.67,0.18,8.17-0.53,10.5c-0.5,1.7-1.24,3.11-2.23,4.24
		c-0.78,0.92-1.77,1.52-2.97,1.8c-1.77,0.28-3.01-0.35-3.71-1.91c-0.28-0.49-0.42-0.78-0.42-0.85c-0.14,0-0.39,0.14-0.74,0.42
		c-1.34,1.41-2.76,2.44-4.24,3.07c-0.71,0.28-1.13,0.88-1.27,1.8c-0.42,3.54-1.03,6.82-1.8,9.86c-0.99,3.6-2.26,7.25-3.82,10.92
		c-0.28,0.64-0.37,1.03-0.27,1.17c0.11,0.14,0.48,0.18,1.11,0.11c1.84-0.21,3.5-0.81,4.98-1.8c-0.07-0.21-0.35-0.39-0.85-0.53
		c-1.13-0.42-1.8-1.27-2.01-2.54c-0.28-2.12,0.46-3.92,2.23-5.41c0.85-0.71,2.3-1.41,4.35-2.12c0.14-0.07,0.64-0.27,1.48-0.58
		c0.85-0.32,1.52-0.55,2.01-0.69c2.61-0.99,5.05-2.47,7.32-4.45C804.32,48.08,804.85,47.91,805.27,48.12z M774.1,61.16
		c0.21-0.35,0.28-0.6,0.21-0.74c-0.07-0.14-0.28-0.21-0.64-0.21c-1.48,0-2.54-0.74-3.18-2.23c-0.35-0.71-0.74-1.63-1.17-2.76
		c-0.71-2.19-1.34-3.78-1.91-4.77c-0.85-1.48-1.7-2.54-2.54-3.18c-0.07,0.14-0.07,0.32,0,0.53c0.78,1.77,1.52,3.82,2.23,6.15
		c0.28,0.99,0.78,2.62,1.48,4.88c0.21,0.57,0.6,1.34,1.17,2.33c0.56,0.78,1.29,1.15,2.17,1.11
		C772.81,62.24,773.53,61.87,774.1,61.16z M774.53,48.44c-0.99-0.28-3.22-0.78-6.68-1.48c0.85,0.78,1.7,1.34,2.54,1.7
		c0.57,0.21,1.38,0.48,2.44,0.8c1.06,0.32,1.77,0.51,2.12,0.58c1.41,0.5,2.51,1.2,3.29,2.12c1.41,1.63,1.45,3.25,0.11,4.88
		c-0.35,0.42-0.53,0.71-0.53,0.85c1.34,0.28,2.47-0.18,3.39-1.38c0.85-1.06,1.02-2.19,0.53-3.39c-0.5-1.06-1.34-1.94-2.54-2.65
		C777.99,49.67,776.43,49,774.53,48.44z M773.78,58.83c0.92,0,1.27-0.46,1.06-1.38c-0.71-2.47-2.51-4.77-5.41-6.89h-0.21
		c-0.07,0.07-0.07,0.21,0,0.42c1.06,2.83,1.7,4.6,1.91,5.3c0.21,0.5,0.46,0.99,0.74,1.48C772.3,58.4,772.93,58.76,773.78,58.83z
		 M779.93,42.18c0.28-0.64,0.11-0.92-0.53-0.85c-1.2,0.07-2.33-0.42-3.39-1.48c-0.78-0.71-1.45-1.38-2.01-2.01
		c-0.92-1.13-2.33-2.26-4.24-3.39v0.32c0.71,0.85,1.98,2.72,3.82,5.62c0.85,1.42,1.8,2.4,2.86,2.97c0.71,0.35,1.41,0.42,2.12,0.21
		C779.26,43.35,779.72,42.89,779.93,42.18z M779.3,32.96c1.13,0.5,1.89,1.11,2.28,1.86c0.39,0.74,0.48,1.75,0.27,3.02
		c0.99-0.21,1.63-0.72,1.91-1.54c0.28-0.81,0.14-1.61-0.42-2.39c-0.71-0.99-1.8-1.63-3.29-1.91c-2.4-0.42-4.77-0.57-7.1-0.42
		c-1.34,0.14-2.19,0.28-2.54,0.42c0.92,0.14,2.58,0.21,4.98,0.21C776.71,32.14,778.02,32.39,779.3,32.96z M776.43,56.71
		c0.57-0.28,0.97-0.72,1.22-1.33c0.25-0.6,0.25-1.17,0-1.7c-0.25-0.53-0.62-0.97-1.11-1.33c-1.13-0.78-2.69-1.34-4.67-1.7
		c0.92,0.99,1.38,1.52,1.38,1.59c1.27,1.34,2.12,2.65,2.54,3.92C776.01,56.67,776.22,56.85,776.43,56.71z M777.18,39.21
		c0.49,0.42,1.06,0.64,1.7,0.64c0.35-0.07,0.57-0.21,0.64-0.42c0.07-0.28-0.04-0.53-0.32-0.74c-1.98-1.7-3.82-2.86-5.51-3.5
		c-0.07,0-0.14,0.07-0.21,0.21C775.66,37.66,776.89,38.93,777.18,39.21z M780.57,36.88c0.14-0.42,0.14-0.81,0-1.17
		c-0.21-0.49-0.57-0.85-1.06-1.06c-1.56-0.92-3.32-1.24-5.3-0.95c0.14,0.21,0.46,0.42,0.95,0.64c1.34,0.64,2.54,1.38,3.61,2.23
		c0.35,0.28,0.6,0.46,0.74,0.53C779.93,37.37,780.29,37.3,780.57,36.88z M783.54,25.96c0.28-0.21,0.42-0.39,0.42-0.53
		c0-0.14-0.21-0.28-0.64-0.42c-1.27-0.35-2.19-1.24-2.76-2.65c-0.21-0.64-0.39-1.38-0.53-2.23c-0.21-1.63-0.6-3.18-1.17-4.67
		c-0.64-1.48-1.48-2.65-2.54-3.5c0.35,0.99,1.17,4.07,2.44,9.22c0.28,1.27,0.64,2.33,1.06,3.18c0.28,0.64,0.6,1.13,0.95,1.48
		C781.7,26.63,782.62,26.66,783.54,25.96z M780.14,11.85c-0.28-0.14-0.53-0.11-0.74,0.11c0.28,0.21,0.74,0.5,1.38,0.85
		c2.05,1.06,3.07,1.63,3.07,1.7c1.7,0.99,2.93,2.37,3.71,4.13c0.71,1.56,0.64,2.97-0.21,4.24c-0.21,0.21-0.28,0.39-0.21,0.53
		c0.64,0,1.17-0.14,1.59-0.42c1.13-0.92,1.45-2.19,0.95-3.82c-0.42-1.48-1.2-2.69-2.33-3.61C785.59,14.08,783.18,12.85,780.14,11.85
		z M784.17,23.62c0.14-0.14,0.18-0.42,0.11-0.85c-0.5-2.12-1.48-4.17-2.97-6.15c-0.21-0.28-0.42-0.39-0.64-0.32
		c0.42,1.7,0.67,2.86,0.74,3.5c0.14,0.85,0.35,1.63,0.64,2.33c0.28,0.64,0.67,1.1,1.17,1.38C783.64,23.8,783.96,23.84,784.17,23.62z
		 M785.66,22.35c0.71-0.78,0.96-1.59,0.74-2.44c-0.35-1.27-1.1-2.4-2.23-3.39c-0.64-0.57-1.2-0.88-1.7-0.96
		C784.1,17.97,785.16,20.23,785.66,22.35z M789.9,62.43c0.14-1.7,0.99-3.04,2.54-4.03c0.57-0.28,1.34-0.6,2.33-0.96
		c2.19-0.71,3.96-1.59,5.3-2.65c0.78-0.71,1.73-1.87,2.86-3.5h-0.32c-0.28,0.14-0.53,0.28-0.74,0.42c-1.7,1.2-3.54,2.16-5.51,2.86
		c-0.42,0.14-1.11,0.37-2.07,0.69c-0.95,0.32-1.68,0.58-2.17,0.79c-1.42,0.5-2.51,1.13-3.29,1.91c-0.78,0.78-1.2,1.73-1.27,2.86
		c0,1.2,0.49,1.95,1.48,2.23C789.62,63.28,789.9,63.07,789.9,62.43z M792.76,35.82c-0.14-1.2,0.32-2.23,1.38-3.08
		c0.14-0.07,0.46-0.25,0.96-0.53c2.47-1.48,4.1-2.54,4.88-3.18c0.85-0.64,1.45-1.34,1.8-2.12c-1.63,0.99-2.51,1.52-2.65,1.59
		c-1.27,0.57-2.76,1.24-4.45,2.01c-1.13,0.5-2.01,1.13-2.65,1.91c-0.71,0.78-1.01,1.64-0.9,2.6s0.65,1.5,1.64,1.64
		C792.83,36.6,792.83,36.31,792.76,35.82z M791.6,62.86c0.28,0.28,0.78,0.21,1.48-0.21c1.77-0.99,3.36-2.08,4.77-3.29
		c1.41-1.2,2.33-2.26,2.76-3.18c-0.71,0.5-1.59,0.99-2.65,1.49c-0.5,0.28-1.24,0.6-2.23,0.95c-0.99,0.35-1.59,0.57-1.8,0.64
		c-1.13,0.42-1.87,1.06-2.23,1.91C791.28,61.94,791.24,62.5,791.6,62.86z M804,56.28l0.11-2.12c-0.35,0.64-0.71,1.66-1.06,3.08
		c-0.57,2.76-1.03,4.67-1.38,5.73c-0.71,1.91-1.59,3.32-2.65,4.24c-0.85,0.78-1.8,1.17-2.86,1.17c-1.06,0-2.01-0.39-2.86-1.17
		c-0.28-0.28-0.67-0.74-1.17-1.38c-0.14,2.19,0.74,3.36,2.65,3.5c1.34,0.14,2.61-0.14,3.82-0.85c2.19-1.27,3.64-3.22,4.35-5.83
		C803.37,61.23,803.72,59.11,804,56.28z M801.14,58.4c-0.21,0.21-0.53,0.5-0.96,0.85c-0.42,0.35-0.74,0.6-0.95,0.74
		c-0.64,0.71-1.27,1.27-1.91,1.7c-1.56,1.06-2.69,1.84-3.39,2.33c-0.5,0.28-0.67,0.57-0.53,0.85c0.42,0.85,1.02,1.43,1.8,1.75
		c0.78,0.32,1.55,0.23,2.33-0.26c0.71-0.42,1.27-1.02,1.7-1.8C800.22,62.79,800.86,60.74,801.14,58.4z M795.41,36.35
		c1.91-1.77,3.29-3.36,4.14-4.77c-0.07,0-0.14-0.07-0.21-0.21c-2.26,1.34-3.71,2.23-4.35,2.65c-0.07,0-0.21,0.11-0.42,0.32
		c-0.35,0.42-0.42,0.99-0.21,1.7C794.57,36.67,794.92,36.77,795.41,36.35z M802.84,31.79c0,1.41-0.25,2.79-0.74,4.13
		c-0.92,2.54-2.69,3.61-5.3,3.18c0.21,1.06,0.74,1.63,1.59,1.7c0.85,0,1.59-0.28,2.23-0.85c0.92-0.78,1.7-2.05,2.33-3.82
		c0.78-2.19,0.99-4.77,0.64-7.74C803.08,29.32,802.84,30.45,802.84,31.79z M801.25,31.89c-1.77,2.33-3.11,3.92-4.03,4.77
		c-0.35,0.42-0.26,0.76,0.27,1.01c0.53,0.25,1.11,0.12,1.75-0.37c0.57-0.42,0.99-0.99,1.27-1.7c0.28-0.71,0.46-1.25,0.53-1.64
		C801.1,33.57,801.17,32.89,801.25,31.89z"/>
	<path class="st0" d="M847.79,46.1c0.07,0.14,0.07,0.28,0,0.42c-1.13,5.73-4.38,8.59-9.75,8.59c-0.71,0-1.66-0.18-2.86-0.53
		c-0.64-0.21-1.01-0.28-1.11-0.21c-0.11,0.07-0.23,0.39-0.37,0.95c-0.71,2.9-1.63,5.97-2.76,9.22c-2.12,5.94-4.81,10.89-8.06,14.84
		c-0.21,0.21-0.46,0.48-0.74,0.79c-0.28,0.32-0.46,0.55-0.53,0.69c-0.21,0.28-0.46,0.5-0.74,0.64c-0.42,0.14-0.71,0.14-0.85,0
		c-0.21-0.28-0.21-0.6,0-0.95c0.14-0.21,0.32-0.42,0.53-0.64c3.11-3.46,5.73-7.74,7.85-12.83c1.34-3.39,2.54-7.1,3.6-11.13
		c0-0.07,0.07-0.42,0.21-1.06c-0.14-0.14-0.32-0.21-0.53-0.21c-3.6,0.21-6.47-1.34-8.59-4.67c-0.78-1.13-1.38-2.69-1.8-4.67
		c-0.14-0.57-0.07-0.99,0.21-1.27c0.35-0.21,0.78-0.21,1.27,0c0.71,0.35,2.44,1.03,5.2,2.01c2.12,0.78,3.67,1.84,4.67,3.18
		c0.14,0.14,0.32,0.21,0.53,0.21c0.42-2.47,0.64-4.56,0.64-6.26c0-0.42-0.25-0.57-0.74-0.42c-0.92,0.42-1.42,0.64-1.48,0.64
		c-1.98,0.5-3.94,0.2-5.88-0.9c-1.95-1.09-3.2-2.6-3.76-4.51c-0.35-1.27,0.11-1.87,1.38-1.8c2.54,0.07,4.81,0.14,6.79,0.21
		c1.34,0.07,2.44,0.46,3.29,1.17c0.14,0.14,0.32,0.18,0.53,0.11c0.07-0.28,0.07-0.88,0-1.8c-0.07-0.99-0.21-2.23-0.42-3.71
		c-0.07-0.42-0.16-0.67-0.26-0.74c-0.11-0.07-0.34,0.04-0.69,0.32c-0.07,0-0.21,0.07-0.42,0.21c-3.18,1.91-6.43,2.01-9.75,0.32
		c-2.12-1.13-3.89-2.79-5.3-4.98l-0.21-0.32c-0.5-0.99-0.25-1.63,0.74-1.91c4.24-0.92,6.61-1.41,7.1-1.48
		c1.34-0.07,2.76,0.21,4.24,0.85c0.07,0.07,0.92,0.5,2.54,1.27c-0.21-0.85-0.57-1.66-1.06-2.44c-0.07-0.21-0.25-0.32-0.53-0.32
		c-0.14-0.07-0.32-0.12-0.53-0.16c-0.21-0.04-0.35-0.05-0.42-0.05c-3.18-0.49-5.66-2.16-7.42-4.98c-0.5-0.85-1.26-2.19-2.28-4.03
		c-1.03-1.84-1.82-3.21-2.39-4.13c-0.35-0.57-0.41-1.04-0.16-1.43c0.25-0.39,0.69-0.58,1.33-0.58c3.89,0.35,7.07,1.42,9.54,3.18
		c2.12,1.56,3.61,3.75,4.45,6.57c0.42,1.27,0.42,2.58,0,3.92c-0.21,0.71-0.14,1.34,0.21,1.91c0,0.14,0.32,0.85,0.96,2.12
		c0.21-0.07,0.39-0.28,0.53-0.64c0.78-1.63,2.08-3.04,3.92-4.24c4.17-2.97,6.29-4.45,6.36-4.45c1.06-0.92,1.73-0.67,2.01,0.74
		c0.57,2.54,0.28,4.91-0.85,7.1c-1.98,3.96-5.09,6.04-9.33,6.26c-0.5,0-0.79,0.05-0.9,0.16c-0.11,0.11-0.12,0.41-0.05,0.9
		c0.35,2.12,0.56,3.82,0.64,5.09h0.32c0.99-1.13,2.51-2.08,4.56-2.86c1.7-0.64,3.18-1.45,4.45-2.44c0.28-0.21,0.46-0.32,0.53-0.32
		c0.85-0.49,1.38-0.28,1.59,0.64c0.07,0.28,0.11,0.5,0.11,0.64c-0.07,2.54-0.79,4.7-2.17,6.47c-1.38,1.77-3.23,2.86-5.57,3.29
		c-0.78,0.14-1.8,0.18-3.08,0.11c-0.5,0-0.74,0.18-0.74,0.53c-0.07,0.71-0.28,2.9-0.64,6.57h0.32c1.2-0.78,3.08-1.38,5.62-1.8
		c1.98-0.42,3.67-0.95,5.09-1.59c0.28-0.14,0.53-0.25,0.74-0.32C847.33,45.01,847.72,45.33,847.79,46.1z"/>
	<path class="st0" d="M885.54,21.29c0.42,0.28,0.71,0.69,0.85,1.22c0.14,0.53,0.11,1.01-0.11,1.43c-0.42,0.99-1.1,1.48-2.01,1.48
		c-0.64-0.07-1.24,0.18-1.8,0.74c-2.05,1.77-4.74,2.86-8.06,3.29c-0.57,0.07-0.92,0.16-1.06,0.26c-0.14,0.11-0.28,0.44-0.42,1.01
		c-0.14,0.42-0.67,2.4-1.59,5.94c-0.07,0.35-0.07,0.6,0,0.74c0.07,0.07,0.32-0.03,0.74-0.32c0.07,0,0.39-0.19,0.95-0.58
		c0.56-0.39,1.02-0.65,1.38-0.79c0.71-0.35,1.13-0.78,1.27-1.27c0.14-0.49,0.53-0.95,1.17-1.38c0.71-0.42,1.38-0.39,2.01,0.11
		c0.78,0.64,1.02,1.38,0.74,2.23c-0.21,0.64-0.62,1.11-1.22,1.43c-0.6,0.32-1.18,0.37-1.75,0.16c-0.57-0.21-1.1-0.18-1.59,0.11
		c-1.34,0.71-2.54,1.56-3.61,2.54c-0.64,0.57-1.06,1.31-1.27,2.23c-0.71,3.68-1.38,7.63-2.01,11.88c0,0.21,0,0.42,0,0.64
		c0,0.42,0.21,0.53,0.64,0.32c0.07,0,0.18-0.03,0.32-0.11c3.11-1.55,5.37-3.67,6.79-6.36c0-0.07,0.09-0.26,0.26-0.58
		c0.18-0.32,0.3-0.55,0.37-0.69c0.49-0.92,0.57-1.73,0.21-2.44c-0.28-0.49-0.25-1.06,0.11-1.7c0.49-0.92,1.2-1.31,2.12-1.17
		c0.85,0.07,1.38,0.57,1.59,1.48c0.35,1.13,0.11,1.87-0.74,2.23c-0.28,0.14-0.51,0.3-0.69,0.48c-0.18,0.18-0.35,0.39-0.53,0.64
		c-0.18,0.25-0.3,0.44-0.37,0.58c-0.07,0.14-0.2,0.37-0.37,0.69c-0.18,0.32-0.3,0.55-0.37,0.69c-1.42,2.9-3.71,5.27-6.89,7.1
		l-0.74,0.42c0.85,0.28,1.86,0.32,3.02,0.11s2.03-0.6,2.6-1.17c0.28-0.21,0.46-0.53,0.53-0.96c0-0.56,0.18-1.06,0.53-1.48
		c0.64-0.92,1.41-1.24,2.33-0.95c1.06,0.28,1.63,0.99,1.7,2.12c0,0.99-0.28,1.71-0.85,2.17c-0.57,0.46-1.34,0.58-2.33,0.37
		c-0.42-0.14-0.81-0.07-1.17,0.21c-2.26,1.34-4.63,1.73-7.1,1.17c-0.28-0.07-0.46-0.11-0.53-0.11c-0.57,0-0.88,0.27-0.95,0.8
		c-0.07,0.53-0.14,1.18-0.21,1.96c-0.21,3.54-0.28,6.29-0.21,8.27c0,0.28,0,0.5,0,0.64c0.14,0.64,0.46,0.74,0.95,0.32
		c1.48-1.13,2.51-2.3,3.08-3.5c0.28-0.71,0.25-1.27-0.11-1.7c-0.42-0.49-0.57-1.17-0.42-2.01c0.07-0.64,0.37-1.13,0.9-1.48
		c0.53-0.35,1.08-0.49,1.64-0.42c0.57,0.14,1.01,0.5,1.33,1.06c0.32,0.57,0.41,1.17,0.27,1.8c-0.21,0.64-0.6,1.13-1.17,1.48
		c-0.42,0.28-0.71,0.64-0.85,1.06c-0.78,2.19-2.26,3.92-4.45,5.2c-0.64,0.35-0.92,0.92-0.85,1.7c0.07,0.57,0.19,1.38,0.37,2.44
		c0.18,1.06,0.26,1.84,0.26,2.33c0.07,0.5,0.07,0.88,0,1.17c-0.28,0.64-0.64,0.67-1.06,0.11c-0.21-0.35-0.35-0.81-0.42-1.38
		c-0.21-1.27-0.46-3.22-0.74-5.83c-0.21-1.49-0.32-3.75-0.32-6.79c0.07-0.57-0.11-1.06-0.53-1.48c-2.05-1.91-3.43-4.24-4.14-7
		c-0.28-0.85-0.42-1.48-0.42-1.91c-0.14-1.06-0.57-1.84-1.27-2.33c-0.78-0.49-0.99-1.27-0.64-2.33c0.35-0.99,1.02-1.59,2.01-1.8
		c0.78-0.14,1.45,0.18,2.01,0.95c0.64,0.92,0.6,1.8-0.11,2.65c-0.57,0.71-0.74,1.66-0.53,2.86c0.49,2.69,1.52,4.95,3.08,6.79
		c0.28,0.28,0.46,0.46,0.53,0.53c0.14-0.07,0.21-0.21,0.21-0.42c0.21-2.83,0.67-6.61,1.38-11.35c0.14-0.78-0.11-1.38-0.74-1.8
		c-2.26-1.55-3.82-3.85-4.67-6.89c-0.21-0.78-0.6-1.31-1.17-1.59c-1.06-0.64-1.31-1.45-0.74-2.44c0.28-0.49,0.69-0.8,1.22-0.9
		c0.53-0.11,1.04-0.02,1.54,0.26c1.2,0.64,1.45,1.48,0.74,2.54c-0.42,0.5-0.5,1.17-0.21,2.01c0.28,0.85,0.67,1.7,1.17,2.54
		c0.28,0.57,0.56,0.57,0.85,0c0.21-0.49,0.42-1.24,0.64-2.23c0.14-0.42,0-0.85-0.42-1.27c-0.42-0.42-0.64-0.88-0.64-1.38
		c0.07-0.85,0.46-1.41,1.17-1.7c0.57-0.28,1.13-0.18,1.7,0.32c0.85,0.71,1.02,1.38,0.53,2.01c-0.35,0.5-0.67,1.27-0.95,2.33
		c-0.28,1.06-0.46,1.7-0.53,1.91c-0.07,0.14-0.18,0.34-0.32,0.58c-0.14,0.25-0.21,0.41-0.21,0.48c-0.28,0.57-0.35,0.95-0.21,1.17
		c0.49,0.57,0.95,0.92,1.38,1.06c0.21,0.07,0.35-0.04,0.42-0.32c0.14-0.35,0.21-0.71,0.21-1.06c0.42-2.4,1.17-5.79,2.23-10.18
		c0.14-0.42,0.18-0.74,0.11-0.95c-0.07-0.21-0.42-0.42-1.06-0.64c-1.34-0.42-2.76-1.48-4.24-3.18c-0.5-0.57-0.95-0.81-1.38-0.74
		c-0.07,0.07-0.18,0.07-0.32,0c-0.57-0.14-1.01-0.42-1.33-0.85c-0.32-0.42-0.42-0.88-0.32-1.38c0.11-0.49,0.35-0.88,0.74-1.17
		c0.39-0.28,0.87-0.39,1.43-0.32c0.56,0.07,1.02,0.28,1.38,0.64c0.35,0.35,0.49,0.81,0.42,1.38c-0.07,0.64,0.17,1.27,0.74,1.91
		c0.99,0.99,1.8,1.59,2.44,1.8c0.07-0.14,0.03-0.32-0.11-0.53c-0.71-1.41-1.24-3-1.59-4.77c-0.14-0.64-0.39-1.06-0.74-1.27
		c-0.57-0.35-0.92-0.81-1.06-1.38c-0.21-0.78-0.04-1.41,0.53-1.91c0.64-0.57,1.31-0.71,2.01-0.42c0.64,0.28,1.06,0.76,1.27,1.43
		c0.21,0.67,0.11,1.29-0.32,1.86c-0.35,0.42-0.46,0.99-0.32,1.7c0.35,1.42,0.78,2.69,1.27,3.82c0.28,0.64,0.64,1.13,1.06,1.48
		c0.21-0.07,0.39-0.39,0.53-0.96c0.64-2.4,1.38-4.7,2.23-6.89c0.21-0.57,0.21-1.02,0-1.38c-0.92-1.27-1.52-2.97-1.8-5.09
		c-0.14-0.64-0.46-1.13-0.95-1.48c-0.71-0.42-1.1-1.04-1.17-1.86c-0.07-0.81,0.21-1.5,0.85-2.07c0.64-0.64,1.38-0.81,2.23-0.53
		c0.92,0.28,1.45,0.85,1.59,1.7c0.14,1.06-0.07,1.84-0.64,2.33c-0.5,0.5-0.67,1.17-0.53,2.01c0.28,1.13,0.53,2.01,0.74,2.65
		c0.21,0.5,0.39,0.74,0.53,0.74c0.21,0,0.35-0.11,0.42-0.32c0.14-0.35,0.41-0.97,0.79-1.86c0.39-0.88,0.72-1.54,1.01-1.96
		c0.28-0.64,0.25-1.24-0.11-1.8c-0.85-1.34-0.74-2.58,0.32-3.71c0.99-1.13,2.16-1.38,3.5-0.74c1.41,0.71,2.01,1.8,1.8,3.29
		c-0.07,0.71-0.35,1.31-0.85,1.8c-0.5,0.5-1.1,0.78-1.8,0.85c-0.85,0.07-1.45,0.5-1.8,1.27c-1.34,2.97-2.58,6.12-3.71,9.44
		c-0.14,0.35-0.16,0.58-0.05,0.69c0.11,0.11,0.37,0.16,0.79,0.16c0.28-0.07,0.57-0.14,0.85-0.21c0.56-0.07,0.9-0.18,1.01-0.32
		c0.11-0.14,0.19-0.49,0.27-1.06c0.07-0.57,0.25-1.2,0.53-1.91c0.21-0.64,0.17-1.24-0.11-1.8c-0.28-0.64-0.25-1.24,0.11-1.8
		c0.56-0.78,1.2-1.1,1.91-0.95c0.92,0.07,1.47,0.58,1.64,1.54c0.18,0.95-0.12,1.61-0.9,1.96c-0.71,0.28-1.24,1.13-1.59,2.54
		c-0.07,0.36-0.05,0.58,0.05,0.69c0.11,0.11,0.3,0.09,0.58-0.05c1.2-0.49,2.19-1.17,2.97-2.01c0.21-0.28,0.32-0.71,0.32-1.27
		c0-0.71,0.25-1.27,0.74-1.7C883.88,20.94,884.69,20.8,885.54,21.29z"/>
	<path class="st0" d="M933.79,7.29c0.42,0.28,0.6,0.67,0.53,1.17c-0.42,3.39-0.67,5.27-0.74,5.62c-0.28,1.63-1.03,2.93-2.23,3.92
		c-1.2,0.99-2.65,1.45-4.35,1.38c-0.57,0-1.03,0.14-1.38,0.42c-0.78,0.64-1.66,1.71-2.65,3.23c-0.99,1.52-1.63,2.81-1.91,3.87
		c1.06-0.64,3.53-1.7,7.42-3.18c0.07,0,0.21-0.04,0.42-0.11c0.64-0.28,1.09-0.21,1.38,0.21c0.21,0.28,0.11,0.71-0.32,1.27
		c-2.12,2.54-3.75,4.28-4.88,5.2c-1.84,1.34-3.71,1.87-5.62,1.59c-0.5-0.14-0.85,0.07-1.06,0.64c-0.57,1.34-1.27,3.25-2.12,5.73
		c-0.14,0.35-0.04,0.95,0.32,1.8c1.2,3.46,2.16,7.17,2.86,11.13c0.49,3.04,0.85,6.29,1.06,9.75c0.14,1.34,0.28,4.1,0.42,8.27
		c0.07,0.78,0,1.45-0.21,2.01c-0.14,0.42-0.35,0.62-0.64,0.58c-0.28-0.04-0.46-0.27-0.53-0.69c0-0.28-0.04-0.74-0.11-1.38
		c-0.14-8.83-0.85-16.12-2.12-21.84c-0.14-0.64-0.6-2.33-1.38-5.09c-0.14-0.49-0.32-0.85-0.53-1.06c-0.35,0.85-0.71,2.3-1.06,4.35
		c-0.64,3.68-1.1,7.99-1.38,12.94c-0.14,3.68-0.18,7.56-0.11,11.66c0.07,3.89,0.35,7.14,0.85,9.75c0.07,0.57,0.07,0.95,0,1.17
		c-0.21,0.64-0.53,0.71-0.96,0.21c-0.21-0.21-0.35-0.53-0.42-0.95c-0.35-1.41-0.6-3.04-0.74-4.88c-0.28-4.38-0.35-9.65-0.21-15.8
		c0.28-6.64,0.99-12.47,2.12-17.5c0.28-1.06,0.57-2.08,0.85-3.08c0.14-0.64,0.11-1.24-0.11-1.8c-1.06-2.62-2.3-5.05-3.71-7.32
		c-0.28-0.57-0.67-0.74-1.17-0.53c-0.92,0.21-1.98,0.18-3.18-0.11c-0.78-0.21-1.86-0.56-3.23-1.06c-1.38-0.49-2.39-0.81-3.02-0.95
		c-0.28-0.14-0.5-0.32-0.64-0.53c-0.28-0.42-0.21-0.74,0.21-0.95c0.21-0.14,0.39-0.21,0.53-0.21c0.21,0,0.69-0.05,1.43-0.16
		c0.74-0.11,1.25-0.16,1.54-0.16c0.28,0,0.71,0,1.27,0c0.57,0,1.08,0.04,1.54,0.11c0.46,0.07,0.9,0.21,1.33,0.42h0.21
		c-0.5-1.41-1.42-2.16-2.76-2.23c-1.2-0.07-2.4-0.74-3.61-2.01c-0.28-0.28-0.69-0.76-1.22-1.43c-0.53-0.67-0.83-1.04-0.9-1.11
		c-0.21-0.21-0.48-0.51-0.8-0.9c-0.32-0.39-0.55-0.69-0.69-0.9c-0.28-0.35-0.35-0.67-0.21-0.95c0.21-0.35,0.49-0.49,0.85-0.42
		c3.18,0.64,5.44,1.52,6.79,2.65c1.06,0.92,1.59,1.98,1.59,3.18c0.07,0.42,0.21,0.74,0.42,0.95c1.48,1.56,2.9,3.36,4.24,5.41
		l0.42,0.32c0.42-1.84,0.71-3.32,0.85-4.45c0-0.07,0.07-0.92,0.21-2.54v-0.21c0.07-0.49,0.32-0.74,0.74-0.74
		c0.42-0.07,0.67,0.11,0.74,0.53c1.13,3.89,1.63,6.72,1.48,8.48c-0.14,1.34-0.53,2.37-1.17,3.08c-0.35,0.35-0.39,0.74-0.11,1.17
		c0,0.07,0.28,0.67,0.85,1.8c0.21,0,0.35-0.18,0.42-0.53c0.92-2.54,2.05-5.27,3.39-8.17c0.28-0.64,0.41-1.01,0.37-1.11
		c-0.04-0.11-0.27-0.37-0.69-0.79c-1.13-1.06-1.7-2.37-1.7-3.92c-0.07-1.55-0.07-2.9,0-4.03c0.14-1.77,0.18-3,0.11-3.71
		c0-0.28,0.04-0.53,0.11-0.74c0.21-0.64,0.56-0.74,1.06-0.32c0.21,0.14,0.46,0.46,0.74,0.95c1.77,2.83,2.72,5.44,2.86,7.85
		c0.14-0.07,0.27-0.14,0.37-0.21c0.11-0.07,0.21-0.17,0.32-0.32c0.11-0.14,0.16-0.25,0.16-0.32c0.14-0.14,0.41-0.44,0.79-0.9
		c0.39-0.46,0.72-0.79,1.01-1.01c0.42-0.35,0.6-0.74,0.53-1.17c-0.57-2.76,0.49-5.12,3.18-7.1c0.21-0.14,1.73-1.17,4.56-3.08
		C933.15,7.19,933.5,7.15,933.79,7.29z M904.89,22.56c0.11-0.14,0.12-0.42,0.05-0.85c-0.28-0.71-0.88-1.38-1.8-2.01
		c-0.92-0.64-1.8-0.92-2.65-0.85l-0.11,0.21c0.85,1.2,1.8,2.26,2.86,3.18c0.28,0.21,0.57,0.35,0.85,0.42
		C904.52,22.74,904.79,22.71,904.89,22.56z M904.1,27.55c0.99,0.57,2.16,0.88,3.5,0.95C906.53,27.72,905.37,27.41,904.1,27.55z
		 M913.75,26.49c-0.64,2.33-0.74,4.07-0.32,5.2C914.13,30.41,914.24,28.68,913.75,26.49z M919.15,23.94
		c0.35,0.35,0.64,0.28,0.85-0.21c0.07-0.14,0.11-0.32,0.11-0.53c0.28-2.33-0.28-4.59-1.7-6.79c-0.14,2.97-0.21,4.63-0.21,4.98
		C918.27,22.32,918.59,23.17,919.15,23.94z M924.98,26.81c-2.12,0.85-3.68,1.7-4.67,2.54c-0.42,0.35-0.6,0.62-0.53,0.8
		c0.07,0.18,0.39,0.3,0.96,0.37c0.07,0,0.17,0,0.32,0c1.98-0.42,3.92-1.8,5.83-4.14c0-0.07-0.02-0.12-0.05-0.16
		c-0.04-0.03-0.05-0.09-0.05-0.16C925.66,26.49,925.05,26.74,924.98,26.81z M931.77,14.82c0.35-1.06,0.6-2.83,0.74-5.3
		c-2.33,1.42-3.89,2.54-4.67,3.39c-1.13,1.13-1.59,2.51-1.38,4.13c0.07,0.78,0.46,1.1,1.17,0.96
		C929.83,17.72,931.2,16.66,931.77,14.82z"/>
</g>
</svg>
