<?xml version="1.0" encoding="utf-8"?>
<!-- Generator: Adobe Illustrator 24.0.0, SVG Export Plug-In . SVG Version: 6.00 Build 0)  -->
<svg version="1.1" id="Layer_1" xmlns="http://www.w3.org/2000/svg" xmlns:xlink="http://www.w3.org/1999/xlink" x="0px" y="0px"
	 viewBox="0 0 475 84" style="enable-background:new 0 0 475 84;" xml:space="preserve">
<style type="text/css">
	.st0{fill:#231F20;}
</style>
<g>
	<path class="st0" d="M160.6,17.68c0.92-0.28,1.78-0.14,2.6,0.42c0.81,0.57,1.18,1.34,1.11,2.33c-0.07,1.2-0.71,1.95-1.91,2.23
		c-0.42,0.14-0.67,0.25-0.74,0.32c-0.07,0.07-0.07,0.35,0,0.85c0.21,1.13-0.07,2.05-0.85,2.76c-0.92,0.78-1.87,0.95-2.86,0.53
		c-1.06-0.42-1.63-1.24-1.7-2.44c0-0.64-0.07-0.99-0.21-1.06c-0.14-0.07-0.5,0.07-1.06,0.42c-1.56,0.99-3.32,2.65-5.3,4.98
		c-2.19,2.54-4.35,5.83-6.47,9.86c-0.42,0.85-0.71,1.77-0.85,2.76c-0.07,0.5-0.5,3.11-1.27,7.85c0.21-0.07,0.42-0.28,0.64-0.64
		c1.63-2.61,3.57-5.2,5.83-7.74c1.27-1.41,2.69-2.58,4.24-3.5c0.35-0.28,0.6-0.49,0.74-0.64c0.28-0.35,0.25-0.71-0.11-1.06
		c-0.07,0-0.21-0.07-0.42-0.21c-1.06-0.78-1.54-1.7-1.43-2.76c0.11-1.06,0.55-1.84,1.33-2.33c0.56-0.35,1.13-0.6,1.7-0.74
		c0.71-0.14,1.36-0.02,1.96,0.37c0.6,0.39,1.01,0.94,1.22,1.64c0,0.07,0.03,0.42,0.11,1.06c0.14,0.07,0.27,0.09,0.37,0.05
		c0.11-0.04,0.21-0.11,0.32-0.21c0.11-0.11,0.19-0.16,0.27-0.16c1.34-0.57,2.44-0.32,3.29,0.74c0.85,0.92,0.95,1.91,0.32,2.97
		c-0.35,0.57-0.85,0.92-1.48,1.06c0,0.07-0.28,0.14-0.85,0.21c-0.14,0.07-0.11,0.46,0.11,1.17c0.14,1.13-0.21,2.03-1.06,2.7
		c-0.85,0.67-1.77,0.83-2.76,0.48c-1.13-0.42-1.7-1.31-1.7-2.65c0-0.49-0.04-0.78-0.11-0.85c-0.21-0.07-0.53,0-0.95,0.21
		c-1.48,0.99-3.11,2.48-4.88,4.45c-2.4,2.76-4.74,6.26-7,10.5c-0.5,0.85-0.95,2.4-1.38,4.67c-0.85,4.45-1.42,7.92-1.7,10.39
		c-0.35,3.25-0.5,6.04-0.42,8.38c0,0.64-0.04,1.1-0.11,1.38c-0.14,0.28-0.32,0.42-0.53,0.42s-0.39-0.14-0.53-0.42
		c-0.21-0.35-0.32-0.85-0.32-1.48c-0.07-2.76,0.14-6.01,0.64-9.75c0.28-2.61,0.95-6.5,2.01-11.66c0.07-0.49,0-0.95-0.21-1.38
		c-1.98-3.89-3.78-6.86-5.41-8.91c-2.19-2.76-4.07-4.77-5.62-6.04c-0.42-0.28-0.71-0.49-0.85-0.64c-0.07,0-0.2-0.07-0.37-0.21
		c-0.18-0.14-0.34-0.23-0.48-0.27c-0.14-0.03-0.28-0.05-0.42-0.05c-0.21,0.07-0.34,0.18-0.37,0.32c-0.04,0.14-0.02,0.32,0.05,0.53
		c0.07,0.21,0.07,0.35,0,0.42c-0.07,0.71-0.35,1.29-0.85,1.75c-0.5,0.46-1.1,0.69-1.8,0.69c-0.71,0-1.33-0.25-1.86-0.74
		c-0.53-0.49-0.83-1.13-0.9-1.91c-0.07-0.71-0.18-1.17-0.32-1.38c-0.14-0.21-0.5-0.49-1.06-0.85c-0.57-0.35-0.95-0.83-1.17-1.43
		c-0.21-0.6-0.18-1.18,0.11-1.75c0.28-0.64,0.78-1.11,1.48-1.43c0.71-0.32,1.34-0.37,1.91-0.16c0.07,0,0.46,0.18,1.17,0.53
		c0.07-0.07,0.14-0.28,0.21-0.64c0.14-0.85,0.51-1.5,1.11-1.96c0.6-0.46,1.33-0.62,2.17-0.48c1.13,0.21,1.98,0.81,2.54,1.8
		c0.92,1.56,0.6,2.86-0.95,3.92c-0.85,0.64-0.85,1.2,0,1.7c2.54,1.7,5.37,4.63,8.48,8.8c0.85,1.2,2.01,3.11,3.5,5.73l0.53,0.85
		c0.28-1.7,0.42-2.58,0.42-2.65c0.99-5.58,1.52-8.87,1.59-9.86c0.07-0.21,0.12-0.6,0.16-1.17c0.03-0.56,0.09-1.02,0.16-1.38
		c0-0.35-0.14-0.71-0.42-1.06c-1.84-2.4-3.64-4.24-5.41-5.51c-0.14-0.14-0.25-0.25-0.32-0.32c-0.5-0.21-0.78-0.07-0.85,0.42
		c0,0.07-0.02,0.2-0.05,0.37c-0.04,0.18-0.05,0.34-0.05,0.48c-0.21,1.2-0.88,1.95-2.01,2.23c-1.27,0.21-2.23-0.21-2.86-1.27
		c-0.57-0.85-0.71-1.66-0.42-2.44c0.14-0.49-0.04-0.81-0.53-0.95c-0.85-0.28-1.43-0.74-1.75-1.38c-0.32-0.64-0.34-1.34-0.05-2.12
		c0.21-0.64,0.69-1.11,1.43-1.43c0.74-0.32,1.57-0.3,2.49,0.05c0,0.07,0.21,0.21,0.64,0.42c0.07-0.07,0.18-0.35,0.32-0.85
		c0.21-0.85,0.65-1.47,1.33-1.86c0.67-0.39,1.47-0.44,2.39-0.16c1.27,0.35,2.08,1.13,2.44,2.33c0.35,1.48-0.14,2.62-1.48,3.39
		c-0.14,0.07-0.25,0.11-0.32,0.11c-0.64,0.42-0.67,0.88-0.11,1.38c0.14,0.07,0.35,0.2,0.64,0.37c0.28,0.18,0.46,0.3,0.53,0.37
		c1.41,1.13,2.69,2.37,3.82,3.71c0.21,0.28,0.39,0.46,0.53,0.53c0.28-0.21,0.42-0.6,0.42-1.17c0-5.16-0.57-9.51-1.7-13.04
		c-0.14-0.49-0.35-0.99-0.64-1.48c-0.21-0.49-0.5-0.53-0.85-0.11c0,0.07-0.04,0.16-0.11,0.26c-0.07,0.11-0.14,0.2-0.21,0.27
		c-0.78,1.06-1.73,1.41-2.86,1.06c-1.2-0.28-1.84-1.09-1.91-2.44c-0.14-0.92,0.14-1.7,0.85-2.33c0.28-0.35,0.42-0.58,0.42-0.69
		c0-0.11-0.14-0.3-0.42-0.58c-0.71-0.78-0.88-1.66-0.53-2.65c0.42-1.06,1.2-1.63,2.33-1.7c1.27,0,2.16,0.53,2.65,1.59l0.32,0.64
		c0.07,0,0.28-0.18,0.64-0.53c0.64-0.71,1.38-1.04,2.23-1.01c0.85,0.04,1.55,0.41,2.12,1.11c0.99,1.13,1.17,2.37,0.53,3.71
		c-0.57,1.2-1.56,1.73-2.97,1.59c-0.85-0.07-1.13,0.28-0.85,1.06c0.07,0.28,0.18,0.6,0.32,0.95c0.14,0.35,0.25,0.6,0.32,0.74
		c0.78,2.12,1.31,4.98,1.59,8.59c0.21,2.76,0.21,5.09,0,7v0.74c0.28-0.14,0.56-0.49,0.85-1.06c2.05-3.46,4.49-6.57,7.32-9.33
		c0.92-0.92,2.01-1.8,3.29-2.65c0.56-0.42,0.85-0.72,0.85-0.9c0-0.17-0.28-0.48-0.85-0.9c-1.48-1.06-1.8-2.37-0.95-3.92
		c0.35-0.78,0.94-1.33,1.75-1.64c0.81-0.32,1.57-0.33,2.28-0.05c0.85,0.35,1.41,0.92,1.7,1.7c0,0.07,0.11,0.42,0.32,1.06
		c0.14,0,0.27,0,0.37,0s0.23-0.04,0.37-0.11C160.42,17.82,160.53,17.75,160.6,17.68z M124.23,36.45c0.14-0.28,0.11-0.53-0.11-0.74
		c-0.14-0.14-0.28-0.25-0.42-0.32c-0.42-0.21-0.95-0.64-1.59-1.27c-0.21,0.99-0.32,1.52-0.32,1.59c-0.14,0.28-0.07,0.46,0.21,0.53
		c0.78,0.28,1.27,0.46,1.48,0.53C123.84,36.84,124.09,36.73,124.23,36.45z M133.99,28.6c0.21-0.42,0.07-0.74-0.42-0.96
		c-0.28-0.14-0.85-0.56-1.7-1.27c0,0.28-0.09,0.65-0.27,1.11c-0.18,0.46-0.27,0.73-0.27,0.79c0.99,0.35,1.55,0.53,1.7,0.53
		C133.46,29.03,133.78,28.96,133.99,28.6z M139.29,16.3c0.42-0.28,0.53-0.6,0.32-0.96c-0.07,0-0.35-0.67-0.85-2.01
		c-0.28,0.28-0.81,0.74-1.59,1.38c0.64,0.57,1.06,1.03,1.27,1.38C138.65,16.45,138.93,16.52,139.29,16.3z M154.56,35.92
		c-0.28,0.21-0.35,0.5-0.21,0.85c0.14,0.28,0.42,0.39,0.85,0.32l1.7-0.53c-0.07-0.28-0.16-0.65-0.27-1.11
		c-0.11-0.46-0.2-0.76-0.26-0.9C155.94,34.96,155.33,35.43,154.56,35.92z M157.74,22.24c0.07,0,0.64-0.14,1.7-0.42
		c-0.07-0.14-0.28-0.81-0.64-2.01c-0.5,0.57-1.03,0.99-1.59,1.27c-0.42,0.21-0.55,0.51-0.37,0.9
		C157.01,22.37,157.31,22.45,157.74,22.24z"/>
	<path class="st0" d="M45.79,20.44c0.28,0.71,0.07,1.48-0.64,2.33c-0.5,0.57-1.27,1.06-2.33,1.48c-0.99,0.35-2.05,0.57-3.18,0.64
		c-0.78,0-1.34,0.35-1.7,1.06c-1.77,3.46-3.89,6.36-6.36,8.69c-1.91,1.84-3.78,3.22-5.62,4.14c-0.71,0.42-1.1,1.06-1.17,1.91
		c-0.5,7.49-1.84,14.95-4.03,22.37c-1.34,4.45-2.93,8.48-4.77,12.09c-0.78,1.42-1.45,2.69-2.01,3.82c-0.14,0.28-0.28,0.46-0.42,0.53
		c-0.21,0.21-0.41,0.28-0.58,0.21c-0.18-0.07-0.3-0.25-0.37-0.53c-0.07-0.21-0.04-0.49,0.11-0.85c0.14-0.49,0.39-1.02,0.74-1.59
		c3.11-5.37,5.58-11.94,7.42-19.72c0.07-0.21,0.18-0.64,0.32-1.27c0.14-0.64,0.25-1.13,0.32-1.48c0.14-0.64-0.07-1.17-0.64-1.59
		c-3.04-2.26-5.55-5.44-7.53-9.54c-0.78-1.63-1.52-3.57-2.23-5.83c-0.21-0.71-0.64-1.17-1.27-1.38c-1.2-0.49-2.12-1.09-2.76-1.8
		c-0.35-0.42-0.6-0.88-0.74-1.38c-0.28-1.2-0.04-2.08,0.74-2.65c0.85-0.64,1.77-0.67,2.76-0.11c0.42,0.21,0.69,0.3,0.8,0.26
		c0.11-0.03,0.3-0.23,0.58-0.58c0.42-0.56,0.88-0.92,1.38-1.06c0.64-0.28,1.22-0.26,1.75,0.05c0.53,0.32,0.83,0.83,0.9,1.54
		c0.07,1.27-0.46,2.69-1.59,4.24c-0.28,0.35-0.53,0.6-0.74,0.74c-0.57,0.5-0.71,1.1-0.42,1.8c1.2,3.46,2.16,5.83,2.86,7.1
		c0.49,0.78,0.95,1.52,1.38,2.23c0.28,0.42,0.6,0.39,0.95-0.11c0.07-0.14,0.14-0.32,0.21-0.53c0.56-1.27,0.92-2.9,1.06-4.88
		c0.07-0.78-0.21-1.34-0.85-1.7c-0.07,0-0.5-0.28-1.27-0.85c-0.57-0.35-1.03-0.88-1.38-1.59c-0.71-1.34-0.5-2.4,0.64-3.18
		c1.06-0.78,2.08-0.67,3.08,0.32c0.35,0.35,0.58,0.53,0.69,0.53s0.33-0.14,0.69-0.42c0.64-0.49,1.27-0.56,1.91-0.21
		c0.64,0.28,0.92,0.81,0.85,1.59c0,0.99-0.39,1.94-1.17,2.86c-0.35,0.35-0.71,0.67-1.06,0.95c-0.42,0.28-0.64,0.74-0.64,1.38
		c-0.14,2.83-0.74,5.2-1.8,7.1c-0.28,0.42-0.28,0.81,0,1.17c0.78,0.99,1.66,1.84,2.65,2.54c0.42,0.28,0.71,0.14,0.85-0.42
		c0.49-2.62,0.88-5.48,1.17-8.59c0-0.64,0.14-3.08,0.42-7.32c0-0.14,0-0.35,0-0.64c0-0.28,0-0.46,0-0.53c0-0.57-0.21-0.96-0.64-1.17
		c-2.48-0.92-4.67-2.58-6.57-4.98c-0.28-0.42-0.71-0.64-1.27-0.64c-0.99,0.07-1.87,0.07-2.65,0c-1.2,0-2.4-0.28-3.6-0.85
		c-0.92-0.42-1.52-0.95-1.8-1.59c-0.64-1.2-0.6-2.23,0.11-3.07c0.71-1.06,1.7-1.48,2.97-1.27c0.14,0,0.6,0.11,1.38,0.32
		c0.42,0.14,0.64,0,0.64-0.42c0-0.71,0.14-1.31,0.42-1.8c0.35-0.99,0.95-1.52,1.8-1.59c0.85-0.07,1.55,0.28,2.12,1.06
		c0.78,1.2,1.06,2.69,0.85,4.45c-0.07,0.64-0.21,1.52-0.42,2.65c-0.14,0.5-0.07,0.88,0.21,1.17c1.7,2.19,3.43,3.75,5.2,4.67
		c0.14,0.14,0.28,0.21,0.42,0.21c0.35,0.14,0.58,0.18,0.69,0.11c0.11-0.07,0.16-0.28,0.16-0.64c-0.07-0.85-0.12-2.17-0.16-3.98
		c-0.04-1.8-0.12-3.16-0.27-4.08c-0.07-0.42-0.32-0.78-0.74-1.06c-1.84-1.27-3.15-2.44-3.92-3.5c-0.85-1.27-1.38-2.4-1.59-3.39
		c-0.21-0.92-0.11-1.84,0.32-2.76c0.42-0.85,1.06-1.38,1.91-1.59s1.63,0,2.33,0.64c0.64,0.5,1.17,1.13,1.59,1.91l0.74,1.06
		c0.42-0.92,0.88-1.66,1.38-2.23c0.49-0.64,1.13-1.13,1.91-1.48c1.48-0.78,2.61-0.42,3.39,1.06c0.49,0.99,0.56,2.09,0.21,3.29
		c-0.42,1.7-1.31,3.15-2.65,4.35c-0.71,0.64-1.59,1.31-2.65,2.01c-0.57,0.5-0.81,1.06-0.74,1.7c0.07,0.99,0.12,2.48,0.16,4.45
		c0.03,1.98,0.09,3.43,0.16,4.35c0.14,0,0.11,1.45-0.11,4.35c0,0.07-0.02,0.26-0.05,0.58c-0.04,0.32-0.04,0.57,0,0.74
		c0.03,0.18,0.12,0.3,0.26,0.37c0.35,0,0.55,0.02,0.58,0.05c0.03,0.04,0.21-0.07,0.53-0.32c0.32-0.25,0.51-0.37,0.58-0.37
		c0.21-0.14,0.55-0.39,1.01-0.74c0.46-0.35,0.76-0.57,0.9-0.64c0.42-0.35,0.6-0.81,0.53-1.38c-0.42-1.7-0.6-3.32-0.53-4.88
		c0.07-0.49-0.11-0.88-0.53-1.17c-0.85-0.71-1.48-1.66-1.91-2.86c-0.28-0.92-0.18-1.84,0.32-2.76c0.42-0.85,1.01-1.29,1.75-1.33
		c0.74-0.04,1.36,0.34,1.86,1.11l0.11,0.11c0.28,0.5,0.49,0.76,0.64,0.79c0.14,0.04,0.46-0.09,0.95-0.37
		c0.92-0.49,1.66-0.46,2.23,0.11c0.64,0.64,0.71,1.42,0.21,2.33c-0.64,1.2-1.52,2.05-2.65,2.54c-0.99,0.42-1.45,1.17-1.38,2.23
		c0.07,0.35,0.11,0.85,0.11,1.48c0,0.64,0,1.03,0,1.17c0,0.35,0.11,0.57,0.32,0.64c0.14,0.07,0.35-0.04,0.64-0.32
		c1.2-1.13,2.47-2.79,3.82-4.98c0.07-0.14,0.53-0.99,1.38-2.54c0.28-0.49,0.32-0.99,0.11-1.48c-0.28-0.71-0.53-1.87-0.74-3.5
		c-0.14-1.2,0.25-2.3,1.17-3.29c0.64-0.64,1.33-0.88,2.07-0.74c0.74,0.14,1.25,0.67,1.54,1.59c0.14,0.35,0.21,0.71,0.21,1.06
		c0,0.42,0.07,0.69,0.21,0.79c0.14,0.11,0.42,0.05,0.85-0.16c0.14-0.07,0.42-0.14,0.85-0.21c0.28,0,0.49,0,0.64,0
		C44.69,19.24,45.43,19.67,45.79,20.44z M8.89,33.7c1.27,0.71,2.01,1.04,2.23,1.01c0.21-0.04,0.78-0.62,1.7-1.75
		c0.56-0.64,0.88-1.38,0.95-2.23c0-0.49-0.14-0.78-0.42-0.85c-0.21-0.14-0.48-0.05-0.8,0.27c-0.32,0.32-0.51,0.69-0.58,1.11
		l-0.11,1.06c-0.07,0.57-0.28,0.88-0.64,0.95c-0.35,0.14-0.67-0.07-0.95-0.64C9.91,32,9.63,31.58,9.42,31.36
		c-0.5-0.49-0.95-0.6-1.38-0.32c-0.5,0.35-0.57,0.88-0.21,1.59C8.04,33.06,8.39,33.42,8.89,33.7z M15.67,24.79
		c0.35-1.49,0.53-2.51,0.53-3.08c-0.07-1.2-0.18-1.98-0.32-2.33c-0.28-0.85-0.67-1.27-1.17-1.27c-0.57,0.07-0.85,0.6-0.85,1.59
		c0,0.71,0.18,1.48,0.53,2.33c0,0.07,0.05,0.21,0.16,0.42c0.11,0.21,0.16,0.35,0.16,0.42c0.21,0.5,0.21,0.85,0,1.06
		c-0.28,0.21-0.67,0.14-1.17-0.21c-0.07-0.07-0.28-0.25-0.64-0.53c-0.57-0.49-1.13-0.92-1.7-1.27c-0.5-0.21-0.92-0.32-1.27-0.32
		c-0.85,0-1.38,0.28-1.59,0.85c-0.21,0.71-0.07,1.31,0.42,1.8c0.28,0.28,0.78,0.57,1.48,0.85c1.13,0.42,2.61,0.6,4.45,0.53
		C15.21,25.57,15.53,25.29,15.67,24.79z M16.73,35.82c0.35,0.64,1.2,1.38,2.54,2.23c0.14,0.07,0.32,0.11,0.53,0.11
		c0.35-0.14,0.78-0.53,1.27-1.17c0.49-0.64,0.74-1.17,0.74-1.59c0-0.21-0.04-0.35-0.11-0.42c-0.21-0.07-0.39,0-0.53,0.21
		c-0.35,0.35-0.6,0.92-0.74,1.7c-0.14,0.42-0.39,0.64-0.74,0.64c-0.42,0-0.67-0.21-0.74-0.64c-0.07-0.14-0.14-0.42-0.21-0.85
		c-0.14-0.42-0.28-0.78-0.42-1.06c-0.42-0.57-0.88-0.71-1.38-0.42C16.52,34.83,16.45,35.25,16.73,35.82z M23.2,19.91
		c0.28,0.21,0.64,0.18,1.06-0.11c0.07-0.07,0.46-0.37,1.17-0.9c0.71-0.53,1.24-0.97,1.59-1.33c1.55-1.41,2.4-2.97,2.54-4.67
		l-0.11-0.74c-0.21-1.2-0.85-1.52-1.91-0.95c-0.57,0.35-1.03,0.74-1.38,1.17c-0.92,1.34-1.42,2.76-1.48,4.24
		c0,0.85-0.23,1.27-0.69,1.27c-0.46,0-0.76-0.39-0.9-1.17v-0.21c-0.14-0.78-0.39-1.63-0.74-2.54c-0.57-1.13-1.17-1.91-1.8-2.33
		c-0.71-0.49-1.31-0.39-1.8,0.32c-0.28,0.35-0.42,0.78-0.42,1.27c-0.07,0.71,0.11,1.48,0.53,2.33
		C19.63,16.98,21.08,18.43,23.2,19.91z M29.25,26.7c0.14,0.21,0.39,0.25,0.74,0.11c0.92-0.49,1.7-0.99,2.33-1.49
		c0.35-0.35,0.6-0.71,0.74-1.06c0.14-0.28,0.11-0.46-0.11-0.53c-0.07-0.07-0.21-0.04-0.42,0.11c-0.5,0.28-0.92,0.78-1.27,1.48
		c-0.28,0.5-0.6,0.71-0.95,0.64c-0.35-0.07-0.57-0.39-0.64-0.95c-0.07-0.71-0.21-1.31-0.42-1.8c-0.28-0.57-0.57-0.85-0.85-0.85
		c-0.35,0.07-0.6,0.39-0.74,0.95v0.53C27.66,24.76,28.19,25.71,29.25,26.7z M44.09,21.93c0.28-0.28,0.39-0.57,0.32-0.85
		c-0.14-0.28-0.42-0.42-0.85-0.42c-0.85,0.07-1.66,0.39-2.44,0.95c-0.57,0.35-0.88,0.53-0.95,0.53c-0.28,0.14-0.51,0.14-0.69,0
		c-0.18-0.14-0.27-0.39-0.27-0.74c0-0.07,0.03-0.19,0.11-0.37c0.07-0.18,0.11-0.3,0.11-0.37c0.21-1.06,0.28-1.73,0.21-2.01
		C39.57,18,39.35,17.65,39,17.58c-0.35-0.07-0.71,0.18-1.06,0.74c-0.21,0.28-0.32,0.88-0.32,1.8c0,0.85,0.14,1.7,0.42,2.54
		c0.14,0.5,0.46,0.74,0.95,0.74c1.06,0,1.87-0.07,2.44-0.21C42.64,22.92,43.52,22.49,44.09,21.93z"/>
	<path class="st0" d="M94.99,19.28c1.84-0.35,3.46,0.14,4.88,1.48c1.41,1.34,1.98,2.97,1.7,4.88c-0.42,2.4-1.84,4.52-4.24,6.36
		c-2.33,1.77-5.41,3-9.22,3.71c-2.19,0.42-4.52,0.64-7,0.64c-0.71,0-1.15,0.09-1.33,0.27c-0.18,0.18-0.27,0.58-0.27,1.22
		c-0.14,1.84-0.25,3.46-0.32,4.88c-0.14,4.52-0.21,7.39-0.21,8.59c0.14,6.93,0.53,12.26,1.17,16.01c0.07,0.42,0.18,0.88,0.32,1.38
		c0,0.07,0.07,0.46,0.21,1.17c0.28-0.07,0.56-0.28,0.85-0.64c2.69-3.25,4.42-7.17,5.2-11.77c0.35-1.98,0.6-4.52,0.74-7.63
		c0.07-1.2,0.25-2.44,0.53-3.71c0.21-0.92,0.56-1.7,1.06-2.33c0.99-1.13,2.12-1.31,3.39-0.53c0.64,0.42,1.17,1.1,1.59,2.01
		c1.63,3.61,1.84,7.35,0.64,11.24c-1.27,4.17-3.57,8.13-6.89,11.88c-1.48,1.77-3.29,3.04-5.41,3.82c-0.5,0.14-0.78,0.28-0.85,0.42
		c-0.07,0.14-0.04,0.5,0.11,1.06c0.64,2.12,1.52,4.42,2.65,6.89c0.21,0.5,0.32,0.85,0.32,1.06c0.14,0.42,0.07,0.71-0.21,0.85
		c-0.28,0.14-0.57,0.03-0.85-0.32c-0.21-0.21-0.46-0.6-0.74-1.17c-1.2-2.54-2.12-5.05-2.76-7.53c-0.42-1.41-0.81-3-1.17-4.77
		c-0.14-0.64-0.57-1.06-1.27-1.27c-6.93-2.4-11.73-6.86-14.42-13.36c-1.34-3.18-1.56-6.01-0.64-8.48c0.28-0.64,0.6-1.17,0.95-1.59
		c1.06-1.13,2.26-1.34,3.6-0.64c0.71,0.35,1.41,0.99,2.12,1.91c0.71,0.99,1.48,2.48,2.33,4.45c0.56,1.27,1.31,3.11,2.23,5.51
		c0.92,2.4,1.59,4.1,2.01,5.09c0.28,0.64,0.85,1.73,1.7,3.29c0.14,0.21,0.32,0.35,0.53,0.42c-0.07-1.77-0.11-2.69-0.11-2.76
		c-0.5-5.44-0.6-11.24-0.32-17.39c0.07-1.84,0.18-3.85,0.32-6.04c0.07-0.85,0.03-1.34-0.11-1.49c-0.14-0.14-0.6-0.21-1.38-0.21
		c-3.39,0-6.65-0.46-9.75-1.38c-2.83-0.85-5.16-2.08-7-3.71c-1.7-1.55-2.72-3.32-3.07-5.3c-0.35-2.05,0.21-3.76,1.7-5.14
		c1.48-1.38,3.25-1.82,5.3-1.33c1.13,0.28,2.23,0.88,3.29,1.8c0.78,0.71,1.45,1.42,2.01,2.12c0.42,0.57,0.74,0.88,0.95,0.95
		c0.07-0.14,0.03-0.42-0.11-0.85c-1.06-2.83-1.52-5.23-1.38-7.21c0.07-1.13,0.25-2.16,0.53-3.08c0.07-0.21,0.18-0.42,0.32-0.64
		c0.64-1.13,1.4-1.73,2.28-1.8c0.88-0.07,1.7,0.42,2.44,1.48s1.47,2.83,2.17,5.3c0.78,2.83,1.45,5.76,2.01,8.8
		c0,0.14,0.07,0.28,0.21,0.42c0.35-2.19,0.53-3.32,0.53-3.39c0.92-5.02,2.26-9.05,4.03-12.09c0.71-1.2,1.45-2.12,2.23-2.76
		c0.56-0.56,1.09-0.95,1.59-1.17c0.92-0.49,1.75-0.58,2.49-0.27c0.74,0.32,1.22,0.97,1.43,1.96c0.35,1.2,0.28,2.76-0.21,4.67
		c-0.99,4.24-2.58,8.38-4.77,12.41c-1.06,1.91-1.98,3.43-2.76,4.56c-0.07,0.21-0.11,0.39-0.11,0.53c0.42-0.35,1.17-1.2,2.23-2.54
		c0.42-0.49,1.17-1.41,2.23-2.76c1.06-1.34,1.91-2.37,2.54-3.08C91.34,20.83,93.08,19.7,94.99,19.28z M75.58,34.65
		c0.56,0,0.92-0.07,1.06-0.21l-1.17-1.06c-1.41-1.41-3.57-4.03-6.47-7.85c-1.13-1.41-2.12-2.51-2.97-3.29
		c-0.78-0.78-1.7-1.31-2.76-1.59c-1.48-0.42-2.79-0.14-3.92,0.85c-1.13,0.99-1.56,2.23-1.27,3.71c0.28,1.84,1.24,3.46,2.86,4.88
		c1.7,1.42,3.92,2.51,6.68,3.29C69.61,33.95,72.26,34.37,75.58,34.65z M77.49,32.53l0.11-0.21c-0.85-5.51-1.98-10.85-3.39-16.01
		c-0.28-0.99-0.67-1.91-1.17-2.76c-0.21-0.49-0.46-0.85-0.74-1.06c-0.5-0.35-0.95-0.32-1.38,0.11c-0.35,0.42-0.6,0.95-0.74,1.59
		c-0.42,1.42-0.46,3-0.11,4.77c0.64,3.68,2.51,7.56,5.62,11.66C76.39,31.61,77,32.25,77.49,32.53z M79.72,32.53
		c0.56-0.64,1.24-1.55,2.01-2.76c3.67-5.66,6.15-11.24,7.42-16.75c0.28-1.13,0.35-2.3,0.21-3.5c-0.14-1.34-0.81-1.66-2.01-0.95
		c-0.92,0.5-1.7,1.24-2.33,2.23c-1.41,1.98-2.54,4.42-3.39,7.32c-0.78,2.76-1.34,5.66-1.7,8.7C79.65,29.35,79.58,31.26,79.72,32.53z
		 M99.97,25.53c0.21-1.49-0.11-2.69-0.95-3.61c-0.85-0.92-1.91-1.34-3.18-1.27c-1.13,0-2.19,0.39-3.18,1.17
		c-0.85,0.64-2.01,1.91-3.5,3.82c-3.39,4.31-5.8,7.1-7.21,8.38c-0.21,0.21-0.32,0.39-0.32,0.53c0.14,0.07,0.49,0.11,1.06,0.11
		c2.97,0,5.87-0.46,8.69-1.38c2.76-0.92,4.91-2.19,6.47-3.82C99.05,28.25,99.76,26.95,99.97,25.53z"/>
	<path class="st0" d="M220.95,50.56c-1.06-0.21-1.8,0.14-2.23,1.06c-0.07,0.07-0.2,0.23-0.37,0.48c-0.18,0.25-0.27,0.48-0.27,0.69
		c0.07,0.14,0.25,0.18,0.53,0.11c1.63-0.42,3.78-0.35,6.47,0.21c0.35,0.07,1.8,0.39,4.35,0.95c0.14,0,0.28,0.04,0.42,0.11
		c0.64,0.14,0.95,0.42,0.95,0.85c0.07,0.42-0.14,0.78-0.64,1.06c-1.91,1.27-3.82,2.09-5.73,2.44c-3.18,0.57-6.04-0.03-8.59-1.8
		c-0.42-0.28-0.85-0.18-1.27,0.32c-0.78,0.99-2.37,2.65-4.77,4.98c-1.48,1.48-3.71,3.32-6.68,5.51c-0.64,0.42-1.1,1.03-1.38,1.8
		c-0.99,2.62-2.4,5.97-4.24,10.07c-0.28,0.71-0.64,1.03-1.06,0.95c-0.5-0.07-0.57-0.56-0.21-1.48c0.78-1.84,1.48-3.39,2.12-4.67
		c0.35-0.78,0.25-1.52-0.32-2.23c-2.76-3.46-4.95-6.64-6.57-9.54c-0.92-1.63-1.59-2.9-2.01-3.82c-0.14-0.42-0.28-0.65-0.42-0.69
		c-0.14-0.04-0.39,0.02-0.74,0.16c-3.11,1.13-6.29,0.81-9.54-0.95c-1.34-0.71-2.65-1.8-3.92-3.29c-0.42-0.49-0.57-0.92-0.42-1.27
		c0.14-0.42,0.53-0.6,1.17-0.53c3.32,0,5.97,0.18,7.95,0.53c0.85,0.14,2.12,0.6,3.82,1.38c-0.14-1.13-0.46-2.05-0.95-2.76
		c-0.07-0.14-0.39-0.25-0.95-0.32c-2.26-0.35-4.07-1.1-5.41-2.23c-1.98-1.77-3.32-3.99-4.03-6.68c-0.14-0.71-0.04-1.18,0.32-1.43
		c0.35-0.25,0.85-0.19,1.48,0.16c0.42,0.28,1.15,0.73,2.17,1.33c1.02,0.6,1.91,1.17,2.65,1.7c0.74,0.53,1.43,1.04,2.07,1.54
		c0.07,0,0.14,0,0.21,0c0.07-0.14,0-0.35-0.21-0.64c-2.05-1.91-2.86-4.56-2.44-7.95c0.35-3.25,1.45-6.57,3.29-9.97
		c0.21-0.28,0.42-0.6,0.64-0.95c0.35-0.49,0.71-0.67,1.06-0.53c0.42,0.07,0.67,0.39,0.74,0.95c0.07,1.84,0.14,2.9,0.21,3.18
		c0,2.26,0,5.48,0,9.65c0,2.05-0.5,3.78-1.48,5.2c-0.28,0.5-0.21,1.27,0.21,2.33c0.14,0,0.39-0.28,0.74-0.85
		c1.55-2.61,3.64-4.59,6.26-5.94c0.42-0.21,0.78-0.35,1.06-0.42c0.42-0.14,0.76-0.09,1.01,0.16c0.25,0.25,0.33,0.58,0.27,1.01
		c-0.07,0.21-0.14,0.39-0.21,0.53c-1.56,2.9-2.79,4.98-3.71,6.26c-0.92,1.27-2.09,2.26-3.5,2.97c-0.42,0.21-0.67,0.39-0.74,0.53
		c-0.07,0.14-0.04,0.42,0.11,0.85c0.42,1.27,0.74,2.05,0.95,2.33c0.14-0.07,0.35-0.39,0.64-0.95c1.98-3.46,5.16-5.9,9.54-7.32
		c0.85-0.28,1.38-0.28,1.59,0c0.35,0.35,0.28,0.95-0.21,1.8c-1.13,1.91-2.51,3.89-4.14,5.94c-1.27,1.63-2.9,2.79-4.88,3.5
		c-0.64,0.21-0.97,0.37-1.01,0.48c-0.04,0.11,0.09,0.48,0.37,1.11c1.84,3.89,4.42,7.92,7.74,12.09c0.28,0.35,0.49,0.53,0.64,0.53
		c0.14,0,0.28-0.21,0.42-0.64c1.91-4.88,3.11-9.4,3.6-13.57c0.49-4.67,0.71-8.48,0.64-11.45c0-1.98-0.14-4.21-0.42-6.68
		c-0.07-0.42-0.16-0.69-0.27-0.8c-0.11-0.11-0.34-0.09-0.69,0.05c-2.4,0.78-5.27,0.5-8.59-0.85c-0.5-0.21-2.01-0.88-4.56-2.01
		c-0.28-0.14-0.5-0.25-0.64-0.32c-0.42-0.28-0.62-0.58-0.58-0.9c0.03-0.32,0.27-0.58,0.69-0.79c0.64-0.28,1.63-0.53,2.97-0.74
		c3.75-0.56,7.17,0.07,10.29,1.91c0.21,0.07,0.39,0.07,0.53,0c-0.07-0.42-0.28-1.38-0.64-2.86c-0.14-0.42-0.39-0.6-0.74-0.53
		c-2.12,0.42-4.6-0.11-7.42-1.59c-0.5-0.21-1.77-0.88-3.82-2.01c-0.21-0.07-0.42-0.17-0.64-0.32c-0.78-0.71-0.71-1.27,0.21-1.7
		c0.71-0.28,1.63-0.42,2.76-0.42c2.9,0.14,5.51,0.88,7.85,2.23h0.32c-0.28-1.34-0.81-2.16-1.59-2.44c-1.06-0.42-2.01-1.2-2.86-2.33
		c-0.78-0.92-1.84-2.47-3.18-4.67c-0.42-0.64-1.11-1.73-2.07-3.29c-0.95-1.55-1.68-2.76-2.17-3.61c-0.42-0.71-0.46-1.24-0.11-1.59
		c0.28-0.35,0.78-0.35,1.48,0c4.45,2.33,7.77,5.13,9.97,8.38c1.2,1.91,1.63,4,1.27,6.26c-0.07,0.57,0,0.92,0.21,1.06
		c0.64-1.77,0.99-2.72,1.06-2.86c0.35-0.78,1.13-2.44,2.33-4.98c0.14-0.28,0.28-0.49,0.42-0.64c0.49-0.49,0.99-0.46,1.48,0.11
		c0.07,0.14,0.14,0.28,0.21,0.42c1.27,3.89,1.06,7.25-0.64,10.07c-0.64,1.06-1.48,1.98-2.54,2.76c-0.5,0.35-0.64,0.81-0.42,1.38
		c0,0.14,0.21,0.92,0.64,2.33c0.21-0.28,0.44-0.65,0.69-1.11c0.25-0.46,0.44-0.76,0.58-0.9c0.85-1.06,2.44-2.44,4.77-4.14
		c0.85-0.64,1.7-1.27,2.54-1.91c0.28-0.21,0.53-0.35,0.74-0.42c0.78-0.28,1.2,0.04,1.27,0.95c0,0.07-0.04,0.18-0.11,0.32
		c-0.64,4.6-2.65,7.88-6.04,9.86c-0.99,0.64-1.95,1.03-2.86,1.17c-0.42,0.07-0.69,0.16-0.8,0.26c-0.11,0.11-0.12,0.34-0.05,0.69
		c0.14,0.78,0.35,3.54,0.64,8.27c0,1.13-0.07,2.9-0.21,5.3c-0.28,3.82-0.67,6.86-1.17,9.12c-0.07,0.21-0.42,1.77-1.06,4.67
		c0.64-0.35,1.45-0.95,2.44-1.8c3.32-2.83,5.87-5.27,7.63-7.32c0.07-0.07,0.18-0.21,0.32-0.42c0.42-0.42,0.39-0.78-0.11-1.06
		c-0.57-0.35-1.13-0.74-1.7-1.17c-1.13-0.99-2.09-2.44-2.86-4.35c-0.57-1.34-1.27-3.39-2.12-6.15c-0.28-0.92-0.21-1.52,0.21-1.8
		c0.35-0.21,0.88-0.11,1.59,0.32c4.03,2.69,6.47,6.08,7.32,10.18c0.07,0,0.14,0.11,0.21,0.32c0.14,0.07,0.35-0.04,0.64-0.32
		c0.07-0.21,0.32-0.64,0.74-1.27c0.35-0.49,0.53-0.83,0.53-1.01c0-0.18-0.25-0.48-0.74-0.9c-1.06-0.92-1.8-1.98-2.23-3.18
		c-0.85-2.12-1.56-4.56-2.12-7.32c-0.14-0.71-0.04-1.17,0.32-1.38c0.42-0.35,0.92-0.32,1.48,0.11c0.99,0.71,1.98,1.8,2.97,3.29
		c1.2,1.84,1.98,3.71,2.33,5.62c0.99-0.64,1.34-1.38,1.06-2.23c-0.57-1.63-0.6-3.39-0.11-5.3c0.56-2.26,1.7-6.29,3.39-12.09
		c0.07-0.14,0.11-0.25,0.11-0.32c0.21-0.56,0.53-0.85,0.95-0.85c0.42,0,0.74,0.28,0.95,0.85c0.28,0.64,0.49,1.45,0.64,2.44
		c0.64,3.6,0.74,6.57,0.32,8.91c-0.5,2.9-1.45,4.95-2.86,6.15c-0.21,0.21-0.64,0.57-1.27,1.06c-0.42,0.28-0.64,0.46-0.64,0.53
		c0.07,0.14,0.21,0.18,0.42,0.11c0.71-0.35,1.48-0.69,2.33-1.01c0.85-0.32,1.86-0.64,3.02-0.95c1.17-0.32,2.01-0.55,2.54-0.69
		s0.94-0.05,1.22,0.26c0.28,0.32,0.28,0.73,0,1.22c-1.06,2.05-2.54,3.73-4.45,5.04C225.72,50.43,223.5,50.91,220.95,50.56z"/>
	<path class="st0" d="M260.92,50.13c1.48-0.35,2.58-0.14,3.29,0.64c0.78,0.85,0.99,2.01,0.64,3.5c-0.5,1.63-1.59,2.97-3.29,4.03
		c-0.99,0.64-2.48,1.24-4.45,1.8c-1.27,0.35-2.26,0.71-2.97,1.06c-0.64,0.35-0.99,0.95-1.06,1.8c-0.28,2.97-0.35,5.83-0.21,8.59
		c0.14,3.39,0.46,6.08,0.95,8.06c0.14,0.5,0.18,0.85,0.11,1.06c-0.07,0.35-0.25,0.53-0.53,0.53c-0.21,0.07-0.39-0.04-0.53-0.32
		c-0.21-0.28-0.39-0.78-0.53-1.48c-0.35-1.34-0.6-2.93-0.74-4.77c-0.42-4.59-0.32-9.22,0.32-13.89c0.07-0.21,0.12-0.51,0.16-0.9
		c0.03-0.39,0.07-0.72,0.11-1.01c0.03-0.28,0.09-0.57,0.16-0.85c0.21-1.06-0.14-2.26-1.06-3.6c-0.71-0.92-1.7-1.77-2.97-2.54
		c-1.63-0.99-2.54-1.55-2.76-1.7c-1.98-1.34-2.86-3.04-2.65-5.09c0.07-0.57,0.18-1.02,0.32-1.38c0.42-1.2,1.2-2,2.33-2.39
		c1.13-0.39,2.26-0.16,3.39,0.69c1.06,0.78,1.94,1.87,2.65,3.29c0.56,1.2,1.06,2.76,1.48,4.67c0.14,0.57,0.25,0.96,0.32,1.17
		c0.35-1.48,0.53-2.26,0.53-2.33c1.48-7,3.64-13.15,6.47-18.45c1.27-2.47,3.08-5.13,5.41-7.95c0.35-0.49,0.78-0.88,1.27-1.17
		c0.42-0.28,0.71-0.33,0.85-0.16c0.14,0.18,0.11,0.44-0.11,0.79c-0.42,0.64-0.74,1.06-0.95,1.27c-4.88,5.8-8.45,13.22-10.71,22.27
		c-0.42,1.7-1.03,4.56-1.8,8.59c-0.07,0.42-0.07,0.81,0,1.17c0.56-0.85,1.24-1.66,2.01-2.44C257.78,51.33,259.3,50.49,260.92,50.13z
		 M254.77,35.29c-3.39-2.47-5.55-5.13-6.47-7.95c-0.5-1.48-0.6-2.69-0.32-3.6c0.35-0.99,0.88-1.57,1.59-1.75
		c0.71-0.18,1.48,0.02,2.33,0.58c0.42,0.35,0.78,0.78,1.06,1.27c1.98,3.04,3.11,6.47,3.39,10.29v0.32c0,0.71-0.14,1.1-0.42,1.17
		C255.59,35.75,255.2,35.64,254.77,35.29z M258.49,28.08c-1.91-1.34-3.46-3.11-4.67-5.3c-0.85-1.55-1.27-2.97-1.27-4.24
		c0.14-0.56,0.21-0.88,0.21-0.95c0.42-1.13,1.2-1.45,2.33-0.95c0.92,0.42,1.7,1.2,2.33,2.33c1.06,1.91,1.98,4.56,2.76,7.95v0.11
		c0,0.71-0.11,1.13-0.32,1.27C259.51,28.5,259.05,28.43,258.49,28.08z M262.3,22.67c-2.19-3.04-3.36-5.97-3.5-8.8
		c-0.07-0.92,0.11-1.84,0.53-2.76c0.35-0.71,0.83-1.11,1.43-1.22c0.6-0.11,1.18,0.09,1.75,0.58c0.49,0.42,0.92,0.99,1.27,1.7
		c0.64,1.34,0.95,3.18,0.95,5.51c0,0.92-0.21,2.44-0.64,4.56c-0.14,0.57-0.35,0.88-0.64,0.95C263.05,23.27,262.66,23.09,262.3,22.67
		z M274.5,37.41c0.71,0.5,1.06,1.08,1.06,1.75c0,0.67-0.39,1.26-1.17,1.75c-0.78,0.5-2.12,0.74-4.03,0.74
		c-0.64,0-1.66-0.21-3.08-0.64c-1.41-0.42-3.22-1.13-5.41-2.12c-0.07,0-0.32-0.14-0.74-0.42c-0.64-0.35-0.92-0.74-0.85-1.17
		c0-0.49,0.39-0.85,1.17-1.06c0.42-0.14,1.02-0.28,1.8-0.42c2.76-0.49,5.58-0.39,8.48,0.32C272.8,36.42,273.72,36.84,274.5,37.41z
		 M274.81,29.88c0.85,0.42,1.48,0.92,1.91,1.48c0.78,1.2,0.53,2.19-0.74,2.97c-0.71,0.42-1.48,0.64-2.33,0.64
		c-2.12,0-4.42-0.64-6.89-1.91c-0.64-0.28-1.38-0.74-2.23-1.38c-0.71-0.49-1.03-0.92-0.95-1.27c0.07-0.42,0.49-0.78,1.27-1.06
		c1.41-0.49,2.9-0.71,4.45-0.64C271.14,28.64,272.98,29.03,274.81,29.88z M278.84,24.15c0.78,0.64,1.13,1.27,1.06,1.91
		c-0.14,0.78-0.67,1.31-1.59,1.59c-1.13,0.28-2.09,0.39-2.86,0.32c-2.83-0.21-5.27-0.71-7.32-1.48c-0.57-0.14-0.95-0.32-1.17-0.53
		c-0.64-0.64-0.6-1.2,0.11-1.7c0.49-0.35,1.06-0.64,1.7-0.85c1.55-0.42,3.14-0.64,4.77-0.64c0.92-0.07,2.05,0.11,3.39,0.53
		C277.71,23.52,278.35,23.8,278.84,24.15z M268.88,19.59c-0.35-0.28-0.46-0.78-0.32-1.48c0.14-0.99,0.6-2.23,1.38-3.71
		c1.41-2.83,3.22-4.77,5.41-5.83c0.71-0.28,1.34-0.46,1.91-0.53c0.64-0.07,1.17,0.09,1.59,0.48c0.42,0.39,0.6,0.94,0.53,1.64
		c-0.07,0.71-0.39,1.52-0.95,2.44c-1.13,1.77-2.69,3.36-4.67,4.77c-0.99,0.71-2.16,1.42-3.5,2.12
		C269.69,19.77,269.23,19.81,268.88,19.59z"/>
	<path class="st0" d="M315.32,50.88c0.21,1.2-0.04,2.47-0.74,3.82c-1.7,3.04-4.42,4.91-8.16,5.62c-0.14,0-0.95,0.07-2.44,0.21
		c-0.35,0.07-0.57,0.14-0.64,0.21c-0.07,0.07-0.11,0.28-0.11,0.64c0.14,1.98,0.25,3.46,0.32,4.45c0.49,4.45,0.95,7.95,1.38,10.5
		c0.21,1.13,0.53,2.54,0.95,4.24c0.14,0.57,0.18,0.95,0.11,1.17c-0.07,0.28-0.25,0.44-0.53,0.48c-0.28,0.04-0.5-0.09-0.64-0.37
		c-0.07-0.07-0.14-0.32-0.21-0.74c-0.57-1.63-1.1-4.17-1.59-7.63c-0.28-1.98-0.67-5.69-1.17-11.13c-0.07-0.49-0.18-0.79-0.32-0.9
		c-0.14-0.11-0.46-0.12-0.95-0.05c-2.12,0.35-4.03,0.14-5.73-0.64c-1.91-0.92-3.22-2.23-3.92-3.92c-0.21-0.35-0.32-0.71-0.32-1.06
		c-0.28-1.34,0-2.44,0.85-3.29c0.85-0.85,1.94-1.17,3.29-0.95c1.84,0.35,3.39,1.17,4.67,2.44c0.07,0.07,0.6,0.53,1.59,1.38
		c0.07,0,0.11-0.21,0.11-0.64c0.07-0.64,0.05-1.54-0.05-2.7c-0.11-1.17-0.16-2-0.16-2.49c0-0.35-0.07-0.58-0.21-0.69
		c-0.14-0.11-0.42-0.16-0.85-0.16c-1.77,0-3.36-0.35-4.77-1.06c-2.26-1.06-3.6-2.72-4.03-4.98c-0.28-1.49,0.07-2.69,1.06-3.61
		c0.99-0.92,2.23-1.2,3.71-0.85c1.48,0.35,2.9,1.38,4.24,3.08c0.35,0.5,0.6,0.74,0.74,0.74c0-0.14,0.03-0.56,0.11-1.27
		c0-1.77,0-3.18,0-4.24c0-0.56-0.07-0.9-0.21-1.01c-0.14-0.11-0.46-0.16-0.95-0.16c-1.34,0-2.3-0.11-2.86-0.32
		c-1.48-0.35-2.69-1.04-3.6-2.07c-0.92-1.02-1.45-2.24-1.59-3.66c-0.14-0.99,0.04-1.93,0.53-2.81c0.49-0.88,1.17-1.5,2.01-1.86
		c1.06-0.42,2.16-0.39,3.29,0.11c1.2,0.57,2.26,1.56,3.18,2.97c0.35,0.5,0.6,0.78,0.74,0.85c0.07-0.14,0.12-0.3,0.16-0.48
		c0.04-0.18,0.05-0.39,0.05-0.64c0-0.25,0-0.41,0-0.48c0-0.14,0.07-0.69,0.21-1.64c0.14-0.95,0.25-1.68,0.32-2.17
		c0.14-0.71,0-1.34-0.42-1.91c-1.2-1.55-1.94-3.39-2.23-5.51c-0.42-3.11,0.35-5.58,2.33-7.42c1.48-1.27,3.08-1.52,4.77-0.74
		c2.83,1.27,3.92,3.54,3.29,6.79c-0.5,2.4-1.87,4.56-4.14,6.47c0,0.07-0.04,0.11-0.11,0.11c-1.56,0.71-2.33,2.19-2.33,4.45
		c0,0.07-0.07,0.5-0.21,1.27c0.71-1.27,1.45-2.4,2.23-3.39c1.34-1.48,2.72-2.26,4.14-2.33c1.34-0.07,2.42,0.37,3.23,1.33
		c0.81,0.96,1.11,2.07,0.9,3.34c-0.21,1.77-1.13,3.25-2.76,4.45c-1.48,1.13-3.32,1.77-5.51,1.91c-0.57,0.07-1.24,0.11-2.01,0.11
		c-0.42,0-0.67,0.18-0.74,0.53c-0.14,0.57-0.23,1.59-0.27,3.07c-0.04,1.49,0.02,2.58,0.16,3.29c0.07-0.07,0.32-0.39,0.74-0.95
		c0.99-1.34,2.01-2.33,3.08-2.97c1.2-0.78,2.54-0.99,4.03-0.64c1.13,0.28,1.98,0.97,2.54,2.07c0.56,1.1,0.64,2.28,0.21,3.55
		c-0.71,2.26-2.33,3.96-4.88,5.09c-1.2,0.5-2.76,0.81-4.67,0.95c-0.57,0-0.92,0.07-1.06,0.21c-0.14,0.14-0.21,0.53-0.21,1.17
		c0,1.06,0.03,2.16,0.11,3.29c0,0.64,0.11,1.03,0.32,1.17c0.07-0.07,0.32-0.53,0.74-1.38c1.06-1.84,2.37-3.07,3.92-3.71
		c1.84-0.64,3.57-0.51,5.2,0.37C314.19,48,315.11,49.25,315.32,50.88z M295.7,56.18c0.64-0.78,1.7-0.99,3.18-0.64
		c-1.42-1.77-3.08-2.61-4.98-2.54c-1.2,0-1.84,0.64-1.91,1.91c0,0.85,0.25,1.63,0.74,2.33c0.56,0.78,1.34,1.45,2.33,2.01
		c0.35,0.21,0.64,0.25,0.85,0.11C295.14,58.02,295.07,56.96,295.7,56.18z M297.72,41.76c0.64,0.28,1.02,0.42,1.17,0.42
		c-1.13-1.55-2.37-2.47-3.71-2.76c-0.78-0.14-1.43-0.02-1.96,0.37c-0.53,0.39-0.83,0.97-0.9,1.75c-0.07,0.78,0.11,1.56,0.53,2.33
		c0.71,1.27,1.84,2.12,3.39,2.54c-0.78-1.06-1.24-1.77-1.38-2.12c-0.35-1.06-0.18-1.91,0.53-2.54
		C295.95,41.33,296.73,41.33,297.72,41.76z M298.46,28.61c0.07,0.07,0.49,0.28,1.27,0.64c-0.5-1.77-1.45-2.9-2.86-3.39
		c-1.77-0.64-3.01-0.11-3.71,1.59c-0.42,1.2-0.21,2.46,0.64,3.76c0.85,1.31,1.94,2.03,3.29,2.17c-0.64-0.64-1.1-1.27-1.38-1.91
		c-0.5-0.99-0.42-1.84,0.21-2.54C296.48,28.29,297.33,28.18,298.46,28.61z M301.53,14.61c0.42-0.78,0.85-1.31,1.27-1.59
		c0.64-0.49,1.27-0.65,1.91-0.48c0.64,0.18,1.13,0.58,1.48,1.22c0.42,0.85,0.53,1.73,0.32,2.65c0,0.07-0.14,0.64-0.42,1.7
		c1.98-1.98,2.76-4.13,2.33-6.47c-0.21-1.55-1.13-2.58-2.76-3.08c-1.27-0.35-2.37-0.03-3.29,0.95c-1.27,1.48-1.73,3.46-1.38,5.94
		L301.53,14.61z M313.94,52.25c0.28-1.2,0-2.26-0.85-3.18c-0.85-0.85-1.87-1.33-3.08-1.43c-1.2-0.11-2.26,0.2-3.18,0.9
		c-1.77,1.34-2.9,3.36-3.39,6.04c0.14-0.07,0.39-0.35,0.74-0.85c1.27-1.48,2.61-2.19,4.03-2.12c1.34,0.14,2.08,0.85,2.23,2.12
		c0.14,1.13-0.21,2.12-1.06,2.97c0,0.07-0.5,0.53-1.48,1.38C311.08,57.24,313.09,55.29,313.94,52.25z M305.25,37.83
		c-0.85,0.99-1.34,1.84-1.48,2.54c0.14-0.07,0.35-0.21,0.64-0.42c0.71-0.64,1.52-1.06,2.44-1.27c0.71-0.14,1.27-0.03,1.7,0.32
		c0.42,0.35,0.6,0.88,0.53,1.59c0,0.85-0.46,1.7-1.38,2.54c-0.07,0.07-0.18,0.14-0.32,0.21c-0.14,0.07-0.27,0.16-0.37,0.26
		s-0.23,0.23-0.37,0.37c0.49,0,1.02-0.14,1.59-0.42c2.05-0.99,3.29-2.44,3.71-4.35c0.35-1.13,0.14-2.07-0.64-2.81
		c-0.78-0.74-1.73-0.97-2.86-0.69C307.15,36,306.09,36.7,305.25,37.83z M308.11,22.78c-1.48,0.99-2.51,2.37-3.07,4.13
		c1.2-0.85,2.16-1.38,2.86-1.59c0.85-0.21,1.48-0.03,1.91,0.53c0.42,0.64,0.46,1.34,0.11,2.12c-0.35,0.5-0.92,1.03-1.7,1.59
		c-0.5,0.28-0.78,0.5-0.85,0.64c1.48-0.42,2.69-1.09,3.61-2.01c0.85-0.92,1.31-1.84,1.38-2.76c0.07-1.27-0.32-2.16-1.17-2.65
		C310.19,22.14,309.17,22.14,308.11,22.78z"/>
	<path class="st0" d="M362.18,45.68c0.28,0.21,0.32,0.67,0.11,1.38c-0.92,3.6-2.51,6.43-4.77,8.48c-2.19,1.91-4.63,3.18-7.32,3.82
		c-0.64,0.14-1.01,0.28-1.11,0.42c-0.11,0.14-0.16,0.53-0.16,1.17c-0.21,5.73-1.24,11.84-3.08,18.34c-0.28,0.85-0.53,1.45-0.74,1.8
		c-0.21,0.35-0.46,0.5-0.74,0.42c-0.21-0.07-0.32-0.32-0.32-0.74c0-0.28,0.07-0.74,0.21-1.38c1.34-4.52,2.3-8.91,2.86-13.15
		c0.21-2.26,0.32-3.96,0.32-5.09c0-0.42-0.05-0.67-0.16-0.74c-0.11-0.07-0.34-0.04-0.69,0.11c-2.12,0.57-4.45,0.5-7-0.21
		c-1.91-0.57-4.63-1.52-8.16-2.86h-0.11c-0.07,0-0.18-0.03-0.32-0.11c-0.64-0.28-0.92-0.64-0.85-1.06c0.07-0.56,0.53-0.85,1.38-0.85
		c0.56,0,1.43-0.03,2.6-0.11c1.17-0.07,2.12-0.12,2.86-0.16c0.74-0.04,1.63-0.04,2.65,0c1.02,0.04,1.96,0.16,2.81,0.37
		c1.34,0.35,2.47,0.74,3.39,1.17c0.28,0.14,0.6,0.27,0.95,0.37c0.35,0.11,0.53-0.02,0.53-0.37c-0.07-0.64-0.14-1.38-0.21-2.23
		c-0.07-0.28-0.25-0.39-0.53-0.32c-0.14,0-0.25,0.04-0.32,0.11c-1.7,0.5-3.57,0.42-5.62-0.21c-5.51-1.63-8.87-2.61-10.07-2.97
		c-0.07,0-0.18,0-0.32,0c-0.57-0.21-0.85-0.53-0.85-0.95c0-0.49,0.35-0.81,1.06-0.96c0.42-0.14,2.12-0.32,5.09-0.53
		c0.71-0.07,1.77-0.05,3.18,0.05c1.41,0.11,2.3,0.16,2.65,0.16c-2.76-0.49-4.81-1.02-6.15-1.59c-0.42-0.14-1.03-0.37-1.8-0.69
		c-0.78-0.32-1.31-0.55-1.59-0.69c-0.64-0.21-0.92-0.53-0.85-0.95c0-0.49,0.35-0.81,1.06-0.95c1.77-0.35,3.71-0.42,5.83-0.21
		c2.76,0.21,5.09,0.71,7,1.48c0.35,0.14,0.58,0.16,0.69,0.05c0.11-0.11,0.16-0.3,0.16-0.58c-0.07-0.07-0.11-0.12-0.11-0.16
		c0-0.03,0-0.09,0-0.16c-0.14-0.92-0.32-1.45-0.53-1.59c-0.21-0.14-0.78-0.18-1.7-0.11c-2.26,0.21-4.91-0.18-7.95-1.17
		c-0.35-0.07-2.33-0.71-5.94-1.91c-0.14-0.07-0.32-0.17-0.53-0.32c-0.42-0.21-0.64-0.49-0.64-0.85c0-0.42,0.25-0.71,0.74-0.85
		c0.64-0.21,1.34-0.35,2.12-0.42c4.1-0.28,8.02,0.32,11.77,1.8c0.64,0.28,1.02,0.39,1.17,0.32c0.07-0.14,0.11-0.25,0.11-0.32
		c0-0.07-0.04-0.21-0.11-0.42c-0.07-0.21-0.11-0.35-0.11-0.42c-0.07-0.14-0.14-0.42-0.21-0.85c-0.14-0.35-0.39-0.49-0.74-0.42
		c-1.06,0-1.75,0.05-2.07,0.16c-0.32,0.11-0.97,0.05-1.96-0.16c-0.99-0.21-1.64-0.35-1.96-0.42c-0.32-0.07-0.97-0.25-1.96-0.53
		c-0.99-0.28-1.63-0.46-1.91-0.53c-0.64-0.21-1.73-0.6-3.29-1.17c-0.42-0.14-0.88-0.35-1.38-0.64c-0.35-0.21-0.5-0.49-0.42-0.85
		c0.07-0.35,0.28-0.57,0.64-0.64c0.92-0.07,1.55-0.11,1.91-0.11c4.52-0.14,8.31,0.32,11.35,1.38h0.32c0-0.07-0.07-0.46-0.21-1.17
		c-0.14-0.42-0.46-0.57-0.95-0.42c-1.98,0.35-4.67-0.04-8.06-1.17c-1.34-0.49-2.79-1.17-4.35-2.01c-0.35-0.14-0.6-0.28-0.74-0.42
		c-0.71-0.64-0.64-1.17,0.21-1.59c0.28-0.07,0.64-0.14,1.06-0.21c4.03-0.14,7.46,0.57,10.29,2.12c0.49,0.21,0.85,0.28,1.06,0.21
		c0-0.21-0.21-0.78-0.64-1.7c-0.14-0.28-0.39-0.46-0.74-0.53c-1.27,0-2.6-0.21-3.98-0.64c-1.38-0.42-2.49-0.86-3.34-1.33
		c-0.85-0.46-2.01-1.11-3.5-1.96c-0.5-0.28-1.1-0.67-1.8-1.17c-0.5-0.35-0.71-0.74-0.64-1.17c0.14-0.49,0.56-0.74,1.27-0.74
		c0.49,0,0.95,0.04,1.38,0.11c3.53,0.64,6.43,1.66,8.69,3.08c0.35,0.28,0.64,0.42,0.85,0.42c0.14-0.21,0.07-0.42-0.21-0.64
		c-1.34-0.71-2.62-1.94-3.82-3.71c-1.91-2.76-3.68-5.69-5.3-8.8c-0.14-0.28-0.28-0.6-0.42-0.95c-0.14-0.42-0.07-0.76,0.21-1.01
		c0.28-0.25,0.6-0.3,0.95-0.16c0.28,0.14,0.49,0.28,0.64,0.42c3.32,2.4,5.83,5.16,7.53,8.27c0.64,1.2,1.17,2.83,1.59,4.88
		c0.07,0.5,0.14,0.78,0.21,0.85c0.14-0.07,0.28-0.35,0.42-0.85c0.28-1.34,0.76-3.23,1.43-5.67c0.67-2.44,1.11-4.05,1.33-4.82
		c0.14-0.42,0.3-0.74,0.48-0.95c0.18-0.21,0.41-0.28,0.69-0.21c0.56,0.07,0.85,0.53,0.85,1.38c0.21,4.1-0.04,7.46-0.74,10.07
		c-0.42,1.34-1.17,2.65-2.23,3.92c-0.35,0.5-0.53,0.85-0.53,1.06s0.21,0.6,0.64,1.17c0.71-1.55,1.1-2.37,1.17-2.44
		c0.28-0.64,0.74-1.47,1.38-2.49c0.64-1.02,1.06-1.71,1.27-2.07c0.56-1.06,1.2-2.37,1.91-3.92c0.35-0.85,0.78-1.2,1.27-1.06
		c0.49,0.07,0.74,0.57,0.74,1.48c-0.21,4.45-1.42,8.2-3.61,11.24c-0.64,0.85-1.27,1.52-1.91,2.01c-0.57,0.35-0.87,0.64-0.9,0.85
		c-0.04,0.21,0.05,0.6,0.27,1.17c0.07,0.28,0.18,0.46,0.32,0.53l0.21-0.11c0.64-1.06,1.61-2.54,2.92-4.45
		c1.31-1.91,2.17-3.22,2.6-3.92c0.14-0.14,0.3-0.39,0.48-0.74c0.17-0.35,0.33-0.6,0.48-0.74c0.35-0.57,0.72-0.78,1.11-0.64
		c0.39,0.14,0.58,0.5,0.58,1.06c0,0.21-0.07,1.1-0.21,2.65c-0.21,2.12-0.71,3.96-1.48,5.51c-1.06,2.12-2.65,3.68-4.77,4.67
		c-0.42,0.21-0.65,0.37-0.69,0.48c-0.04,0.11,0.02,0.37,0.16,0.79l0.42,1.27c0.14,0.07,0.28,0,0.42-0.21
		c0.64-1.41,1.87-3.14,3.71-5.2c0.85-0.92,1.84-2.12,2.97-3.61c0.21-0.35,0.39-0.6,0.53-0.74c0.21-0.28,0.46-0.39,0.74-0.32
		c0.35,0.14,0.57,0.39,0.64,0.74c0,0.21,0,0.39,0,0.53c-0.71,3.82-1.91,6.75-3.61,8.8c-1.06,1.27-2.23,2.23-3.5,2.86
		c-0.5,0.28-0.78,0.51-0.85,0.69c-0.07,0.18-0.04,0.55,0.11,1.11c0.07,0.5,0.14,0.78,0.21,0.85c0.14,0,0.32-0.18,0.53-0.53
		c0.85-1.55,1.98-3,3.39-4.35c2.76-2.76,4.52-4.7,5.3-5.83c0.21-0.21,0.39-0.35,0.53-0.42c0.64-0.42,1.02-0.28,1.17,0.42
		c0.07,0.28,0.03,0.6-0.11,0.95c-1.48,4.74-3.46,8.31-5.94,10.71c-1.13,1.06-2.23,1.84-3.29,2.33c-0.42,0.21-0.67,0.39-0.74,0.53
		c-0.07,0.14-0.07,0.42,0,0.85c0,0.28,0.03,0.67,0.11,1.17l0.11,0.11h0.21c1.48-1.84,3.92-4.03,7.32-6.57
		c1.41-1.06,2.54-2.05,3.39-2.97c0.14-0.14,0.25-0.28,0.32-0.42c0.49-0.42,0.94-0.51,1.33-0.26c0.39,0.25,0.48,0.69,0.27,1.33
		c-0.21,0.5-0.67,1.45-1.38,2.86c-1.56,2.97-3.25,5.2-5.09,6.68c0.35,0,0.67-0.11,0.95-0.32c0.07,0,0.79-0.53,2.17-1.59
		c1.38-1.06,2.39-1.87,3.02-2.44c0.07-0.07,0.14-0.14,0.21-0.21C361.37,45.57,361.83,45.47,362.18,45.68z M329.42,21.5
		c3.11,1.91,5.83,3,8.16,3.29C335.32,23.02,332.6,21.93,329.42,21.5z M331.12,27.87c1.13,0.71,2.56,1.29,4.29,1.75
		c1.73,0.46,3.13,0.62,4.19,0.48C336.98,28.61,334.16,27.87,331.12,27.87z M331.65,11.43c2.12,4.03,3.99,6.79,5.62,8.27
		C336.56,16.8,334.69,14.05,331.65,11.43z M341.93,41.33c0.56,0.07,1.17,0,1.8-0.21c-3.46-1.7-7.39-2.44-11.77-2.23
		c1.63,0.57,2.47,0.85,2.54,0.85C337.27,40.73,339.74,41.26,341.93,41.33z M332.92,33.49c1.63,0.78,3.39,1.33,5.3,1.64
		c1.91,0.32,3.29,0.3,4.14-0.05C339.46,33.95,336.31,33.42,332.92,33.49z M346.07,52.46c0-0.14-0.18-0.32-0.53-0.53
		c-0.78-0.42-1.45-0.74-2.01-0.95c-2.48-0.78-5.66-0.95-9.54-0.53c2.47,0.71,3.78,1.1,3.92,1.17c1.91,0.57,3.14,0.95,3.71,1.17
		c0.92,0.21,2.16,0.25,3.71,0.11C345.75,52.89,346,52.75,346.07,52.46z M345.75,59.15c0.35-0.14,0.53-0.28,0.53-0.42
		c0-0.14-0.18-0.32-0.53-0.53c-0.07,0-0.21-0.03-0.42-0.11c-2.69-1.27-6.22-1.73-10.6-1.38l-0.42,0.21
		c3.46,1.34,6.22,2.16,8.27,2.44C343.7,59.5,344.76,59.43,345.75,59.15z M334.72,45.57c0.99,0.28,1.68,0.5,2.07,0.64
		c0.39,0.14,1.01,0.34,1.86,0.58c0.85,0.25,1.55,0.41,2.12,0.48c0.56,0.07,1.22,0.11,1.96,0.11s1.47-0.07,2.17-0.21
		c-1.13-0.78-2.9-1.34-5.3-1.7C337.2,45.11,335.57,45.15,334.72,45.57z M343.31,15.46c-1.06,3.11-1.7,5.69-1.91,7.74
		C342.6,21.36,343.24,18.78,343.31,15.46z M346.49,50.56c0.14-0.07,0.14-0.42,0-1.06c-0.07-0.49-0.16-0.78-0.27-0.85
		c-0.11-0.07-0.41-0.07-0.9,0c-1.42,0.21-2.69,0.28-3.82,0.21c0.35,0.14,0.99,0.35,1.91,0.64c0.92,0.28,1.63,0.53,2.12,0.74
		C346.03,50.52,346.35,50.63,346.49,50.56z M347.55,20.66c-0.21,0.35-0.73,1.13-1.54,2.33c-0.81,1.2-1.41,2.23-1.8,3.07
		c-0.39,0.85-0.69,1.73-0.9,2.65C345.57,26.88,346.99,24.19,347.55,20.66z M350.31,25.75c-0.28,0.57-1.11,1.84-2.49,3.82
		c-1.38,1.98-2.32,3.6-2.81,4.88c1.34-0.28,2.58-1.34,3.71-3.18C349.85,29.42,350.38,27.58,350.31,25.75z M347.55,38.36
		c-0.35,0.64-0.46,1.1-0.32,1.38c2.54-1.63,4.2-4.03,4.98-7.21c-0.92,0.92-1.38,1.42-1.38,1.48
		C349.21,35.85,348.12,37.3,347.55,38.36z M354.87,37.3c-1.13,1.06-2.01,1.89-2.65,2.49c-0.64,0.6-1.36,1.45-2.17,2.54
		c-0.81,1.1-1.4,2.17-1.75,3.23C351.12,44.02,353.31,41.26,354.87,37.3z M348.82,56.6c1.06-1.63,2.47-3.22,4.24-4.77
		c-1.42,0.71-2.72,1.2-3.92,1.48c-0.5,0.07-0.71,0.35-0.64,0.85C348.51,54.3,348.61,55.12,348.82,56.6z M349.78,50.56
		c-0.28,0.42-0.39,0.71-0.32,0.85c1.34,0,2.92-0.88,4.72-2.65c1.8-1.77,2.99-3.46,3.55-5.09c-0.14,0.07-0.92,0.6-2.33,1.59
		C352.78,47.31,350.91,49.07,349.78,50.56z M349.99,57.87c2.12-0.28,4.28-1.43,6.47-3.45c2.19-2.01,3.32-3.87,3.39-5.57
		c-0.42,0.35-1.24,0.95-2.44,1.8c-1.2,0.85-2.21,1.61-3.02,2.28c-0.81,0.67-1.57,1.36-2.28,2.07
		C351.12,55.93,350.42,56.88,349.99,57.87z"/>
	<path class="st0" d="M402.26,29.77c-0.14,0.21-0.81,1.06-2.01,2.54c-1.2,1.48-2.09,2.65-2.65,3.5l-0.11,0.32
		c0.07,0.07,0.17,0.07,0.32,0c2.05-1.06,4.95-1.77,8.7-2.12c2.26-0.21,4.13-0.46,5.62-0.74c0.49-0.14,0.78-0.21,0.85-0.21
		c0.56-0.07,0.97,0.04,1.22,0.32c0.25,0.28,0.3,0.71,0.16,1.27c-0.35,1.48-0.88,2.9-1.59,4.24c-1.42,2.69-2.93,4.63-4.56,5.83
		c-2.33,1.7-4.98,2.33-7.95,1.91c-2.12-0.35-4.1-1.17-5.94-2.44c-0.35-0.28-0.64-0.46-0.85-0.53c-0.28-0.21-0.5-0.18-0.64,0.11
		c-0.57,0.99-0.92,1.7-1.06,2.12c-2.12,4.6-3.6,9.58-4.45,14.95c-0.21,1.34-0.71,4.56-1.48,9.65c-0.07,0.42,0,0.74,0.21,0.96
		c0.85-1.41,1.31-2.16,1.38-2.23c0.64-0.99,1.24-1.84,1.8-2.54c0.42-0.49,0.53-1.06,0.32-1.7c-0.78-2.4-0.99-4.88-0.64-7.42
		c0.07-0.64,0.21-1.13,0.42-1.48c0.64-0.85,1.31-0.88,2.01-0.11c0.42,0.42,0.74,0.99,0.95,1.7c0.42,1.63,0.53,2.97,0.32,4.03
		c0,0.07,0,0.25,0,0.53l0.11,0.21c0.21-0.14,0.71-0.64,1.48-1.49c0.14-0.14,0.14-0.49,0-1.06c-0.42-2.05-0.6-3.5-0.53-4.35
		c0-0.64,0.11-1.27,0.32-1.91c0.07-0.49,0.32-0.88,0.74-1.17c0.35-0.42,0.76-0.6,1.22-0.53c0.46,0.07,0.83,0.35,1.11,0.85
		c0.49,0.78,0.71,1.66,0.64,2.65c0,0.07-0.04,0.78-0.11,2.12c0.49-0.28,1.24-0.88,2.23-1.8c1.06-0.64,1.63-0.99,1.7-1.06
		c0.35-0.21,0.67-0.35,0.95-0.42c0.42-0.14,0.71-0.07,0.85,0.21c0.14,0.21,0.07,0.46-0.21,0.74c-0.14,0.14-0.42,0.35-0.85,0.64
		c0,0.07-0.39,0.35-1.17,0.85l-0.32,0.32c-0.85,0.5-1.42,0.95-1.7,1.38c0.14,0.07,0.6,0.07,1.38,0c0.85,0,1.52,0.14,2.01,0.42
		c0.99,0.57,1.09,1.31,0.32,2.23c-0.36,0.35-0.88,0.64-1.59,0.85c-1.56,0.5-3.01,0.5-4.35,0c-0.99-0.28-1.73-0.04-2.23,0.74
		c-0.07,0-0.2,0.11-0.37,0.32c-0.18,0.21-0.3,0.39-0.37,0.53c0.14,0,0.74-0.11,1.8-0.32c1.06-0.21,1.87-0.25,2.44-0.11
		c0.78,0.21,1.25,0.6,1.43,1.17c0.18,0.57,0.02,1.17-0.48,1.8c-0.64,0.71-1.63,1.1-2.97,1.17c-1.63,0.14-3,0.07-4.13-0.21
		c-0.71-0.21-1.27-0.03-1.7,0.53c-1.41,1.91-2.9,4.28-4.45,7.1c-0.21,0.5-0.32,0.95-0.32,1.38c0.07,2.62,0.14,4.17,0.21,4.67
		c0.07,0.28,0.07,0.6,0,0.95c0,0.35-0.14,0.57-0.42,0.64c-0.28,0-0.5-0.14-0.64-0.42c-0.21-0.42-0.32-0.78-0.32-1.06
		c-0.42-3.11-0.46-5.55-0.11-7.32c0.49-3.32,0-7.67-1.48-13.04c-0.21-0.64-0.67-0.99-1.38-1.06c-1.42-0.14-2.79-0.53-4.14-1.17
		c-0.99-0.49-1.66-1.09-2.01-1.8c-0.5-0.85-0.53-1.59-0.11-2.23c0.42-0.56,1.13-0.74,2.12-0.53c0.49,0.07,1.27,0.46,2.33,1.17
		c0.57,0.35,0.92,0.5,1.06,0.42c-0.07-0.49-0.35-1.13-0.85-1.91c-0.07-0.21-0.42-0.32-1.06-0.32c-1.2-0.07-2.47-0.49-3.82-1.27
		c-0.42-0.21-0.81-0.53-1.17-0.95c-0.64-0.71-0.81-1.34-0.53-1.91c0.35-0.64,1.02-0.88,2.01-0.74c0.42,0.07,0.96,0.25,1.59,0.53
		c0.49,0.21,0.81,0.32,0.95,0.32c-0.64-1.06-1.06-1.73-1.27-2.01c-0.07-0.07-0.12-0.12-0.16-0.16c-0.04-0.03-0.09-0.09-0.16-0.16
		c-0.07-0.21-0.32-0.64-0.74-1.27c-0.64-0.85-0.78-1.41-0.42-1.7c0.42-0.21,0.92,0.11,1.48,0.96c0.21,0.21,0.96,1.27,2.23,3.18
		c0,0.07,0.14,0.32,0.42,0.74c0.14-0.14,0.28-0.49,0.42-1.06c0.35-1.27,0.85-2.26,1.48-2.97c0.57-0.57,1.13-0.78,1.7-0.64
		c0.64,0.14,1.02,0.64,1.17,1.49c0.14,0.64,0.07,1.45-0.21,2.44c-0.42,1.34-1.13,2.69-2.12,4.03c-0.35,0.57-0.39,1.06-0.11,1.48
		c0.07,0.14,0.18,0.41,0.32,0.79c0.14,0.39,0.28,0.65,0.42,0.8c0.07-0.07,0.21-0.46,0.42-1.17c0.49-1.55,1.2-2.83,2.12-3.82
		c0.78-0.78,1.45-1.06,2.01-0.85c0.71,0.28,0.96,1.03,0.74,2.23c-0.5,2.54-1.56,4.88-3.18,7c-0.42,0.5-0.53,1.03-0.32,1.59
		c0.21,0.57,0.46,1.38,0.74,2.44c0.28,1.06,0.42,1.66,0.42,1.8c1.34-9.4,4.06-17.5,8.16-24.28l-1.91-0.21
		c-2.12-0.28-3.75-1.41-4.88-3.39c-0.57-1.06-1.06-2.51-1.48-4.35c-0.92-3.75-1.77-6.79-2.54-9.12c-0.14-0.35-0.21-0.64-0.21-0.85
		c-0.07-0.71,0.28-1.09,1.06-1.17c0.14,0,0.35,0,0.64,0c3.25,0.71,5.76,1.63,7.53,2.76c3.53,2.4,5.34,5.62,5.41,9.65
		c0,0.07,0.03,0.25,0.11,0.53c0.14,0,0.35-0.18,0.64-0.53c1.34-1.7,2.44-3.08,3.29-4.13c0.28-0.35,0.41-0.58,0.37-0.69
		c-0.04-0.11-0.2-0.3-0.48-0.58c-2.19-1.7-3.08-4.1-2.65-7.21c0.35-2.54,1.63-4.73,3.82-6.57c1.06-0.92,2.76-2.01,5.09-3.29
		c2.76-1.48,4.63-2.56,5.62-3.23c0.99-0.67,1.66-0.44,2.01,0.69c0.21,0.92,0.46,2.62,0.74,5.09c0.49,4.1,0.32,7.56-0.53,10.39
		c-0.5,1.63-1.17,3.04-2.01,4.24c-0.99,1.34-2.37,2.23-4.14,2.65c-1.77,0.42-3.43,0.21-4.98-0.64c-0.28-0.21-0.46-0.32-0.53-0.32
		C402.97,29.28,402.62,29.35,402.26,29.77z M374.91,49.81c0.64,0.85,1.55,1.34,2.76,1.48C376.74,50.31,375.83,49.81,374.91,49.81z
		 M380.31,57.55c0.07-0.07,0.11-0.14,0.11-0.21c-0.92-0.78-1.42-1.2-1.48-1.27c-0.71-0.49-1.38-0.85-2.01-1.06
		c-0.21-0.07-0.39-0.04-0.53,0.11c-0.07,0.07-0.04,0.21,0.11,0.42c0.14,0.28,0.39,0.53,0.74,0.74
		C378.16,56.92,379.18,57.34,380.31,57.55z M381.91,45.79c-0.71,0.99-1.03,2.37-0.95,4.13c0.92-1.2,1.45-2.51,1.59-3.92
		c0.07-0.28,0.04-0.42-0.11-0.42C382.29,45.5,382.12,45.57,381.91,45.79z M385.83,51.3c-0.57,0.35-1.04,1.03-1.43,2.01
		c-0.39,0.99-0.58,1.98-0.58,2.97C385.09,54.87,385.76,53.21,385.83,51.3z M395.16,34.55c0.28-0.42,0.42-0.92,0.42-1.48
		c-0.07-3.61-1.73-6.4-4.98-8.38c-1.34-0.85-3.18-1.55-5.51-2.12c-0.42-0.07-0.67-0.07-0.74,0c-0.07,0.21-0.07,0.46,0,0.74
		c0.21,0.57,1.09,3.75,2.65,9.54c0.35,1.42,0.85,2.54,1.49,3.39c0.56,0.78,1.38,1.34,2.44,1.7c0-0.07-0.11-0.32-0.32-0.74
		c-0.5-0.71-0.85-1.34-1.06-1.91c-0.35-0.85-0.25-1.31,0.32-1.38c0.28-0.07,0.6,0.18,0.95,0.74c0.71,0.99,1.06,1.52,1.06,1.59
		c-0.07-0.57-0.42-1.91-1.06-4.03c-0.21-0.71-0.32-1.2-0.32-1.48c0-0.49,0.12-0.78,0.37-0.85c0.25-0.07,0.51,0.09,0.79,0.48
		c0.28,0.39,0.49,0.87,0.64,1.43c0.07,0.21,0.39,1.31,0.96,3.29c0.28-0.35,0.39-0.85,0.32-1.49c0-0.21-0.11-0.85-0.32-1.91
		c-0.14-0.71-0.18-1.27-0.11-1.7c0-0.28,0.11-0.46,0.32-0.53c0.21-0.07,0.42,0,0.64,0.21c0.21,0.28,0.39,0.74,0.53,1.38
		C394.98,32.32,395.16,33.49,395.16,34.55z M390.49,57.87c-0.21,2.33-0.18,4.13,0.11,5.41C391.45,61.37,391.41,59.57,390.49,57.87z
		 M397.39,64.45c-1.13,0-2.33,0.36-3.61,1.06c0.99,0.35,2.01,0.35,3.08,0c0.28-0.07,0.57-0.18,0.85-0.32
		c0.21-0.14,0.28-0.32,0.21-0.53C397.84,64.52,397.67,64.45,397.39,64.45z M395.79,53.53c-0.85,1.13-0.92,2.69-0.21,4.67
		C396.29,56.35,396.36,54.8,395.79,53.53z M399.08,37.09c-1.06,0.57-1.87,1.17-2.44,1.8c0.28-0.07,0.95-0.25,2.01-0.53
		c0.92-0.21,1.59-0.32,2.01-0.32s0.67,0.14,0.74,0.42c0.14,0.28-0.04,0.53-0.53,0.74c-0.28,0.14-1.03,0.42-2.23,0.85
		c-1.06,0.28-1.8,0.53-2.23,0.74c1.77,0.14,3.22,0.14,4.35,0c0.64-0.07,1.55-0.27,2.76-0.58c1.2-0.32,1.91-0.51,2.12-0.58
		c0.64-0.14,1.1-0.17,1.38-0.11c0.28,0.07,0.44,0.2,0.48,0.37c0.04,0.18-0.05,0.34-0.26,0.48c-0.5,0.28-1.2,0.57-2.12,0.85
		c-2.83,0.71-4.95,1.13-6.36,1.27c0.64,0.21,1.45,0.32,2.44,0.32c0.64,0,1.13,0.07,1.48,0.21c0.35,0.14,0.56,0.32,0.64,0.53
		c0,0.28-0.21,0.53-0.64,0.74c-0.14,0-0.53,0.04-1.17,0.11c-1.13,0-2.54-0.17-4.24-0.53l0.21,0.32c1.98,0.92,3.98,1.22,5.99,0.9
		s3.76-1.29,5.25-2.92c1.7-1.77,2.97-3.96,3.82-6.57c0.14-0.42,0.16-0.69,0.05-0.79c-0.11-0.11-0.37-0.12-0.79-0.05
		c-0.92,0.21-2.28,0.41-4.08,0.58c-1.8,0.18-3.02,0.3-3.66,0.37C402.16,36,400.5,36.45,399.08,37.09z M401.42,60.21
		c-1.06-0.28-2.12-0.14-3.18,0.42C399.44,60.84,400.5,60.7,401.42,60.21z M400.57,25.32c0.28,0.5,0.64,0.88,1.06,1.17
		c0.35,0.21,0.57,0.11,0.64-0.32c0-0.07,0-0.16,0-0.26c0-0.11,0-0.19,0-0.27c0.07-1.55,0.46-3.22,1.17-4.98
		c0.42-0.99,0.85-1.34,1.27-1.06c0.35,0.21,0.42,0.71,0.21,1.48c-0.14,0.35-0.3,0.87-0.48,1.54c-0.18,0.67-0.3,1.11-0.37,1.33
		c-0.14,0.42-0.11,0.74,0.11,0.95c1.2-1.63,1.87-2.51,2.01-2.65c1.7-2.33,2.65-3.61,2.86-3.82c0.49-0.49,0.85-0.64,1.06-0.42
		c0.28,0.14,0.21,0.53-0.21,1.17c-0.64,0.99-1.38,2.09-2.23,3.29c-0.14,0.21-1.03,1.45-2.65,3.71c0.28,0,0.56-0.07,0.85-0.21
		c0.71-0.42,1.7-1.17,2.97-2.23c0.49-0.42,0.92-0.71,1.27-0.85c0.28-0.07,0.48-0.03,0.58,0.11c0.11,0.14,0.12,0.32,0.05,0.53
		c-0.14,0.35-0.46,0.74-0.95,1.17c-1.48,1.27-2.9,2.26-4.24,2.97c-0.07,0.07-0.16,0.12-0.27,0.16c-0.11,0.04-0.2,0.09-0.26,0.16
		c-0.28,0.14-0.41,0.26-0.37,0.37c0.03,0.11,0.16,0.23,0.37,0.37c0.21,0.07,0.39,0.14,0.53,0.21c0.92,0.28,2,0.27,3.23-0.05
		c1.24-0.32,2.17-0.9,2.81-1.75c0.92-1.27,1.59-2.83,2.01-4.67c0.78-3.25,0.71-7.53-0.21-12.83c-0.07-0.49-0.35-0.6-0.85-0.32
		c-0.64,0.28-1.95,0.99-3.92,2.12c-2.83,1.63-4.67,2.76-5.51,3.39c-1.48,1.13-2.47,2.48-2.97,4.03
		C399.29,21.19,399.44,23.34,400.57,25.32z"/>
	<path class="st0" d="M469.27,48.12c0.42,0.21,0.64,0.74,0.64,1.59c-0.07,4.45-0.5,8.63-1.27,12.51c-0.57,2.9-2.01,5.23-4.35,7
		c-2.05,1.56-4.24,2.05-6.57,1.49c-1.7-0.42-2.65-1.52-2.86-3.29l-0.11-0.32c-0.07-0.57-0.16-0.88-0.26-0.95
		c-0.11-0.07-0.44,0.07-1.01,0.42c-2.26,1.27-4.56,1.91-6.89,1.91c-0.42,0-0.78,0.25-1.06,0.74c-1.42,2.62-3.01,5.23-4.77,7.85
		c-0.85,1.2-1.59,2.09-2.23,2.65c-0.64,0.64-1.1,0.78-1.38,0.42c-0.35-0.35-0.25-0.85,0.32-1.48c1.91-2.12,4.06-5.34,6.47-9.65
		c0.28-0.56,0.42-0.92,0.42-1.06s-0.21-0.46-0.64-0.96c-1.34-1.55-2.44-3.25-3.29-5.09c-0.28-0.42-0.5-0.67-0.64-0.74
		c-0.78,0.85-1.17,1.31-1.17,1.38c-1.06,0.99-2.17,1.42-3.34,1.27c-1.17-0.14-2.14-0.81-2.92-2.01c-0.71-1.06-1.31-2.44-1.8-4.13
		c-0.71-2.33-1.17-3.89-1.38-4.67c-0.57-1.98-1.31-3.85-2.23-5.62c-0.21-0.42-0.35-0.78-0.42-1.06c-0.35-0.99,0.04-1.52,1.17-1.59
		c0.35,0,0.78,0.04,1.27,0.11c5.73,1.2,9.26,1.98,10.6,2.33c2.12,0.71,3.75,1.52,4.88,2.44c1.7,1.27,2.65,2.69,2.86,4.24
		c0.14,1.42-0.32,2.69-1.38,3.82s-2.3,1.7-3.71,1.7h-0.53c-0.21-0.07-0.37-0.05-0.48,0.05c-0.11,0.11-0.12,0.26-0.05,0.48
		c0.78,2.12,1.94,4.1,3.5,5.94c0.35,0.42,0.64,0.39,0.85-0.11c0.92-2.05,1.55-3.53,1.91-4.45c2.05-5.44,3.39-10.74,4.03-15.9v-0.21
		c0.14-0.64,0.16-1.06,0.05-1.27c-0.11-0.21-0.51-0.39-1.22-0.53c-1.2-0.21-2.37-0.78-3.5-1.7c-0.5-0.35-0.85-0.56-1.06-0.64
		c-0.07,0.14-0.12,0.28-0.16,0.42c-0.04,0.14-0.07,0.3-0.11,0.48c-0.04,0.18-0.09,0.3-0.16,0.37c-0.42,1.34-1.18,2.23-2.28,2.65
		c-1.1,0.42-2.25,0.32-3.45-0.32c-0.85-0.49-1.66-1.2-2.44-2.12c-0.28-0.42-1.06-1.63-2.33-3.61c-1.27-2.05-2.65-3.78-4.13-5.2
		c-1.27-1.2-1.06-2.08,0.64-2.65c3.04-0.92,6.01-1.24,8.91-0.96c2.33,0.21,3.57,0.35,3.71,0.42c1.48,0.35,2.65,0.81,3.5,1.38
		c0.78,0.57,1.31,1.31,1.59,2.23c0.28,0.92,0.28,1.84,0,2.76c-0.35,0.99-0.95,1.66-1.8,2.01c-0.35,0.21-0.6,0.39-0.74,0.53
		c1.27,1.42,2.76,2.3,4.45,2.65c0.49,0.07,0.78-0.14,0.85-0.64l0.11-2.23c-0.14-4.67-0.85-8.66-2.12-11.98
		c-0.07-0.28-0.14-0.46-0.21-0.53c-0.07-0.28-0.25-0.32-0.53-0.11c-0.07,0-0.21,0.11-0.42,0.32c-0.85,0.71-1.75,1.01-2.7,0.9
		s-1.79-0.62-2.49-1.54c-0.78-0.99-1.31-2.16-1.59-3.5c-0.35-1.2-0.85-3.22-1.49-6.04c-0.57-2.26-1.31-4.21-2.23-5.83
		c-0.14-0.21-0.21-0.39-0.21-0.53c-0.35-0.92-0.07-1.38,0.85-1.38c0.21,0,0.39,0,0.53,0c5.37,1.2,9.33,2.69,11.88,4.45
		c2.19,1.56,3.61,3.54,4.24,5.94c0.35,1.2,0.12,2.42-0.69,3.66c-0.81,1.24-1.89,1.86-3.23,1.86c-0.42,0-0.67,0.05-0.74,0.16
		c-0.07,0.11-0.04,0.41,0.11,0.9c0.92,2.47,1.59,4.88,2.01,7.21c0.28,1.91,0.42,4.45,0.42,7.63c0,0.35,0.07,0.6,0.21,0.74
		c1.48-0.57,2.79-1.48,3.92-2.76c-0.07-0.28-0.28-0.46-0.64-0.53c-1.42-0.21-2.37-0.95-2.86-2.23c-0.5-1.27-0.25-2.65,0.74-4.14
		c0.71-1.06,1.63-1.87,2.76-2.44c1.7-0.78,2.93-1.34,3.71-1.7c1.84-0.78,3.57-1.87,5.2-3.29c0.42-0.35,0.78-0.64,1.06-0.85
		c0.78-0.49,1.31-0.28,1.59,0.64c0.07,0.35,0.11,0.81,0.11,1.38c0.35,4.67,0.18,8.17-0.53,10.5c-0.5,1.7-1.24,3.11-2.23,4.24
		c-0.78,0.92-1.77,1.52-2.97,1.8c-1.77,0.28-3.01-0.35-3.71-1.91c-0.28-0.49-0.42-0.78-0.42-0.85c-0.14,0-0.39,0.14-0.74,0.42
		c-1.34,1.41-2.76,2.44-4.24,3.07c-0.71,0.28-1.13,0.88-1.27,1.8c-0.42,3.54-1.03,6.82-1.8,9.86c-0.99,3.6-2.26,7.25-3.82,10.92
		c-0.28,0.64-0.37,1.03-0.27,1.17c0.11,0.14,0.48,0.18,1.11,0.11c1.84-0.21,3.5-0.81,4.98-1.8c-0.07-0.21-0.35-0.39-0.85-0.53
		c-1.13-0.42-1.8-1.27-2.01-2.54c-0.28-2.12,0.46-3.92,2.23-5.41c0.85-0.71,2.3-1.41,4.35-2.12c0.14-0.07,0.64-0.27,1.48-0.58
		c0.85-0.32,1.52-0.55,2.01-0.69c2.61-0.99,5.05-2.47,7.32-4.45C468.32,48.08,468.85,47.91,469.27,48.12z M438.1,61.16
		c0.21-0.35,0.28-0.6,0.21-0.74c-0.07-0.14-0.28-0.21-0.64-0.21c-1.48,0-2.54-0.74-3.18-2.23c-0.35-0.71-0.74-1.63-1.17-2.76
		c-0.71-2.19-1.34-3.78-1.91-4.77c-0.85-1.48-1.7-2.54-2.54-3.18c-0.07,0.14-0.07,0.32,0,0.53c0.78,1.77,1.52,3.82,2.23,6.15
		c0.28,0.99,0.78,2.62,1.48,4.88c0.21,0.57,0.6,1.34,1.17,2.33c0.56,0.78,1.29,1.15,2.17,1.11
		C436.81,62.24,437.53,61.87,438.1,61.16z M438.53,48.44c-0.99-0.28-3.22-0.78-6.68-1.48c0.85,0.78,1.7,1.34,2.54,1.7
		c0.57,0.21,1.38,0.48,2.44,0.8c1.06,0.32,1.77,0.51,2.12,0.58c1.41,0.5,2.51,1.2,3.29,2.12c1.41,1.63,1.45,3.25,0.11,4.88
		c-0.35,0.42-0.53,0.71-0.53,0.85c1.34,0.28,2.47-0.18,3.39-1.38c0.85-1.06,1.02-2.19,0.53-3.39c-0.5-1.06-1.34-1.94-2.54-2.65
		C441.99,49.67,440.43,49,438.53,48.44z M437.78,58.83c0.92,0,1.27-0.46,1.06-1.38c-0.71-2.47-2.51-4.77-5.41-6.89h-0.21
		c-0.07,0.07-0.07,0.21,0,0.42c1.06,2.83,1.7,4.6,1.91,5.3c0.21,0.5,0.46,0.99,0.74,1.48C436.3,58.4,436.93,58.76,437.78,58.83z
		 M443.93,42.18c0.28-0.64,0.11-0.92-0.53-0.85c-1.2,0.07-2.33-0.42-3.39-1.48c-0.78-0.71-1.45-1.38-2.01-2.01
		c-0.92-1.13-2.33-2.26-4.24-3.39v0.32c0.71,0.85,1.98,2.72,3.82,5.62c0.85,1.42,1.8,2.4,2.86,2.97c0.71,0.35,1.41,0.42,2.12,0.21
		C443.26,43.35,443.72,42.89,443.93,42.18z M443.3,32.96c1.13,0.5,1.89,1.11,2.28,1.86c0.39,0.74,0.48,1.75,0.27,3.02
		c0.99-0.21,1.63-0.72,1.91-1.54c0.28-0.81,0.14-1.61-0.42-2.39c-0.71-0.99-1.8-1.63-3.29-1.91c-2.4-0.42-4.77-0.57-7.1-0.42
		c-1.34,0.14-2.19,0.28-2.54,0.42c0.92,0.14,2.58,0.21,4.98,0.21C440.71,32.14,442.02,32.39,443.3,32.96z M440.43,56.71
		c0.57-0.28,0.97-0.72,1.22-1.33c0.25-0.6,0.25-1.17,0-1.7c-0.25-0.53-0.62-0.97-1.11-1.33c-1.13-0.78-2.69-1.34-4.67-1.7
		c0.92,0.99,1.38,1.52,1.38,1.59c1.27,1.34,2.12,2.65,2.54,3.92C440.01,56.67,440.22,56.85,440.43,56.71z M441.18,39.21
		c0.49,0.42,1.06,0.64,1.7,0.64c0.35-0.07,0.57-0.21,0.64-0.42c0.07-0.28-0.04-0.53-0.32-0.74c-1.98-1.7-3.82-2.86-5.51-3.5
		c-0.07,0-0.14,0.07-0.21,0.21C439.66,37.66,440.89,38.93,441.18,39.21z M444.57,36.88c0.14-0.42,0.14-0.81,0-1.17
		c-0.21-0.49-0.57-0.85-1.06-1.06c-1.56-0.92-3.32-1.24-5.3-0.95c0.14,0.21,0.46,0.42,0.95,0.64c1.34,0.64,2.54,1.38,3.61,2.23
		c0.35,0.28,0.6,0.46,0.74,0.53C443.93,37.37,444.29,37.3,444.57,36.88z M447.54,25.96c0.28-0.21,0.42-0.39,0.42-0.53
		c0-0.14-0.21-0.28-0.64-0.42c-1.27-0.35-2.19-1.24-2.76-2.65c-0.21-0.64-0.39-1.38-0.53-2.23c-0.21-1.63-0.6-3.18-1.17-4.67
		c-0.64-1.48-1.48-2.65-2.54-3.5c0.35,0.99,1.17,4.07,2.44,9.22c0.28,1.27,0.64,2.33,1.06,3.18c0.28,0.64,0.6,1.13,0.95,1.48
		C445.7,26.63,446.62,26.66,447.54,25.96z M444.14,11.85c-0.28-0.14-0.53-0.11-0.74,0.11c0.28,0.21,0.74,0.5,1.38,0.85
		c2.05,1.06,3.07,1.63,3.07,1.7c1.7,0.99,2.93,2.37,3.71,4.13c0.71,1.56,0.64,2.97-0.21,4.24c-0.21,0.21-0.28,0.39-0.21,0.53
		c0.64,0,1.17-0.14,1.59-0.42c1.13-0.92,1.45-2.19,0.95-3.82c-0.42-1.48-1.2-2.69-2.33-3.61C449.59,14.08,447.18,12.85,444.14,11.85
		z M448.17,23.62c0.14-0.14,0.18-0.42,0.11-0.85c-0.5-2.12-1.48-4.17-2.97-6.15c-0.21-0.28-0.42-0.39-0.64-0.32
		c0.42,1.7,0.67,2.86,0.74,3.5c0.14,0.85,0.35,1.63,0.64,2.33c0.28,0.64,0.67,1.1,1.17,1.38C447.64,23.8,447.96,23.84,448.17,23.62z
		 M449.66,22.35c0.71-0.78,0.96-1.59,0.74-2.44c-0.35-1.27-1.1-2.4-2.23-3.39c-0.64-0.57-1.2-0.88-1.7-0.96
		C448.1,17.97,449.16,20.23,449.66,22.35z M453.9,62.43c0.14-1.7,0.99-3.04,2.54-4.03c0.57-0.28,1.34-0.6,2.33-0.96
		c2.19-0.71,3.96-1.59,5.3-2.65c0.78-0.71,1.73-1.87,2.86-3.5h-0.32c-0.28,0.14-0.53,0.28-0.74,0.42c-1.7,1.2-3.54,2.16-5.51,2.86
		c-0.42,0.14-1.11,0.37-2.07,0.69c-0.95,0.32-1.68,0.58-2.17,0.79c-1.42,0.5-2.51,1.13-3.29,1.91c-0.78,0.78-1.2,1.73-1.27,2.86
		c0,1.2,0.49,1.95,1.48,2.23C453.62,63.28,453.9,63.07,453.9,62.43z M456.76,35.82c-0.14-1.2,0.32-2.23,1.38-3.08
		c0.14-0.07,0.46-0.25,0.96-0.53c2.47-1.48,4.1-2.54,4.88-3.18c0.85-0.64,1.45-1.34,1.8-2.12c-1.63,0.99-2.51,1.52-2.65,1.59
		c-1.27,0.57-2.76,1.24-4.45,2.01c-1.13,0.5-2.01,1.13-2.65,1.91c-0.71,0.78-1.01,1.64-0.9,2.6s0.65,1.5,1.64,1.64
		C456.83,36.6,456.83,36.31,456.76,35.82z M455.6,62.86c0.28,0.28,0.78,0.21,1.48-0.21c1.77-0.99,3.36-2.08,4.77-3.29
		c1.41-1.2,2.33-2.26,2.76-3.18c-0.71,0.5-1.59,0.99-2.65,1.49c-0.5,0.28-1.24,0.6-2.23,0.95c-0.99,0.35-1.59,0.57-1.8,0.64
		c-1.13,0.42-1.87,1.06-2.23,1.91C455.28,61.94,455.24,62.5,455.6,62.86z M468,56.28l0.11-2.12c-0.35,0.64-0.71,1.66-1.06,3.08
		c-0.57,2.76-1.03,4.67-1.38,5.73c-0.71,1.91-1.59,3.32-2.65,4.24c-0.85,0.78-1.8,1.17-2.86,1.17c-1.06,0-2.01-0.39-2.86-1.17
		c-0.28-0.28-0.67-0.74-1.17-1.38c-0.14,2.19,0.74,3.36,2.65,3.5c1.34,0.14,2.61-0.14,3.82-0.85c2.19-1.27,3.64-3.22,4.35-5.83
		C467.37,61.23,467.72,59.11,468,56.28z M465.14,58.4c-0.21,0.21-0.53,0.5-0.96,0.85c-0.42,0.35-0.74,0.6-0.95,0.74
		c-0.64,0.71-1.27,1.27-1.91,1.7c-1.56,1.06-2.69,1.84-3.39,2.33c-0.5,0.28-0.67,0.57-0.53,0.85c0.42,0.85,1.02,1.43,1.8,1.75
		c0.78,0.32,1.55,0.23,2.33-0.26c0.71-0.42,1.27-1.02,1.7-1.8C464.22,62.79,464.86,60.74,465.14,58.4z M459.41,36.35
		c1.91-1.77,3.29-3.36,4.14-4.77c-0.07,0-0.14-0.07-0.21-0.21c-2.26,1.34-3.71,2.23-4.35,2.65c-0.07,0-0.21,0.11-0.42,0.32
		c-0.35,0.42-0.42,0.99-0.21,1.7C458.57,36.67,458.92,36.77,459.41,36.35z M466.84,31.79c0,1.41-0.25,2.79-0.74,4.13
		c-0.92,2.54-2.69,3.61-5.3,3.18c0.21,1.06,0.74,1.63,1.59,1.7c0.85,0,1.59-0.28,2.23-0.85c0.92-0.78,1.7-2.05,2.33-3.82
		c0.78-2.19,0.99-4.77,0.64-7.74C467.08,29.32,466.84,30.45,466.84,31.79z M465.25,31.89c-1.77,2.33-3.11,3.92-4.03,4.77
		c-0.35,0.42-0.26,0.76,0.27,1.01c0.53,0.25,1.11,0.12,1.75-0.37c0.57-0.42,0.99-0.99,1.27-1.7c0.28-0.71,0.46-1.25,0.53-1.64
		C465.1,33.57,465.17,32.89,465.25,31.89z"/>
</g>
</svg>
