<?xml version="1.0" encoding="utf-8"?>
<!-- Generator: Adobe Illustrator 24.0.0, SVG Export Plug-In . SVG Version: 6.00 Build 0)  -->
<svg version="1.1" id="Layer_1" xmlns="http://www.w3.org/2000/svg" xmlns:xlink="http://www.w3.org/1999/xlink" x="0px" y="0px"
	 viewBox="0 0 642 768" style="enable-background:new 0 0 642 768;" xml:space="preserve">
<style type="text/css">
	.st0{fill:#FFFFFF;}
	.st1{fill:#FFFFFF;stroke:#221F1F;stroke-width:2;stroke-linecap:round;stroke-linejoin:round;stroke-miterlimit:10;}
</style>
<g>
	<path class="st0" d="M401.76,733.12c-3.86-1.75-3.2-3.04-4.59-6.71c-4.87-16.52,5.88-135.79,0.77-134.71
		c0.81,2.07-3.13-5.16,4.29-2.4C406.59,588.61,399.09,724.53,401.76,733.12z"/>
	<path class="st0" d="M430.3,731.78c-4.06,2.41-10.5-158.74-7.17-148.77C431.34,593.48,433.77,711.16,430.3,731.78z"/>
	<path class="st1" d="M463.55,299.12"/>
	<path class="st0" d="M434.07,220.14c-103.3-6.63-92.98-146.41,0-148.6C537.36,78.16,527.05,217.94,434.07,220.14z M434.07,76.37
		c-96.87,6.4-86.61,136.94,0,138.95C530.93,208.91,520.68,78.37,434.07,76.37z"/>
	<path class="st1" d="M429.41,153.6"/>
	<path class="st0" d="M577.97,322.03c-8.99-6.45,28.77-41.43,10.11-13.37C607.48,294.97,585.49,320.82,577.97,322.03z"/>
	<path class="st0" d="M410.77,107.88c3.64,10.37,56.99,101.4,50.42,68.36C447.99,174.94,421.51,99.18,410.77,107.88z"/>
	<path class="st0" d="M404.05,104.81c45.72-7.94,49.82,96.54,93.49,101.26C478.11,191.51,431.26,69.87,404.05,104.81z"/>
	<path class="st0" d="M424.41,106.85c55.51-23.66,85.96,189.01,126.1,171.36C507.41,253.53,470.75,62.61,424.41,106.85z"/>
	<path class="st0" d="M427.35,120.03c46.84-4.33,47.25,56.7,78.48,82.42C536.39,228.06,440.64,79.49,427.35,120.03z"/>
	<path class="st0" d="M420.45,113.27c45.23,25.96,65.01,85.23,103.95,120.17C519.7,209.1,434.2,100.33,420.45,113.27z"/>
	<path class="st0" d="M465.57,107.02c49.32,23.62,54.65,190.48,104.7,183.77C524.79,266.09,502.24,88.1,465.57,107.02z"/>
	<path class="st0" d="M473.03,203.31c8.04,5.44,10.06-0.59,34.91,36.67C534.97,270.19,490.63,183.79,473.03,203.31L473.03,203.31z"
		/>
	<path class="st0" d="M484.61,201.27c12.63,5.57,19.63,18.95,26.62,35.03C552.82,298.25,498.29,180.42,484.61,201.27z"/>
	<path class="st0" d="M502.17,161.07c62.2,68.94,24.92,78.82,55.59,111.97C549.26,239.6,540.06,177.71,502.17,161.07L502.17,161.07z
		"/>
	<path class="st0" d="M504.49,137.25c59.13,47.59,20.75,96.23,58.31,136.15C544.07,241.44,554.8,150.15,504.49,137.25z"/>
	<path class="st0" d="M506.62,196.61c10.5,45.79,62.38,63.33,72.1,112.02C591,280.36,517.99,223.54,506.62,196.61L506.62,196.61z"/>
	<path class="st0" d="M543.52,261.85c5.6,8.17,28.05,45.84,40.38,36.83C573.51,295.45,552.72,261.9,543.52,261.85L543.52,261.85z"/>
	<path class="st0" d="M543.41,256.78c18.99,13.49,18.56,25.82,39.77,46.05C590.01,298.34,553.13,247.65,543.41,256.78z"/>
	<path class="st0" d="M587.95,300.59c-12.49,8.58-18.77,38.4,7.58,6.97c-2.15-1.66-4.3-3.32-6.45-4.98
		c-11.56,14.54-13.1,37.26,12.11,8.77c-2.14-2.14-4.27-4.27-6.41-6.41c-1.47,1.9-1.29,1.4-11.43,14.25c2.8,0.37,5.6,0.73,8.39,1.1
		c-0.07-0.98-0.13,0.7,0.03-1.27c0.02-12.81-19.98,8.73-1.21,5.74c1.92,2.66,27.94-42.71-8.69-6.6c0.42-0.33,0.44-0.34,0.05-0.05
		c2.13,1.64,4.26,3.28,6.39,4.92c8.14-11.24,13.74-37.77-11.03-6.59c0.66,1.27,2.27-3.28,5.75,1.49c0.01-0.39-0.02-0.32-0.08,0.2
		c-0.07-0.14,0.16-0.61,0.19-0.73C581.88,315.07,597.54,301.59,587.95,300.59L587.95,300.59z"/>
	<path class="st0" d="M600.24,318.56c-4.27,3.04,28.01,33.58,19.95,16.43C614.14,333.82,607.1,316.9,600.24,318.56L600.24,318.56z"
		/>
	<path class="st0" d="M594.48,316.51c-4.64-1.44,21.68,42.46,34.39,34.9C621.57,343.77,606.04,321.78,594.48,316.51L594.48,316.51z"
		/>
	<path class="st0" d="M596.87,314.52c3.07-3.27,41.57,50.74,39.1,35.7C634.36,338.4,611.82,311.91,596.87,314.52L596.87,314.52z"/>
	<path class="st0" d="M615,338.45c3.15,0.08,20.26,34.14,13.97,12.59C627.17,348.41,618.22,331.12,615,338.45z"/>
	<path class="st0" d="M369.44,122.52c2.05,28.16-41.93,86.41-20.07,98.13C338.03,191.64,381.4,148.24,369.44,122.52L369.44,122.52z"
		/>
	<path class="st0" d="M371.13,119.24c13.05,24.1-17.54,74.7-2.28,94.41C359.53,189.56,388.71,144.67,371.13,119.24L371.13,119.24z"
		/>
	<path class="st0" d="M388.42,92.02c-15.09,2.9-38.69,58.93-18.73,57.82C363.56,133.69,384.88,103.61,388.42,92.02L388.42,92.02z"/>
	<path class="st0" d="M388.36,83c-9.42,3.53-35.16,43.01-17.59,47C365.59,115.67,388.74,92.56,388.36,83L388.36,83z"/>
	<path class="st0" d="M389.27,102.03c-13.13,5.01-35.09,60.67-15.18,60.97C364.36,147.9,391.18,110.68,389.27,102.03L389.27,102.03z
		"/>
	<path class="st0" d="M384.47,109.97c12.17-0.55,24.37,3.92,54.53,15.33C446.41,114.59,386.58,95.16,384.47,109.97z"/>
	<path class="st0" d="M388.47,114.44c14.05,0.31,35.77,14.68,53.3,16.97C446.36,123.79,382.59,101.5,388.47,114.44z"/>
	<path class="st0" d="M389.28,96.78c48.73-12.15,76.3,15.64,95.46,65.12C511.29,111.28,376.49,59.97,389.28,96.78L389.28,96.78z"/>
	<path class="st0" d="M408.33,78.42c33.64-4.47,62.93,27.98,86.91,51.49C504.89,99.2,394.12,53.35,408.33,78.42L408.33,78.42z"/>
	<path class="st0" d="M395.82,82.25c21.51-14.69,29.87-13.88,55.68-7.69C446.35,51.9,385.73,71.67,395.82,82.25z"/>
	<path class="st0" d="M433.6,79.64c41.63,0.62,56.45,18.85,79.17,51.52C524.26,103.87,444.79,58.83,433.6,79.64z"/>
	<path class="st0" d="M471.6,100.68c35.64,12.54,34.81,45.76,49.01,77.71C533.93,160.47,489.55,82.87,471.6,100.68z"/>
	<path class="st0" d="M445.54,88.45c-14.09,5.3,59.28,101.14,76.2,104.02C504.79,158.26,462.32,123.32,445.54,88.45L445.54,88.45z"
		/>
	<path class="st0" d="M467.48,110.28c7.27-2.74,23.46,75.65,58.48,63.97C501.45,175.79,474.75,100.64,467.48,110.28z"/>
	<path class="st0" d="M501.46,132.72c19.35,19.72,25.74,48.4,32.27,76.83C545.07,201.06,512.34,124.95,501.46,132.72z"/>
	<path class="st0" d="M408.7,84.49c26.91-1.33,55.66,13.51,77.5,33.8C498.71,97.49,410.46,63.96,408.7,84.49z"/>
	<path class="st0" d="M407.19,99.89c62.52,5.78,56.29,45.22,82.4,89.45C496.33,154.23,447.41,76.85,407.19,99.89z"/>
	<path class="st0" d="M434.29,125.72c18.81,9.26,37.3,86.76,59.5,60.29C463.9,186.62,459.39,113.58,434.29,125.72z"/>
	<path class="st0" d="M436.3,108.94c-13.06,25,20.89,92.2,48.05,63.97C432.34,168.91,450.49,135.8,436.3,108.94L436.3,108.94z"/>
	<path class="st0" d="M450.98,129.94c15.77,11.21,36.74,53.29,55.2,52.93C503.7,176.59,453.93,116.08,450.98,129.94z"/>
	<path class="st0" d="M508.72,157.48c14.09,18.47,13.28,50.98,18.57,74.07C532.12,215.74,523.36,163.21,508.72,157.48L508.72,157.48
		z"/>
	<path class="st0" d="M517,175.86c7.13,19.7,8.66,47.14,15.8,71.5C541.29,247.88,527.29,171.42,517,175.86L517,175.86z"/>
	<path class="st0" d="M366.48,497.12c-7.21,30.84-17.44,66.25-30.12,100.66C351.48,591.74,370.6,517.47,366.48,497.12L366.48,497.12
		z"/>
	<path class="st0" d="M369.97,549.73c1.93,1.34-14.44,34.15-2.6,35.43C367.29,578.69,379,553.69,369.97,549.73L369.97,549.73z"/>
	<path class="st0" d="M467.4,452.13c29.38,30.95,37.34,78.18,68.98,113.13C518.08,537.95,497.1,475.96,467.4,452.13z"/>
	<path class="st0" d="M530.05,518.85c6.6,9.43,22.52,46.61,36.81,41.17C556.23,554.83,539.75,520.7,530.05,518.85L530.05,518.85z"/>
	<path class="st0" d="M397.26,734.58c-0.35-0.15,3.93,0.15,2.02-0.3c19.3-3.38-21.94-12.52-7.58,4.52
		c2.66-2.24,10.13,4.69,14.89-7.66c-46.27-9.76-4.67,24.62-19.54,0.41c0.4,2.92,0.79,5.84,1.19,8.76c4.12-1.63,8.33-2.86,12.73-3.45
		c-0.39,0.05-0.79,0.11-1.18,0.16c0.84-0.11,1.68-0.2,2.52-0.26c-0.75-2.76-1.49-5.52-2.24-8.27c-1.98,0.76,0.11,0.43-5.44,1.59
		c0.39-0.05,0.78-0.11,1.17-0.16c-1.36,0.17-2.73,0.25-4.1,0.18c0.39,2.85,0.77,5.69,1.16,8.54c0.79-1.16,4.35,0.08,11.47-5.41
		c-1.98-1.16-3.97-2.32-5.95-3.48c-0.11,0.26-0.25,0.5-0.41,0.74c0.32-0.32,0.64-0.64,0.95-0.95
		C397.98,730.44,393.23,731.91,397.26,734.58z"/>
	<path class="st0" d="M431.17,728.22c-0.84,0.04-1.49,0.35-2.19,0.77c0.25-0.1,0.49-0.21,0.74-0.31c-0.4,0.22-0.56,0.09-2.11,1.29
		c0.23-0.18,0.46-0.36,0.69-0.54c-8.23,2.85-4.77,18.62,5.9,6.21c-2.39-1.39-4.78-2.78-7.17-4.17c-0.19,0.55-0.39,1.08-0.61,1.62
		c0.14-0.34,0.29-0.69,0.43-1.03c0.36,1.77-3.97,2.7-2.28,9.07c-0.13-0.31-0.26-0.61-0.39-0.92c4.89,14.3,22.8-24.83-0.32-6.36
		c2.19,1.69,4.37,3.38,6.56,5.06c0.52-1.52,1.35-0.81,3.22-7.24c-0.04,0.28-0.07,0.55-0.11,0.83
		C433.35,730.88,434.91,729.74,431.17,728.22L431.17,728.22z"/>
	<path class="st0" d="M107.03,182.94c-98.76-6.53-88.31-139.62,0-141.67C205.79,47.81,195.33,180.9,107.03,182.94z M107.03,46.1
		c-91.53,5.71-82.58,130.02,0,132.01C198.55,172.4,189.61,48.09,107.03,46.1z"/>
	<path class="st0" d="M38.45,61.77c0.29,0.1,0.58,0.2,0.87,0.3c-0.19-1.51-0.39-3.02-0.58-4.53c1.02,1.38-41.72,42.41-27.24,51.86
		C10.05,113.18,55.02,48.44,38.45,61.77z"/>
	<path class="st0" d="M51.15,60.81c-14.62,4.67-47.25,58.27-22.47,58.32C17.74,100.79,47.26,75.76,51.15,60.81L51.15,60.81z"/>
	<path class="st0" d="M48.82,53.44c-4.36,7.87-27.84,51.1-12.35,55.82C33.36,98.86,54.27,60.36,48.82,53.44L48.82,53.44z"/>
	<path class="st0" d="M58.12,73.17c-18.46,2.77-27.41,80.09-10.76,31.08C45.05,95.24,68.4,77.13,58.12,73.17L58.12,73.17z"/>
	<path class="st0" d="M63.76,93.63c-4.15,5.46-30.2,44.73-16.35,47.81C44.57,130.52,66.16,102.21,63.76,93.63L63.76,93.63z"/>
	<path class="st0" d="M65.58,99.19c-2.7,6.5-33.46,43.91-15.51,46.63c1.21-1.11,0.68-9.87,16.19-36.74
		C67.05,107.03,76.3,96.89,65.58,99.19L65.58,99.19z"/>
	<path class="st0" d="M72.22,72.94c-4.04,7-49.9,42.28-35.2,54.38c6.42-1.34,15.8-29.44-3.9-6.79c1.92,1.92,3.83,3.83,5.75,5.75
		C36.21,122.43,91.87,70.13,72.22,72.94L72.22,72.94z"/>
	<path class="st0" d="M63.99,74.33c-3.45,8.78-26.24,33.16-20.28,43.46C45.75,107.86,68.36,83.02,63.99,74.33L63.99,74.33z"/>
	<path class="st0" d="M30.41,102.65c-2-6.14-15.31,30.99-0.62,31.03C30.49,130.77,29.09,133.25,30.41,102.65L30.41,102.65z"/>
	<path class="st0" d="M67.6,43.16c-1.02-3.61-51.08,32.91-29.87,34.82C39.02,65.32,67.73,54.23,67.6,43.16L67.6,43.16z"/>
	<path class="st0" d="M61.59,42.9c-5.88-0.15-46.78,38.96-21.31,29.54c-0.29,0.29-0.58,0.58-0.87,0.87
		c2.06-0.29,10.65-11.51-2.44-4.17c0.41-0.11,0.81-0.22,1.22-0.33c-1.54-0.12-2.97,0.58-4.39,1.09
		C31.25,76.28,72.63,44.98,61.59,42.9L61.59,42.9z"/>
	<path class="st0" d="M72.8,36.96c-9.57-3.76-47.24,62.07-22.1,53.32C47.48,74.45,68.5,54.73,72.8,36.96L72.8,36.96z"/>
	<path class="st0" d="M83.56,43.94c-3.22,3.76-58.46,63.09-21.1,50.33c3.7-0.15,35.57-29.74-10.28-4.29
		c1.16,1.52,2.32,3.04,3.47,4.56C52.55,86.86,91.94,49.3,83.56,43.94L83.56,43.94z"/>
	<path class="st0" d="M95.6,58.59c-3.44,4.03-53.3,63.62-26.26,47.32c-0.18-0.42,0.58-2.62-5.23-1.82c0.57,1.41,1.14,2.81,1.71,4.22
		C69.88,96.12,99.51,68.66,95.6,58.59L95.6,58.59z"/>
	<path class="st0" d="M94.31,69.56c-4.33,2.48-64.81,63.71-26.74,42.14c6.14-5.33,2.57-10.21-11.08-0.7c1.2,2.07,2.4,4.13,3.61,6.2
		C58.04,112.92,109.68,70.6,94.31,69.56L94.31,69.56z"/>
	<path class="st0" d="M93.1,80.55c-1.73,5.06-13.25,5.01-22.43,28.03c3.88,4.22,11.79-2.36,3.38-5.04c0.48,1.8,0.95,3.61,1.43,5.41
		C76.25,102.92,101.41,86.42,93.1,80.55L93.1,80.55z"/>
	<path class="st0" d="M87.64,91.02c-2.3,0.68-13.72,18.58,2.24,2.24C89.83,93.39,91.35,89.93,87.64,91.02L87.64,91.02z"/>
	<path class="st0" d="M120.24,109.48c-5.67,15.25,19.12,30.38,5.98-1.58C125.77,108.49,124.75,104.26,120.24,109.48L120.24,109.48z"
		/>
	<path class="st0" d="M383.99,141.33c-1.35,3-1.97,7.1,0.91,15.66c-0.17-0.41-0.34-0.82-0.52-1.22c0.99,2.44,0.78,4.61,5.8,6.12
		c-0.95-0.39-1.91-0.79-2.86-1.18c0.99,0.71,3.69,3.94,6.76-1.79c-0.62,0.81-1.24,1.61-1.86,2.42c1.11-0.91,3.4-2.25,2.08-7.96
		c0.06,0.45,0.12,0.9,0.18,1.35C393.92,155,393.82,134.28,383.99,141.33L383.99,141.33z"/>
	<path class="st0" d="M408.02,140.93c-1.08,1.02-1.18,2.24-1.3,3.63c0.18-0.66,0.36-1.33,0.54-1.99c-0.67,2.38-0.95-0.94,0.15,10.87
		c-0.06-0.44-0.12-0.88-0.18-1.31c0.21,1.55,0.42,3.09,0.63,4.64c-0.06-0.44-0.12-0.88-0.18-1.32c0.51,0.87-0.85,1.42,1.97,4.85
		c-0.39-0.66-0.77-1.32-1.16-1.98c-0.21,3.62,8.52,9.3,8.83-1.2c-0.2,0.76-0.41,1.51-0.61,2.27c-0.81-1.95,5.04-1.86-4.06-18.24
		c0.47,0.47,0.94,0.94,1.42,1.42C413.01,142.38,413.48,138.74,408.02,140.93L408.02,140.93z"/>
	<path class="st0" d="M144.23,105.49c-0.09,1.44-0.54,0.95,0.2,4.71c-0.3-1.33,0.17,1.49,0.06,0.89c0.25,0.76,0.84,6.01,1.5,7.73
		c-0.42,4.58,8.84,7.57,7.85-1.06c0.82,0.57-2.58-11.25-4.41-12.72C148.71,104.64,147.3,101.54,144.23,105.49L144.23,105.49z"/>
	<path class="st0" d="M114.71,74.54c-6.66,2.86-38.11,18.41-30.6,29.58C85.87,101.16,118.97,80.62,114.71,74.54L114.71,74.54z"/>
	<path class="st0" d="M113.94,63.77c-26.54,8.39-61.54,44.7-4.04,8.19C111.45,70.71,123.65,66.85,113.94,63.77L113.94,63.77z"/>
	<path class="st0" d="M98.3,44.94C80.23,34.28,52.19,82.66,68.53,66.45c-0.25,1.96-0.51,3.93-0.76,5.89
		C70.08,60.35,98.4,54.07,98.3,44.94L98.3,44.94z"/>
	<path class="st0" d="M87.09,39.23c-5.25-5.2-27.08,29.68-12.84,13.29c0.24,0.04-0.15-0.09,0.25,0.08c-0.05-0.03-0.1-0.06-0.16-0.09
		c0.75,0.56-1-0.73-0.34-0.28c-0.21,1.66-0.43,3.33-0.64,4.99c2.14-1.31-0.72-0.25,10.2-10.06C84.31,46.63,95.93,40.21,87.09,39.23
		L87.09,39.23z"/>
	<path class="st0" d="M82.95,40.8c-7.35-4.23-23.55,18.94-9.01,8.7c0.59-0.59,0.09-0.36,3.16-3.28c1.02-0.83,0.58-0.17,2.51-2.1
		c-0.19,0.19-0.37,0.37-0.56,0.56C78.55,42.93,82.84,46.34,82.95,40.8L82.95,40.8z"/>
	<path class="st0" d="M88.95,33.62C74.33,27.13,55.4,64.42,71.22,52.72c0.07,0.05,0.14,0.11,0.21,0.16c-0.21-0.22-0.2-0.2,0.03,0.06
		c-0.04-0.06-0.07-0.13-0.11-0.19c0.07,0.37,0.01-0.22,0.07-1.63c-0.09,0.81,0.23-1.07,0.6-1.88
		C71.68,41.49,92.92,40.32,88.95,33.62L88.95,33.62z"/>
	<path class="st0" d="M118.25,33.49C108.08-0.45,53.17,94.12,87,56.8C92.39,52.03,95.56,36.83,118.25,33.49z"/>
	<path class="st0" d="M116.32,41.7c-6.94-8.42-58.31,52.81-32.09,41.51C83.66,69.96,117.71,51.3,116.32,41.7L116.32,41.7z"/>
	<path class="st0" d="M128.28,51.93c-9.94,3.59-57.45,27.63-38.9,38.18c1.31,0.07,6.18-2.59,0.79-4.59c0.38,0.5,0.76,0.99,1.14,1.49
		c-0.07-0.46-0.18-0.88-0.25-1.33C89.37,82.41,136.68,59.56,128.28,51.93L128.28,51.93z"/>
	<path class="st0" d="M127.92,71.89c-1.52,3.28-48.4,9.02-33.02,19.91C99.95,87.51,131.13,81.03,127.92,71.89L127.92,71.89z"/>
	<path class="st0" d="M124.25,70.26c-13.43-0.48-53.55,31.46,1.27,4.64C127.04,73.86,127.78,72.68,124.25,70.26L124.25,70.26z"/>
	<path class="st0" d="M124.34,76.78c-0.5,0.02,0.01-0.03-1.58,0.26c-4.14,1.53-12.32,5.05-18.38,13.64
		c-1.2,0.95-1.13,7.49,4.61,4.61c4.58-2.54,1.86-1.06,14.5-11.8c1.43-0.84-0.02,0,2.49-2.85c-0.25,0.42-0.49,0.84-0.74,1.26
		C126.6,79.61,127.72,80.58,124.34,76.78L124.34,76.78z"/>
	<path class="st0" d="M139.66,68.35c9.69,7.64,50.22,5.51,0.59-4.34C138.79,64.38,137.8,65.02,139.66,68.35z"/>
	<path class="st0" d="M152.13,63.77c2.5,1.4-1.03-0.88,10.09,6.09C184.37,94.89,171.55,51.47,152.13,63.77z"/>
	<path class="st0" d="M143.88,55.38c-0.93,1.04,24.6,26.73,19.72,9.94C161.47,64.03,150.72,46.38,143.88,55.38L143.88,55.38z"/>
	<path class="st0" d="M131.5,50.84c2.51,0.93,1.1,0.25,13.17,3.61c1.68,0.88,1.76,0.54,5.77,3.31c-0.11-0.34-0.94-0.02,2.97,1.77
		c-0.54-0.32-1.08-0.63-1.62-0.95c1.04,1.91,10.83,4.91,5.78-4.46c0.17,0.62,0.33,1.24,0.5,1.86
		C163.94,53.7,127.12,34.75,131.5,50.84z"/>
	<path class="st0" d="M104.95,45.57c0.59,1.27,4.05,2.34,11.19,0.63C152.17,50.71,121.74,21.93,104.95,45.57z"/>
	<path class="st0" d="M114.35,38.69c0.43-0.07,0.87-0.14,1.31-0.21c-0.45,0-0.9,0-1.36,0c5.28-1.55,15.51,3.16,25.12,1.66
		c-0.71,0.3-1.43,0.59-2.14,0.89c-0.12-0.67,5.99,0.65,2.61-4.55c0.14,0.51,0.28,1.02,0.41,1.53
		C147.27,34.03,105.33,25.94,114.35,38.69z"/>
	<path class="st0" d="M128.88,49.48c0.5-0.17,0.91-0.42,1.37-0.66c-0.37,0.1-0.73,0.2-1.1,0.3c0.56,0.15,2.06-0.97,4.1-1.17
		C181.84,53.06,133.96,24.45,128.88,49.48z"/>
	<path class="st0" d="M150.04,50.88c1.41,1.19,2.03-1.92,12.22,7.25c1.58,3.84,7.86,2.26,3.22-2.89c0.14,0.23-0.18-0.32-0.18-0.32
		C163.74,52.84,151.11,44.59,150.04,50.88z"/>
	<path class="st0" d="M158.2,60.03c0.16,0.07,0.65,0.61-0.1-0.54c0.32,1,0.08,0.19,2.69,2.49c-0.29-0.12,2.13,1.57,2.42,1.81
		c7.97,13.85,20.37,6.48-0.22-5.57c-1.47-0.65-0.08-0.1-3.59-1c0.33,0,0.66,0,0.98,0C160.18,56.85,156.06,56.37,158.2,60.03z"/>
	<path class="st0" d="M123.59,52.25c7.46-17.62-37.04,2.42-21.22,20.44c-0.5-0.29-1.01-0.59-1.51-0.88c1.33,1.03,3,1.99,4.62,0.85
		c-0.4,0.11-0.81,0.22-1.21,0.33c-0.15-0.13,4.56-0.5,2.03-3.6c0.19,0.3,0.2,0.3,0.04-0.02c0,0.81,0,1.62,0,2.43
		c0.06-0.39,0.51-0.5,0.35-2.42c0.01,0.39,0.01,0.39,0,0.01c-0.16,0.58-0.31,1.15-0.47,1.73c0.36-0.61,1.51-3.16,1.59-3.58
		c1.74-3.37,3.55-7.95,9.23-12.21c-1.45,0.4,7.51-3.72,3.9-2.88c0-0.55-2.22-0.28-1.9-3.11C119.27,49.5,118.18,54.21,123.59,52.25z"
		/>
	<path class="st0" d="M113.88,63.9c-4.34,1.17,39.11,17.17,26.69,0.65C139.66,67.08,132.11,53.2,113.88,63.9L113.88,63.9z"/>
	<path class="st0" d="M117.53,77.5c-1.5-1.39,25.58,0.61,25.84-10.41C139.47,67.94,115.88,68.76,117.53,77.5z"/>
	<path class="st0" d="M118.17,81.92c0.25,0.58,0.7,0.83,1.26,1.08C137.16,92.72,156.53,62.97,118.17,81.92L118.17,81.92z"/>
	<path class="st0" d="M121.71,67.33c4.66-0.46,64.92-1.97,23.97-8.27C140.9,60.3,117.63,58.12,121.71,67.33z"/>
	<path class="st0" d="M123.8,60.42c14.13,3.92,47.94-16.63-0.75-5.51C123.24,55.16,118.22,57.58,123.8,60.42z"/>
	<path class="st0" d="M119.98,56.85c-0.38-0.4,0.66,1.2-1.71,1.95c0.53-0.21,0.16,0.04,1.78-1.13c-0.47,0.32,0.79-0.41,0.04-0.03
		c21.66-0.45,16.86-22.87-5.34-0.83c0-0.51,0-1.01,0-1.52C113.81,55.38,117.25,64.72,119.98,56.85L119.98,56.85z"/>
	<path class="st0" d="M105.4,58.06c3.68,1.57,3.19,0.78,14.76-2.21C136.81,53.57,112.71,40.54,105.4,58.06z"/>
	<path class="st0" d="M91.48,48.92c-4.74-3.59-59.28,38.95-37.23,37.46C61.01,75.4,90.87,58.16,91.48,48.92L91.48,48.92z"/>
	<path class="st0" d="M80.5,51.47c-15.63,4.39-27.89,73.84-8.43,22.11C70.41,69.65,92.3,53.54,80.5,51.47L80.5,51.47z"/>
	<path class="st0" d="M112.96,61.76c-24.05,7.53-70.35,73.53,2.71,4.64C116.97,64.84,117.46,63.33,112.96,61.76L112.96,61.76z"/>
	<path class="st0" d="M116.62,67.65c3.2-2.42-34.48,15.13-17.35,21.8C97.67,87.61,116.43,75.09,116.62,67.65L116.62,67.65z"/>
	<path class="st0" d="M74.96,51.92c-8.91-3.36-41.78,52.51-20.27,37.25C54.21,78.24,77.14,61.9,74.96,51.92L74.96,51.92z"/>
	<path class="st0" d="M93.98,53.27c-5.27,0.81-55.34,78.58-28.27,53.86C61.33,105.43,106.25,54.28,93.98,53.27L93.98,53.27z"/>
	<path class="st0" d="M47.99,93.61c-3.51-0.6-19.19,60.22-4.35,38.57C42.33,130.64,57.81,94.1,47.99,93.61L47.99,93.61z"/>
	<path class="st0" d="M36.18,102.26c-3.45-1.44-4.25,45.12,4.71,26.36C37.13,124.08,45.18,103.72,36.18,102.26L36.18,102.26z"/>
	<path class="st0" d="M77.9,100.91c1.74-0.49-30.45,23.3-18.51,31.82C59.23,130.59,68.25,130.37,77.9,100.91L77.9,100.91z"/>
	<path class="st0" d="M97.98,29.44c-3.94-10.22-43.5,20.02-19.09,13.63c1.08-0.48,3.23-2.51,9.3-5.41
		C89.5,35.09,99.28,38.1,97.98,29.44L97.98,29.44z"/>
	<path class="st0" d="M39.79,56.85c-0.49-0.18-0.92-0.7-0.42,0.35C35.27,45.27,9.17,86.97,26.2,77.03c2-1.64-1.72-1.43,13.25-19.22
		C38.85,58.41,40.5,59.21,39.79,56.85L39.79,56.85z"/>
	<path class="st0" d="M96.02,187.76c-3.22,79.9-24.27,174.11-39.05,248.14C83.38,362.2,103.73,264.91,96.02,187.76L96.02,187.76z"/>
	<path class="st0" d="M53.58,427.15c-2.26,2.35-12.35,23.48-3.15,29.96C50.12,455.45,56.26,451.68,53.58,427.15L53.58,427.15z"/>
	<path class="st0" d="M47.01,460.75c19.9-2.1,39.04-17.18,66.62-16.45C175.87,437.32,83.06,421.9,47.01,460.75z"/>
	<path class="st0" d="M99.32,188.04c-2.27,63.08,6.42,256.91,40.58,254.06C95.44,369.07,115.29,268.98,99.32,188.04L99.32,188.04z"
		/>
	<path class="st0" d="M62.44,449.49c-8.84,85.78-8.98,189.05-7.36,274.83C62.47,638.5,66.01,538.1,62.44,449.49L62.44,449.49z"/>
	<path class="st0" d="M52.85,723.58c10.78-0.35,30.49-5.53,44.73-8.78C92.76,706.34,59.68,714.78,52.85,723.58z"/>
	<path class="st0" d="M94,712.08c-4.74-72.37,4.45-159.45,7.3-229.5c0.63-0.26,1.27-0.53,1.9-0.79c-2.95-1.57-3.08,9.38,4.02,3.2
		c-1.83-11.09-11.3-5.45-13.07,20.42C90.87,574.74,83.39,645.73,94,712.08L94,712.08z"/>
	<path class="st0" d="M103.44,491.55c0.53-0.92-0.77-2.36,1.68-3.94c-0.12,0.02-0.1,0.02,0.06,0.01c-0.76-0.67-0.42,0.03,0,0.32
		c-0.21-0.17,0.84,0.94,1.11,1.25c0.54,0.72,0.98,1.43,1.79,2.86c0.43,1.24,0.41,0.9,1.06,3.82c-0.01-0.09-0.02-0.17-0.03-0.26
		c1.71,8.37,10.93-6.83-4.12-10.63c0.11-0.03,0.22-0.06,0.33-0.08C103.45,484.21,100.22,489.66,103.44,491.55L103.44,491.55z"/>
	<path class="st0" d="M109.31,493.39c9.81,69.56-3.77,145.36,11.85,217.54C116.37,649.33,128.35,558.49,109.31,493.39L109.31,493.39
		z"/>
	<path class="st0" d="M119.81,707.72c-1,11.71,44.91,11.4,30.78,2.7C143.77,711.88,144.99,710.38,119.81,707.72L119.81,707.72z"/>
	<path class="st0" d="M134.31,450.84c18.17,81.69,0.83,178.17,16.81,261.62C143.86,630.75,161.4,532.2,134.31,450.84L134.31,450.84z
		"/>
	<path class="st0" d="M67.78,722.7c-0.05,0.13-0.54,1.15-0.16,0.55c-5.96,4.33,5.48,27.18,4.68,9.36c-0.16-1.33-0.02-0.29-0.43-2.97
		c-0.59-2.03,0.77-0.72-1.24-6.53c0.17,0.3,0.34,0.59,0.52,0.89C70.69,721.38,71.5,722.81,67.78,722.7L67.78,722.7z"/>
	<path class="st0" d="M73.91,737.65c-0.07-0.07-0.15-0.14-0.22-0.22c0.15,0.36,0.3,0.72,0.45,1.08c0.01-0.2,0.02-0.4,0.02-0.6
		c-1.79,0.74-3.58,1.48-5.36,2.22c1.56,4.01,32.51,6.48,18.14-4.7c-10.7-3.18-35.81,10.05,0.53,8.79c3.18,0.37,6.72-5.78,0-6.08
		c-2.47-1.13-7.18,0.62-15.91-1.36c-0.29,2.15-0.58,4.3-0.87,6.45c2.19,0.13,1.75-0.6,15.14,0.42c0.37-2.74,0.74-5.48,1.11-8.22
		c-4.3-2.79-28.51,2.68-13.24,4.16c-0.36,0.15-0.72,0.3-1.08,0.45C74.2,739.95,72.9,740.22,73.91,737.65L73.91,737.65z"/>
	<path class="st0" d="M139.21,735.15c4.02,16.39,34.66-2.23,1.61-0.09c-4.92,7.79,21.19,15.36,15.69,2.74
		c0.29,0.12,0.3,0.1-0.68-0.3c0.14,0.06,0.29,0.12,0.43,0.18c-1.93-1.17-5.71-0.56-8.05-2.65c0.55,0.4,0.6,0.52-0.76-0.81
		c-1.37,2.35-2.74,4.71-4.11,7.06c2.69,0.6,5.37,1.31,8.1,1.67c0-2.68,0-5.37,0-8.05c0.24,0.05-2.09-0.18-1.27-0.08
		c-0.18,0.01-3.07-0.6-4.65-1.25C142.9,733.29,141.09,729.83,139.21,735.15L139.21,735.15z"/>
	<path class="st0" d="M136.46,713.49c-0.23-2.27-3.31,27.37,7.06,20.98C142.61,731.61,146.12,713.91,136.46,713.49L136.46,713.49z"
		/>
	<path class="st0" d="M94.98,196.38c-0.01,0.04-0.04,0.12-0.11,0.34c-0.27,0.28-0.3,0.63-0.94,1.48c-0.14,0.22-0.58,0.6-1.56,1.63
		c-1.51,2.55,3.35,1.14,3.27-2.96c0,0.08,0,0.15,0,0.23C95.69,196.49,96.12,196.29,94.98,196.38L94.98,196.38z"/>
	<path class="st0" d="M92.94,199.61c-57.53-69.97-61.42,189.02-15.35,128.37C34.47,358.22,41.71,161.04,92.94,199.61L92.94,199.61z"
		/>
	<path class="st0" d="M96.75,223.19c41.53,60.19,116.69,139.09,186.53,150.83C168.34,320.12,155.4,270.12,96.75,223.19L96.75,223.19
		z"/>
	<path class="st0" d="M96.97,185.32c16.38,28.74,147.3,194.71,153.99,168.43C189.71,312.93,152.95,233.83,96.97,185.32L96.97,185.32
		z"/>
	<path class="st0" d="M249.69,362.7c62.09-34.67,131.81-89.05,173.33-142.04C372.38,266.73,298.4,322.59,249.69,362.7z"/>
	<path class="st0" d="M277.59,374.51c-1.6-0.86-3.21-1.24-5-0.92c0.54,1.29,1.08,2.57,1.63,3.86
		c47.96-40.65,116.64-104.55,145.57-153.7C384.02,265.41,293.62,347.87,277.59,374.51L277.59,374.51z"/>
	<path class="st0" d="M414.82,218.85c1.21,93.1,27.36,227.41,110.75,276.24C412.09,367.94,444.8,314.78,414.82,218.85L414.82,218.85
		z"/>
	<path class="st0" d="M514.89,493.61c23.85,22.54,56.65,66.81,85.07,83.81C596.81,573.28,541.14,503.66,514.89,493.61L514.89,493.61
		z"/>
	<path class="st0" d="M286.35,626.44c135.27-38.99,209.34-67.17,315.55-47.63C506.4,536.54,365.82,593.67,286.35,626.44z"/>
	<path class="st0" d="M297.82,611.36c69.82-108.64,113.67-253.13,119.57-377.72C374.37,440.89,360.05,495.63,297.82,611.36
		L297.82,611.36z"/>
	<path class="st0" d="M387.89,450.36c-0.99,19.92-4.39,44.18-13.1,68.94C386,510.73,391.4,470.82,387.89,450.36L387.89,450.36z"/>
</g>
</svg>
